#define 10_xbm_width 144 
#define 10_xbm_height 155 
static unsigned char 10_xbm_bits[] = { 
 0x00 , 0x00 , 0x00 , 0x00 , 0x00 , 0x00 , 0x00 , 0x54 , 0x55 , 0x00 , 0x00 , 0x00 , 0x00 , 0x00 , 0x00 , 0x00 , 0x00 , 0x00 ,
 0x00 , 0x00 , 0x00 , 0x00 , 0x00 , 0x00 , 0x50 , 0x01 , 0x00 , 0x01 , 0x00 , 0x00 , 0x00 , 0x00 , 0x00 , 0x00 , 0x00 , 0x00 ,
 0x00 , 0x00 , 0x00 , 0x00 , 0x00 , 0x00 , 0x05 , 0x00 , 0x00 , 0x02 , 0x00 , 0x00 , 0x00 , 0x00 , 0x00 , 0x00 , 0x00 , 0x00 ,
 0x00 , 0x00 , 0x00 , 0x00 , 0x00 , 0xa0 , 0x00 , 0x00 , 0x00 , 0x01 , 0x00 , 0x00 , 0x00 , 0x00 , 0x00 , 0x00 , 0x00 , 0x00 ,
 0x00 , 0x00 , 0x00 , 0x00 , 0x00 , 0x14 , 0x00 , 0x00 , 0x40 , 0x00 , 0x00 , 0x00 , 0x00 , 0x00 , 0x00 , 0x00 , 0x00 , 0x00 ,
 0x00 , 0x00 , 0x00 , 0x00 , 0x00 , 0xbf , 0x62 , 0x80 , 0xb2 , 0x00 , 0x00 , 0x00 , 0x00 , 0x00 , 0x00 , 0x00 , 0x00 , 0x00 ,
 0x00 , 0x00 , 0x00 , 0x00 , 0xc0 , 0xea , 0xd7 , 0xbd , 0x2c , 0x00 , 0x00 , 0x00 , 0x00 , 0x00 , 0x00 , 0x00 , 0x00 , 0x00 ,
 0x00 , 0x00 , 0x00 , 0x00 , 0xd0 , 0x0a , 0xb5 , 0xd6 , 0x0b , 0x00 , 0x00 , 0x00 , 0x00 , 0x00 , 0x00 , 0x00 , 0x00 , 0x00 ,
 0x00 , 0x00 , 0x00 , 0x00 , 0x68 , 0x49 , 0x98 , 0x7c , 0x00 , 0x00 , 0x00 , 0x00 , 0x00 , 0x00 , 0x00 , 0x00 , 0x00 , 0x00 ,
 0x00 , 0x00 , 0x00 , 0x00 , 0x04 , 0x00 , 0x90 , 0x10 , 0x00 , 0x00 , 0x00 , 0x00 , 0x00 , 0x00 , 0x00 , 0x00 , 0x00 , 0x00 ,
 0x00 , 0x00 , 0x00 , 0x00 , 0x02 , 0x00 , 0x20 , 0x05 , 0x00 , 0x00 , 0x00 , 0x00 , 0x00 , 0x00 , 0x00 , 0x00 , 0x00 , 0x00 ,
 0x00 , 0x00 , 0x00 , 0x00 , 0x04 , 0x00 , 0x94 , 0x00 , 0x00 , 0x00 , 0x00 , 0x00 , 0x00 , 0x00 , 0x00 , 0x00 , 0x00 , 0x00 ,
 0x00 , 0x00 , 0x00 , 0x00 , 0xa8 , 0xaa , 0x21 , 0x01 , 0x00 , 0x00 , 0x00 , 0x00 , 0x00 , 0x00 , 0x00 , 0x00 , 0x00 , 0x00 ,
 0x00 , 0x00 , 0x00 , 0x00 , 0x00 , 0x00 , 0x20 , 0x01 , 0x00 , 0x00 , 0x00 , 0x00 , 0x00 , 0x00 , 0x00 , 0x00 , 0x00 , 0x00 ,
 0x00 , 0x00 , 0x00 , 0x00 , 0x00 , 0x00 , 0x40 , 0x02 , 0x00 , 0x00 , 0x00 , 0x00 , 0x00 , 0x00 , 0x00 , 0x00 , 0x00 , 0x00 ,
 0x00 , 0x00 , 0x00 , 0x00 , 0x00 , 0x00 , 0x40 , 0x02 , 0x00 , 0x00 , 0x00 , 0x00 , 0x00 , 0x00 , 0x00 , 0x00 , 0x00 , 0x00 ,
 0x00 , 0x00 , 0x00 , 0x00 , 0x00 , 0x00 , 0x40 , 0x02 , 0x00 , 0x00 , 0x00 , 0x00 , 0x00 , 0x00 , 0x00 , 0x00 , 0x00 , 0x00 ,
 0x00 , 0x00 , 0x00 , 0x00 , 0x00 , 0x00 , 0x80 , 0x00 , 0x00 , 0x00 , 0x00 , 0x00 , 0x00 , 0x00 , 0x00 , 0x00 , 0x00 , 0x00 ,
 0x00 , 0x00 , 0x00 , 0x00 , 0x00 , 0x00 , 0x80 , 0x04 , 0x00 , 0x00 , 0x00 , 0x00 , 0x00 , 0x00 , 0x00 , 0x00 , 0x00 , 0x00 ,
 0x00 , 0x00 , 0x00 , 0x00 , 0x00 , 0x00 , 0x80 , 0x04 , 0x00 , 0x00 , 0x00 , 0x00 , 0x00 , 0x00 , 0x00 , 0x00 , 0x00 , 0x00 ,
 0x00 , 0x00 , 0x00 , 0x00 , 0x00 , 0x00 , 0x80 , 0x2d , 0x00 , 0x00 , 0x00 , 0x00 , 0x00 , 0x00 , 0x00 , 0x00 , 0x00 , 0x00 ,
 0x00 , 0x00 , 0x00 , 0x00 , 0x00 , 0x00 , 0x40 , 0x40 , 0x00 , 0x00 , 0x00 , 0x00 , 0x00 , 0x00 , 0x00 , 0x00 , 0x00 , 0x00 ,
 0x00 , 0x00 , 0x00 , 0x00 , 0x00 , 0x00 , 0x20 , 0xa8 , 0xff , 0x15 , 0x00 , 0x00 , 0x00 , 0x00 , 0x00 , 0x00 , 0x00 , 0x00 ,
 0x00 , 0x00 , 0x00 , 0x00 , 0x00 , 0x00 , 0x20 , 0x77 , 0x00 , 0xea , 0x02 , 0x00 , 0x00 , 0x00 , 0x00 , 0x00 , 0x00 , 0x00 ,
 0x00 , 0x00 , 0x00 , 0x00 , 0x00 , 0x00 , 0xf0 , 0x8a , 0xea , 0x15 , 0x1d , 0x00 , 0x00 , 0x00 , 0x00 , 0x00 , 0x00 , 0x00 ,
 0x00 , 0x00 , 0x00 , 0x00 , 0x00 , 0x00 , 0x0e , 0x51 , 0x1a , 0x54 , 0xd1 , 0x00 , 0x00 , 0x00 , 0x00 , 0x00 , 0x00 , 0x00 ,
 0x00 , 0x00 , 0x00 , 0x00 , 0x00 , 0x80 , 0x51 , 0x8a , 0x04 , 0x60 , 0x2a , 0x07 , 0x00 , 0x00 , 0x00 , 0x00 , 0x00 , 0x00 ,
 0x00 , 0x00 , 0x00 , 0x00 , 0x00 , 0x60 , 0xa5 , 0x54 , 0x03 , 0x80 , 0x42 , 0x1c , 0x00 , 0x00 , 0x00 , 0x00 , 0x00 , 0x00 ,
 0x00 , 0x00 , 0x00 , 0x00 , 0x00 , 0x58 , 0x5a , 0x49 , 0x00 , 0x00 , 0x55 , 0x61 , 0x00 , 0x00 , 0x00 , 0x00 , 0x00 , 0x00 ,
 0x00 , 0x00 , 0x00 , 0x00 , 0x00 , 0xa6 , 0xa2 , 0x92 , 0x01 , 0x00 , 0x2a , 0x95 , 0x01 , 0x00 , 0x00 , 0x00 , 0x00 , 0x00 ,
 0x00 , 0x00 , 0x00 , 0x00 , 0x80 , 0x49 , 0x00 , 0xa6 , 0x00 , 0x00 , 0x44 , 0x2a , 0x07 , 0x00 , 0x00 , 0x00 , 0x00 , 0x00 ,
 0x00 , 0x00 , 0x00 , 0x00 , 0x40 , 0x32 , 0x00 , 0xa8 , 0x00 , 0x00 , 0x98 , 0x44 , 0x08 , 0x00 , 0x00 , 0x00 , 0x00 , 0x00 ,
 0x00 , 0x00 , 0x00 , 0x00 , 0xb0 , 0x14 , 0x00 , 0x58 , 0x00 , 0x00 , 0xa8 , 0x52 , 0x35 , 0x00 , 0x00 , 0x00 , 0x00 , 0x00 ,
 0x00 , 0x00 , 0x00 , 0x00 , 0x48 , 0x0d , 0x00 , 0x20 , 0x00 , 0x00 , 0x10 , 0x95 , 0x64 , 0x00 , 0x00 , 0x00 , 0x00 , 0x00 ,
 0x00 , 0x00 , 0x00 , 0x00 , 0x14 , 0x01 , 0x00 , 0x60 , 0x00 , 0x00 , 0x50 , 0x28 , 0x89 , 0x00 , 0x00 , 0x00 , 0x00 , 0x00 ,
 0x00 , 0x00 , 0x00 , 0x00 , 0xaa , 0x06 , 0x00 , 0x40 , 0x00 , 0x00 , 0xa0 , 0x42 , 0xaa , 0x03 , 0x00 , 0x00 , 0x00 , 0x00 ,
 0x00 , 0x00 , 0x00 , 0x80 , 0x45 , 0x02 , 0x00 , 0x40 , 0x00 , 0x00 , 0x20 , 0x55 , 0x49 , 0x04 , 0x00 , 0x00 , 0x00 , 0x00 ,
 0x00 , 0x00 , 0x00 , 0x80 , 0x94 , 0x02 , 0x00 , 0x40 , 0x00 , 0x00 , 0xa0 , 0x8a , 0x92 , 0x0a , 0x00 , 0x00 , 0x00 , 0x00 ,
 0x00 , 0x00 , 0x00 , 0x60 , 0x29 , 0x01 , 0x00 , 0x80 , 0x60 , 0x00 , 0x40 , 0x75 , 0x24 , 0x19 , 0x00 , 0x00 , 0x00 , 0x00 ,
 0x00 , 0x00 , 0x00 , 0x20 , 0x52 , 0x01 , 0x00 , 0x80 , 0xf0 , 0x00 , 0x20 , 0x80 , 0xcb , 0x12 , 0x00 , 0x00 , 0x00 , 0x00 ,
 0x00 , 0x00 , 0x00 , 0x50 , 0x45 , 0x01 , 0x00 , 0x80 , 0xf0 , 0x01 , 0x00 , 0x00 , 0xb4 , 0x64 , 0x00 , 0x00 , 0x00 , 0x00 ,
 0x00 , 0x00 , 0x00 , 0x28 , 0x29 , 0x01 , 0x00 , 0x07 , 0x11 , 0x01 , 0x20 , 0x00 , 0x68 , 0x4a , 0x00 , 0x00 , 0x00 , 0x00 ,
 0x00 , 0x00 , 0x00 , 0x4c , 0x52 , 0x01 , 0x80 , 0x87 , 0x10 , 0x03 , 0x00 , 0x00 , 0x84 , 0x91 , 0x00 , 0x00 , 0x00 , 0x00 ,
 0x00 , 0x00 , 0x00 , 0x92 , 0x24 , 0x01 , 0x80 , 0x0f , 0xb1 , 0x03 , 0x20 , 0x00 , 0x01 , 0x56 , 0x01 , 0x00 , 0x00 , 0x00 ,
 0x00 , 0x00 , 0x00 , 0xaa , 0x4a , 0x01 , 0x80 , 0x89 , 0xe2 , 0x01 , 0x10 , 0x40 , 0x00 , 0xa4 , 0x02 , 0x00 , 0x00 , 0x00 ,
 0x00 , 0x00 , 0x00 , 0x45 , 0x12 , 0x03 , 0x80 , 0x09 , 0xc2 , 0x01 , 0x10 , 0x20 , 0x00 , 0x18 , 0x05 , 0x00 , 0x00 , 0x00 ,
 0x00 , 0x00 , 0x80 , 0xaa , 0xa4 , 0x02 , 0x80 , 0x99 , 0x04 , 0x00 , 0x08 , 0x08 , 0x00 , 0x50 , 0x05 , 0x00 , 0x00 , 0x00 ,
 0x00 , 0x00 , 0x80 , 0x08 , 0x69 , 0x04 , 0x00 , 0x8f , 0x0a , 0x00 , 0x04 , 0x04 , 0x00 , 0xa0 , 0x04 , 0x00 , 0x00 , 0x00 ,
 0x00 , 0x00 , 0x40 , 0x55 , 0x15 , 0x04 , 0x00 , 0xce , 0x7f , 0x00 , 0x03 , 0x01 , 0x00 , 0x4a , 0x0a , 0x00 , 0x00 , 0x00 ,
 0x00 , 0x00 , 0x40 , 0x51 , 0x0a , 0x08 , 0x00 , 0x60 , 0x75 , 0x69 , 0x80 , 0x00 , 0x80 , 0xe0 , 0x09 , 0x00 , 0x00 , 0x00 ,
 0x00 , 0x00 , 0xa0 , 0x8a , 0x02 , 0x10 , 0x00 , 0xf0 , 0xe1 , 0x02 , 0x20 , 0x00 , 0x40 , 0x90 , 0x15 , 0x00 , 0x00 , 0x00 ,
 0x00 , 0x00 , 0x20 , 0x52 , 0x01 , 0x20 , 0x00 , 0xd0 , 0xe0 , 0x01 , 0x10 , 0x00 , 0x00 , 0x07 , 0x12 , 0x00 , 0x00 , 0x00 ,
 0x00 , 0x00 , 0x50 , 0xa5 , 0x00 , 0x40 , 0x00 , 0xf8 , 0xe0 , 0x01 , 0x04 , 0x00 , 0x70 , 0x00 , 0x36 , 0x00 , 0x00 , 0x00 ,
 0x00 , 0x00 , 0x50 , 0x7a , 0x00 , 0x80 , 0x00 , 0xf4 , 0x61 , 0x01 , 0x01 , 0x00 , 0x07 , 0x00 , 0x24 , 0x00 , 0x00 , 0x00 ,
 0x00 , 0x00 , 0xa8 , 0x94 , 0x02 , 0x00 , 0x56 , 0xb9 , 0xff , 0x01 , 0x01 , 0xd0 , 0x00 , 0x00 , 0x28 , 0x00 , 0x00 , 0x00 ,
 0x00 , 0x00 , 0x08 , 0x09 , 0x58 , 0x00 , 0x00 , 0xf0 , 0xfb , 0x01 , 0x00 , 0x06 , 0x00 , 0x00 , 0x48 , 0x00 , 0x00 , 0x00 ,
 0x00 , 0x00 , 0x68 , 0x0a , 0x80 , 0x02 , 0x00 , 0xf0 , 0xde , 0x00 , 0xa0 , 0x00 , 0x00 , 0x00 , 0x68 , 0x00 , 0x00 , 0x00 ,
 0x00 , 0x00 , 0x94 , 0x06 , 0x00 , 0x14 , 0x00 , 0xe0 , 0xff , 0x00 , 0x28 , 0x00 , 0x00 , 0x00 , 0x58 , 0x00 , 0x00 , 0x00 ,
 0x00 , 0x00 , 0x24 , 0x01 , 0x00 , 0x60 , 0x01 , 0xc0 , 0x3b , 0x00 , 0x00 , 0x00 , 0x00 , 0x00 , 0x48 , 0x00 , 0x00 , 0x00 ,
 0x00 , 0x00 , 0x54 , 0x02 , 0x00 , 0x00 , 0x02 , 0x00 , 0x2f , 0x00 , 0x00 , 0x00 , 0x40 , 0xb5 , 0x54 , 0x00 , 0x00 , 0x00 ,
 0x00 , 0x00 , 0x44 , 0x15 , 0x00 , 0x00 , 0x00 , 0x00 , 0x08 , 0x00 , 0x00 , 0xd4 , 0x16 , 0x00 , 0xd0 , 0x00 , 0x00 , 0x00 ,
 0x00 , 0x00 , 0x94 , 0x61 , 0x00 , 0x00 , 0x00 , 0x00 , 0x00 , 0x00 , 0xd0 , 0x02 , 0x00 , 0x00 , 0xa4 , 0x00 , 0x00 , 0x00 ,
 0x00 , 0x00 , 0xaa , 0x00 , 0x00 , 0x00 , 0x00 , 0x00 , 0x08 , 0x00 , 0x00 , 0x00 , 0x00 , 0x00 , 0xa2 , 0x00 , 0x00 , 0x00 ,
 0x00 , 0x00 , 0x62 , 0x08 , 0xa9 , 0xaa , 0x02 , 0x00 , 0x10 , 0x00 , 0x00 , 0x00 , 0x00 , 0x00 , 0xa2 , 0x00 , 0x00 , 0x00 ,
 0x00 , 0x00 , 0xaa , 0xaa , 0x02 , 0x00 , 0x00 , 0x00 , 0x10 , 0x00 , 0x00 , 0x00 , 0x00 , 0x00 , 0xa1 , 0x00 , 0x00 , 0x00 ,
 0x00 , 0x00 , 0x12 , 0x00 , 0x00 , 0x00 , 0x00 , 0x00 , 0x00 , 0x00 , 0x00 , 0x00 , 0x00 , 0x40 , 0xa0 , 0x00 , 0x00 , 0x00 ,
 0x00 , 0x00 , 0x0a , 0x00 , 0x00 , 0x00 , 0x0a , 0x00 , 0x10 , 0x00 , 0x00 , 0x00 , 0x00 , 0x50 , 0xa0 , 0x00 , 0xa8 , 0x00 ,
 0x00 , 0x00 , 0x12 , 0x00 , 0x00 , 0x40 , 0x01 , 0x00 , 0x20 , 0xd4 , 0xfe , 0xff , 0xf7 , 0x17 , 0xa0 , 0x00 , 0x03 , 0x01 ,
 0x00 , 0x00 , 0x0a , 0x00 , 0x00 , 0x28 , 0x00 , 0x00 , 0xe0 , 0xff , 0x6f , 0xdb , 0xbe , 0x01 , 0xa0 , 0x40 , 0x00 , 0x0c ,
 0x00 , 0x00 , 0x1a , 0x00 , 0x00 , 0x05 , 0x00 , 0x00 , 0xbe , 0xf7 , 0xfb , 0xff , 0xff , 0x03 , 0xa0 , 0x20 , 0x00 , 0x10 ,
 0x00 , 0x00 , 0x12 , 0x00 , 0x40 , 0x01 , 0x00 , 0xc0 , 0xff , 0xbd , 0xff , 0xff , 0xfb , 0x03 , 0xa0 , 0x10 , 0x00 , 0x20 ,
 0x00 , 0x00 , 0x12 , 0x00 , 0x30 , 0x00 , 0x00 , 0xf8 , 0xfb , 0xff , 0xdd , 0xb6 , 0xdf , 0x02 , 0xa0 , 0x10 , 0x00 , 0x40 ,
 0x00 , 0x00 , 0x2a , 0x00 , 0x06 , 0x00 , 0x00 , 0xff , 0xde , 0x77 , 0xff , 0xff , 0xfd , 0x01 , 0xa0 , 0x08 , 0x00 , 0x00 ,
 0x00 , 0x00 , 0x12 , 0x40 , 0x01 , 0x00 , 0xe0 , 0xdb , 0xff , 0xfe , 0xf7 , 0x7d , 0xbf , 0x01 , 0xa0 , 0x04 , 0x00 , 0x80 ,
 0x00 , 0x00 , 0x6a , 0x28 , 0x00 , 0x00 , 0xdc , 0xfe , 0xbb , 0xef , 0xbd , 0xef , 0xf7 , 0x01 , 0xa0 , 0x00 , 0x00 , 0x80 ,
 0x00 , 0x00 , 0x44 , 0x04 , 0x00 , 0x00 , 0xf7 , 0x7f , 0xff , 0x7b , 0xff , 0xff , 0xfd , 0x01 , 0xa0 , 0x04 , 0x00 , 0x00 ,
 0x00 , 0x00 , 0xd4 , 0x00 , 0x00 , 0xe0 , 0xff , 0xf7 , 0xef , 0xfe , 0xf7 , 0x76 , 0xdf , 0x00 , 0x50 , 0x00 , 0x00 , 0x80 ,
 0x00 , 0x00 , 0x54 , 0x02 , 0x00 , 0xfc , 0xde , 0xbe , 0xfb , 0xef , 0xbd , 0xff , 0xf7 , 0x00 , 0x50 , 0x04 , 0x00 , 0x80 ,
 0x00 , 0x00 , 0x44 , 0x14 , 0x40 , 0xdf , 0xf7 , 0xef , 0xbf , 0x7b , 0xff , 0xef , 0xfd , 0x00 , 0x50 , 0x06 , 0x00 , 0x00 ,
 0x00 , 0x00 , 0x54 , 0xa0 , 0xfe , 0xf7 , 0xff , 0xfb , 0xee , 0xff , 0xf7 , 0x7e , 0xdf , 0x00 , 0x50 , 0x05 , 0x00 , 0x80 ,
 0x00 , 0x00 , 0xc8 , 0x00 , 0xf4 , 0xfd , 0xde , 0xbe , 0xff , 0xee , 0xbd , 0xf7 , 0x77 , 0x00 , 0xd0 , 0x04 , 0x00 , 0x40 ,
 0x00 , 0x00 , 0xa8 , 0x00 , 0xbc , 0xbf , 0xf7 , 0xef , 0xbb , 0x7f , 0xff , 0xff , 0x7d , 0x00 , 0x68 , 0x09 , 0x00 , 0x40 ,
 0x00 , 0x00 , 0x88 , 0x00 , 0xf8 , 0xef , 0xff , 0xfb , 0xfe , 0xfb , 0xf7 , 0x6e , 0x3f , 0x00 , 0x28 , 0x1a , 0x00 , 0x20 ,
 0x00 , 0x00 , 0xb0 , 0x00 , 0xf8 , 0xfe , 0xde , 0xbe , 0xef , 0xde , 0xbd , 0xff , 0x37 , 0x00 , 0xa8 , 0x24 , 0x00 , 0x10 ,
 0x00 , 0x00 , 0x90 , 0x01 , 0xb0 , 0xf7 , 0xf7 , 0xef , 0xfb , 0xff , 0xef , 0xf6 , 0x3d , 0x00 , 0x54 , 0x69 , 0x00 , 0x08 ,
 0x00 , 0x00 , 0x50 , 0x01 , 0xf0 , 0xbf , 0xff , 0xfb , 0xbe , 0xbb , 0xda , 0xdd , 0x1f , 0x00 , 0x94 , 0x92 , 0x01 , 0x06 ,
 0x00 , 0x00 , 0x20 , 0x01 , 0xe0 , 0xee , 0xdd , 0xbe , 0xef , 0xef , 0xb7 , 0x7b , 0x17 , 0x00 , 0x54 , 0x24 , 0xef , 0x00 ,
 0x00 , 0x55 , 0xa0 , 0x02 , 0xc0 , 0xff , 0xff , 0xef , 0x7d , 0x5d , 0x7d , 0xed , 0x0f , 0x00 , 0xac , 0x4a , 0x50 , 0x00 ,
 0xa0 , 0x80 , 0x40 , 0x02 , 0xc0 , 0xbd , 0xfb , 0xbb , 0xd6 , 0xfb , 0xab , 0x5b , 0x0f , 0x00 , 0x4a , 0x52 , 0x25 , 0x00 ,
 0x10 , 0x00 , 0x82 , 0x06 , 0x80 , 0xef , 0xdf , 0xf6 , 0xbd , 0x56 , 0xdd , 0xf6 , 0x06 , 0x00 , 0x96 , 0x94 , 0x14 , 0x00 ,
 0x08 , 0x00 , 0x84 , 0x04 , 0x00 , 0xff , 0xfe , 0xad , 0xd6 , 0xbd , 0x6b , 0x5b , 0x03 , 0x00 , 0x55 , 0x29 , 0x29 , 0x00 ,
 0x04 , 0x00 , 0x08 , 0x09 , 0x00 , 0xb6 , 0xb7 , 0xbe , 0xbb , 0x6b , 0xdf , 0xf6 , 0x02 , 0x00 , 0x8b , 0x42 , 0x0a , 0x00 ,
 0x02 , 0x00 , 0x10 , 0x0b , 0x00 , 0xfc , 0xdf , 0xd5 , 0x76 , 0xdd , 0x6a , 0xaf , 0x01 , 0x00 , 0x53 , 0x54 , 0x09 , 0x00 ,
 0x00 , 0x00 , 0x00 , 0x12 , 0x00 , 0xfc , 0xbe , 0xb7 , 0xad , 0x6b , 0xdb , 0xba , 0x00 , 0x80 , 0xa5 , 0x2a , 0x05 , 0x00 ,
 0x01 , 0x00 , 0x20 , 0x2c , 0x00 , 0xb0 , 0xd7 , 0x7a , 0x7b , 0xdf , 0xee , 0xed , 0x00 , 0x80 , 0x88 , 0x44 , 0x02 , 0x00 ,
 0x00 , 0x00 , 0x20 , 0x28 , 0x00 , 0xe0 , 0xbf , 0xad , 0xd7 , 0xea , 0xb5 , 0x36 , 0x00 , 0xc0 , 0x2a , 0xa9 , 0x02 , 0x00 ,
 0x01 , 0x00 , 0xc0 , 0x52 , 0x00 , 0xc0 , 0x76 , 0xdb , 0xba , 0x5d , 0x6f , 0x1b , 0x00 , 0x60 , 0x49 , 0x12 , 0x01 , 0x00 ,
 0x00 , 0x00 , 0xa0 , 0xbe , 0x00 , 0x80 , 0xaf , 0x6d , 0xd7 , 0x76 , 0xb5 , 0x1d , 0x00 , 0x20 , 0x52 , 0xa5 , 0x00 , 0x00 ,
 0x01 , 0x00 , 0x20 , 0x61 , 0x01 , 0x00 , 0x7b , 0xdb , 0xba , 0xad , 0x6f , 0x07 , 0x00 , 0x78 , 0x95 , 0x54 , 0x00 , 0x00 ,
 0x00 , 0x00 , 0xa0 , 0xd4 , 0x02 , 0x00 , 0xac , 0x77 , 0x77 , 0x7b , 0xb5 , 0x05 , 0x00 , 0x98 , 0x24 , 0x29 , 0x00 , 0x00 ,
 0x01 , 0x00 , 0x20 , 0x89 , 0x05 , 0x00 , 0x78 , 0xad , 0xad , 0xd7 , 0xdb , 0x01 , 0x00 , 0x5e , 0x49 , 0x12 , 0x00 , 0x00 ,
 0x02 , 0x00 , 0xa0 , 0x52 , 0x06 , 0x00 , 0xc0 , 0x7d , 0x7b , 0xbd , 0x76 , 0x00 , 0x00 , 0x2d , 0x52 , 0x15 , 0x00 , 0x00 ,
 0x00 , 0x00 , 0x50 , 0xa4 , 0x1c , 0x00 , 0x80 , 0xab , 0xad , 0x6b , 0x1d , 0x00 , 0x80 , 0x57 , 0x95 , 0x0c , 0x00 , 0x00 ,
 0x04 , 0x00 , 0x28 , 0x15 , 0x39 , 0x00 , 0x00 , 0xde , 0x76 , 0xdd , 0x07 , 0x00 , 0xc0 , 0x4b , 0x29 , 0x05 , 0x00 , 0x00 ,
 0x08 , 0x00 , 0x4c , 0xa9 , 0x62 , 0x00 , 0x00 , 0xf0 , 0xdb , 0x7b , 0x00 , 0x00 , 0xf0 , 0x55 , 0x42 , 0x01 , 0x00 , 0x00 ,
 0x10 , 0x00 , 0x92 , 0x42 , 0xca , 0x01 , 0x00 , 0x00 , 0x76 , 0x07 , 0x00 , 0x00 , 0x78 , 0xcb , 0x94 , 0x00 , 0x00 , 0x00 ,
 0xa0 , 0x80 , 0x25 , 0x94 , 0x94 , 0x03 , 0x00 , 0x00 , 0x00 , 0x00 , 0x00 , 0x00 , 0xde , 0x94 , 0x6a , 0x00 , 0x00 , 0x00 ,
 0x00 , 0x75 , 0xaa , 0x55 , 0x51 , 0x06 , 0x00 , 0x00 , 0x00 , 0x00 , 0x00 , 0x80 , 0x77 , 0xa1 , 0x24 , 0x00 , 0x00 , 0x00 ,
 0x00 , 0xa0 , 0x44 , 0x48 , 0x8a , 0x3e , 0x00 , 0x00 , 0x00 , 0x00 , 0x00 , 0xe0 , 0x5e , 0xaa , 0x1a , 0x00 , 0x00 , 0x00 ,
 0x00 , 0x40 , 0xa9 , 0x92 , 0x54 , 0xfd , 0x00 , 0x00 , 0x00 , 0x00 , 0x00 , 0xb8 , 0x5f , 0x55 , 0x09 , 0x00 , 0x00 , 0x00 ,
 0x00 , 0x80 , 0x12 , 0x25 , 0x49 , 0xe8 , 0x07 , 0x00 , 0x00 , 0x00 , 0x00 , 0xff , 0x23 , 0x41 , 0x06 , 0x00 , 0x00 , 0x00 ,
 0x00 , 0x00 , 0xa5 , 0x54 , 0x95 , 0xd2 , 0x3f , 0x00 , 0x00 , 0x00 , 0xf0 , 0xff , 0xc0 , 0xda , 0x01 , 0x00 , 0x00 , 0x00 ,
 0x00 , 0x00 , 0x4c , 0x49 , 0x22 , 0x55 , 0xff , 0x0b , 0x00 , 0x80 , 0xfe , 0xbb , 0x80 , 0x44 , 0x00 , 0x00 , 0x00 , 0x00 ,
 0x00 , 0x00 , 0x98 , 0x92 , 0x54 , 0x52 , 0xed , 0xff , 0xaa , 0xfa , 0x6f , 0x2f , 0x00 , 0x29 , 0x00 , 0x00 , 0x00 , 0x00 ,
 0x00 , 0x00 , 0x20 , 0x24 , 0x89 , 0x24 , 0xfd , 0xbe , 0xff , 0xff , 0xff , 0x03 , 0x00 , 0x65 , 0x00 , 0x00 , 0x00 , 0x00 ,
 0x00 , 0x00 , 0xc0 , 0xa9 , 0x52 , 0x49 , 0xa9 , 0xf7 , 0xff , 0x0f , 0x7c , 0x00 , 0x00 , 0x4a , 0x00 , 0x00 , 0x00 , 0x00 ,
 0x00 , 0x00 , 0x00 , 0x93 , 0x94 , 0x96 , 0x52 , 0xfe , 0xdb , 0x22 , 0x10 , 0x00 , 0x00 , 0x52 , 0x00 , 0x00 , 0x00 , 0x00 ,
 0x00 , 0x00 , 0x00 , 0x4c , 0x29 , 0x25 , 0x24 , 0x40 , 0xff , 0x83 , 0x22 , 0x00 , 0x00 , 0x2a , 0x00 , 0x00 , 0x00 , 0x00 ,
 0x00 , 0x00 , 0x00 , 0x18 , 0x42 , 0x54 , 0x15 , 0x00 , 0x00 , 0xb9 , 0x5e , 0x00 , 0x00 , 0x22 , 0x00 , 0x00 , 0x00 , 0x00 ,
 0x00 , 0x00 , 0x00 , 0xe0 , 0x5a , 0x4d , 0x09 , 0x00 , 0x80 , 0x06 , 0x80 , 0x00 , 0x0d , 0x2a , 0x00 , 0x00 , 0x00 , 0x00 ,
 0x00 , 0x00 , 0x00 , 0x00 , 0x83 , 0x28 , 0x0a , 0x00 , 0x80 , 0x40 , 0xb5 , 0x50 , 0x01 , 0x2a , 0x00 , 0x00 , 0x00 , 0x00 ,
 0x00 , 0x00 , 0x00 , 0x00 , 0x3c , 0x4d , 0x09 , 0x00 , 0x40 , 0xb4 , 0x8a , 0x16 , 0x04 , 0x12 , 0x00 , 0x00 , 0x00 , 0x00 ,
 0x00 , 0x00 , 0x00 , 0x00 , 0xc0 , 0x99 , 0x0a , 0x00 , 0xa0 , 0x85 , 0x80 , 0x01 , 0x04 , 0x15 , 0x00 , 0x00 , 0x00 , 0x00 ,
 0x00 , 0x00 , 0x00 , 0x00 , 0x00 , 0x2a , 0x05 , 0x00 , 0x40 , 0xe0 , 0x27 , 0x00 , 0x02 , 0x09 , 0x00 , 0x00 , 0x00 , 0x00 ,
 0x00 , 0x00 , 0x00 , 0x00 , 0x00 , 0x50 , 0x04 , 0x01 , 0x80 , 0x24 , 0x85 , 0x00 , 0x80 , 0x0a , 0x00 , 0x00 , 0x00 , 0x00 ,
 0x00 , 0x00 , 0x00 , 0x00 , 0x00 , 0xa0 , 0x0a , 0x6d , 0x55 , 0xe0 , 0x81 , 0x00 , 0xc1 , 0x0a , 0x00 , 0x00 , 0x00 , 0x00 ,
 0x00 , 0x00 , 0x00 , 0x00 , 0x00 , 0x20 , 0x09 , 0x01 , 0x80 , 0x04 , 0x49 , 0x80 , 0x20 , 0x09 , 0x00 , 0x00 , 0x00 , 0x00 ,
 0x00 , 0x00 , 0x00 , 0x00 , 0x00 , 0xa0 , 0x0a , 0x02 , 0x00 , 0x11 , 0x41 , 0x60 , 0x50 , 0x0a , 0x00 , 0x00 , 0x00 , 0x00 ,
 0x00 , 0x00 , 0x00 , 0x00 , 0x00 , 0x40 , 0x14 , 0x04 , 0x00 , 0x02 , 0x31 , 0x10 , 0x98 , 0x14 , 0x00 , 0x00 , 0x00 , 0x00 ,
 0x00 , 0x00 , 0x00 , 0x00 , 0x00 , 0x40 , 0x29 , 0x08 , 0x00 , 0x4c , 0x09 , 0x08 , 0xa6 , 0x0a , 0x00 , 0x00 , 0x00 , 0x00 ,
 0x00 , 0x00 , 0x00 , 0x00 , 0x00 , 0xc0 , 0x52 , 0x10 , 0x00 , 0x50 , 0x0b , 0x02 , 0x49 , 0x34 , 0x00 , 0x00 , 0x00 , 0x00 ,
 0x00 , 0x00 , 0x00 , 0x00 , 0x00 , 0x40 , 0xca , 0x40 , 0x00 , 0x00 , 0xc0 , 0xc0 , 0xaa , 0x0a , 0x00 , 0x00 , 0x00 , 0x00 ,
 0x00 , 0x00 , 0x00 , 0x00 , 0x00 , 0x40 , 0x11 , 0x83 , 0x05 , 0x00 , 0x14 , 0x38 , 0x11 , 0x25 , 0x00 , 0x00 , 0x00 , 0x00 ,
 0x00 , 0x00 , 0x00 , 0x00 , 0x00 , 0x40 , 0xaa , 0x0c , 0xd8 , 0xf6 , 0x01 , 0x47 , 0xaa , 0x42 , 0x00 , 0x00 , 0x00 , 0x00 ,
 0x00 , 0x00 , 0x00 , 0x00 , 0x00 , 0xc0 , 0x24 , 0x79 , 0x00 , 0x00 , 0xf0 , 0xa8 , 0x12 , 0x01 , 0x00 , 0x00 , 0x00 , 0x00 ,
 0x00 , 0x00 , 0x00 , 0x00 , 0x00 , 0xa0 , 0x4a , 0x85 , 0x17 , 0x91 , 0x0e , 0x95 , 0xa4 , 0x40 , 0x00 , 0x00 , 0x00 , 0x00 ,
 0x00 , 0x00 , 0x00 , 0x00 , 0x00 , 0xa0 , 0x90 , 0x28 , 0xf4 , 0xee , 0x55 , 0x22 , 0x69 , 0x80 , 0x00 , 0x00 , 0x00 , 0x00 ,
 0x00 , 0x00 , 0x00 , 0x00 , 0x00 , 0x00 , 0x55 , 0xa5 , 0x09 , 0x51 , 0xb2 , 0x54 , 0x1a , 0x00 , 0x00 , 0x00 , 0x00 , 0x00 ,
 0x00 , 0x00 , 0x00 , 0x00 , 0x00 , 0x10 , 0x13 , 0x49 , 0x52 , 0x0a , 0x84 , 0xab , 0x05 , 0x80 , 0x00 , 0x00 , 0x00 , 0x00 ,
 0x00 , 0x00 , 0x00 , 0x00 , 0x00 , 0x00 , 0xa6 , 0x92 , 0xa4 , 0x0a , 0x08 , 0x28 , 0x00 , 0x80 , 0x00 , 0x00 , 0x00 , 0x00 ,
 0x00 , 0x00 , 0x00 , 0x00 , 0x00 , 0x10 , 0x28 , 0x54 , 0x89 , 0x09 , 0x10 , 0x00 , 0x00 , 0x00 , 0x00 , 0x00 , 0x00 , 0x00 ,
 0x00 , 0x00 , 0x00 , 0x00 , 0x00 , 0x00 , 0x50 , 0x25 , 0x72 , 0x00 , 0x10 , 0x00 , 0x00 , 0x40 , 0x00 , 0x00 , 0x00 , 0x00 ,
 0x00 , 0x00 , 0x00 , 0x00 , 0x00 , 0x10 , 0xc0 , 0x4a , 0x0d , 0x08 , 0x20 , 0x00 , 0x00 , 0x80 , 0x00 , 0x00 , 0x00 , 0x00 ,
 0x00 , 0x00 , 0x00 , 0x00 , 0x00 , 0x20 , 0x00 , 0xba , 0x01 , 0x04 , 0x40 , 0x00 , 0x00 , 0x40 , 0x00 , 0x00 , 0x00 , 0x00 ,
 0x00 , 0x00 , 0x00 , 0x00 , 0x00 , 0x00 , 0x00 , 0x00 , 0x00 , 0x04 , 0x80 , 0x00 , 0x00 , 0x40 , 0x00 , 0x00 , 0x00 , 0x00 ,
 0x00 , 0x00 , 0x00 , 0x00 , 0x00 , 0x20 , 0x00 , 0x00 , 0x00 , 0x02 , 0x00 , 0x01 , 0x00 , 0x20 , 0x00 , 0x00 , 0x00 , 0x00 ,
 0x00 , 0x00 , 0x00 , 0x00 , 0x00 , 0x20 , 0x00 , 0x00 , 0x00 , 0x01 , 0x00 , 0x02 , 0x00 , 0x10 , 0x00 , 0x00 , 0x00 , 0x00 ,
 0x00 , 0x00 , 0x00 , 0x00 , 0x00 , 0x40 , 0x00 , 0x00 , 0x00 , 0x01 , 0x00 , 0x04 , 0x00 , 0x08 , 0x00 , 0x00 , 0x00 , 0x00 ,
 0x00 , 0x00 , 0x00 , 0x00 , 0x00 , 0x00 , 0x00 , 0x00 , 0x80 , 0x00 , 0x00 , 0x28 , 0x00 , 0x06 , 0x00 , 0x00 , 0x00 , 0x00 ,
 0x00 , 0x00 , 0x00 , 0x00 , 0x00 , 0x80 , 0x00 , 0x00 , 0x40 , 0x00 , 0x00 , 0x40 , 0x80 , 0x00 , 0x00 , 0x00 , 0x00 , 0x00 ,
 0x00 , 0x00 , 0x00 , 0x00 , 0x00 , 0x00 , 0x01 , 0x00 , 0x20 , 0x00 , 0x00 , 0x80 , 0x36 , 0x00 , 0x00 , 0x00 , 0x00 , 0x00 ,
 0x00 , 0x00 , 0x00 , 0x00 , 0x00 , 0x00 , 0x02 , 0x00 , 0x18 , 0x00 , 0x00 , 0x00 , 0x00 , 0x00 , 0x00 , 0x00 , 0x00 , 0x00 ,
 0x00 , 0x00 , 0x00 , 0x00 , 0x00 , 0x00 , 0x04 , 0x00 , 0x04 , 0x00 , 0x00 , 0x00 , 0x00 , 0x00 , 0x00 , 0x00 , 0x00 , 0x00 ,
 0x00 , 0x00 , 0x00 , 0x00 , 0x00 , 0x00 , 0x28 , 0x80 , 0x02 , 0x00 , 0x00 , 0x00 , 0x00 , 0x00 , 0x00 , 0x00 , 0x00 , 0x00 ,
 0x00 , 0x00 , 0x00 , 0x00 , 0x00 , 0x00 , 0xc0 , 0x36 , 0x00 , 0x00 , 0x00 , 0x00 , 0x00 , 0x00 , 0x00 , 0x00 , 0x00 , 0x00 }; 
