#define 8_xbm_width 124 
#define 8_xbm_height 119 
static unsigned char 8_xbm_bits[] = { 
 0x00 , 0x00 , 0x00 , 0x00 , 0xa0 , 0xaa , 0x02 , 0x00 , 0x00 , 0x00 , 0x00 , 0x00 , 0x00 , 0x00 , 0x00 , 0xf0 ,
 0x00 , 0x00 , 0x00 , 0x00 , 0x14 , 0x00 , 0x28 , 0x00 , 0x00 , 0x00 , 0x00 , 0x00 , 0x00 , 0x00 , 0x00 , 0xf0 ,
 0x00 , 0x00 , 0x00 , 0x80 , 0x82 , 0x00 , 0x40 , 0x01 , 0x00 , 0x00 , 0x00 , 0x00 , 0x00 , 0x00 , 0x00 , 0xf0 ,
 0x00 , 0x00 , 0x00 , 0x40 , 0x00 , 0x02 , 0x00 , 0x02 , 0x00 , 0x00 , 0x00 , 0x00 , 0x00 , 0x00 , 0x00 , 0xf0 ,
 0x00 , 0x00 , 0x00 , 0x10 , 0x10 , 0x00 , 0x00 , 0x08 , 0x00 , 0x00 , 0x00 , 0x00 , 0x00 , 0x00 , 0x00 , 0xf0 ,
 0x00 , 0x00 , 0x00 , 0x08 , 0x80 , 0x04 , 0x00 , 0x10 , 0x00 , 0x00 , 0x00 , 0x00 , 0x00 , 0x00 , 0x00 , 0xf0 ,
 0x00 , 0x00 , 0x00 , 0x04 , 0x00 , 0x00 , 0x00 , 0x20 , 0x00 , 0x00 , 0x00 , 0x00 , 0x00 , 0x00 , 0x00 , 0xf0 ,
 0x00 , 0x00 , 0x00 , 0x00 , 0x00 , 0x00 , 0x00 , 0x40 , 0x00 , 0x00 , 0x00 , 0x00 , 0x00 , 0x00 , 0x00 , 0xf0 ,
 0x00 , 0x00 , 0x00 , 0x02 , 0x00 , 0x04 , 0x00 , 0x00 , 0x00 , 0x00 , 0x00 , 0x00 , 0x00 , 0x00 , 0x00 , 0xf0 ,
 0x00 , 0x00 , 0x00 , 0x00 , 0x00 , 0x00 , 0x00 , 0x80 , 0x00 , 0x00 , 0x00 , 0x00 , 0x00 , 0x00 , 0x00 , 0xf0 ,
 0x00 , 0x00 , 0x00 , 0x02 , 0x00 , 0x0a , 0x00 , 0x00 , 0x00 , 0x00 , 0x00 , 0x00 , 0x00 , 0x00 , 0x00 , 0xf0 ,
 0x00 , 0x00 , 0x00 , 0x02 , 0x00 , 0x21 , 0x00 , 0x80 , 0x00 , 0x00 , 0x00 , 0x00 , 0x00 , 0x00 , 0x00 , 0xf0 ,
 0x00 , 0x00 , 0x00 , 0x00 , 0x00 , 0x62 , 0x00 , 0x00 , 0x00 , 0x00 , 0x00 , 0x00 , 0x00 , 0x00 , 0x00 , 0xf0 ,
 0x00 , 0x00 , 0x00 , 0x02 , 0x00 , 0x20 , 0x00 , 0x80 , 0x00 , 0x00 , 0x00 , 0x00 , 0x00 , 0x00 , 0x00 , 0xf0 ,
 0x00 , 0x00 , 0x00 , 0x04 , 0x00 , 0x14 , 0x00 , 0x40 , 0x00 , 0x00 , 0x00 , 0x00 , 0x00 , 0x00 , 0x00 , 0xf0 ,
 0x00 , 0x00 , 0x00 , 0x08 , 0x00 , 0x40 , 0x00 , 0x40 , 0x00 , 0x00 , 0x00 , 0x00 , 0x00 , 0x00 , 0x00 , 0xf0 ,
 0x00 , 0x00 , 0x00 , 0x10 , 0x00 , 0x00 , 0x01 , 0x10 , 0x00 , 0x00 , 0x00 , 0x00 , 0x00 , 0x00 , 0x00 , 0xf0 ,
 0x00 , 0x00 , 0x00 , 0x20 , 0x00 , 0x00 , 0x04 , 0x08 , 0x00 , 0x00 , 0x00 , 0x00 , 0x00 , 0x00 , 0x00 , 0xf0 ,
 0x00 , 0x00 , 0x00 , 0x80 , 0x00 , 0x80 , 0x20 , 0x02 , 0x00 , 0x00 , 0x00 , 0x00 , 0x00 , 0x00 , 0x00 , 0xf0 ,
 0x00 , 0x00 , 0x00 , 0x00 , 0x05 , 0x00 , 0x40 , 0x01 , 0x00 , 0x00 , 0x00 , 0x00 , 0x00 , 0x00 , 0x00 , 0xf0 ,
 0x00 , 0x00 , 0x00 , 0x00 , 0xa8 , 0x80 , 0x1a , 0x00 , 0x00 , 0x00 , 0x00 , 0x00 , 0x00 , 0x00 , 0x00 , 0xf0 ,
 0x00 , 0x00 , 0x05 , 0x00 , 0x00 , 0xbd , 0x04 , 0x00 , 0x00 , 0x00 , 0x00 , 0x00 , 0x00 , 0x00 , 0x00 , 0xf0 ,
 0x00 , 0x40 , 0x18 , 0x00 , 0x00 , 0x00 , 0x00 , 0x00 , 0x00 , 0x00 , 0x00 , 0x00 , 0x00 , 0x00 , 0x00 , 0xf0 ,
 0x00 , 0x10 , 0x20 , 0x00 , 0x00 , 0x00 , 0x00 , 0x00 , 0x00 , 0x00 , 0x00 , 0x00 , 0x00 , 0x00 , 0x00 , 0xf0 ,
 0x00 , 0x10 , 0xc0 , 0x00 , 0x00 , 0x00 , 0x00 , 0x00 , 0x00 , 0x00 , 0x00 , 0x00 , 0x00 , 0x00 , 0x00 , 0xf0 ,
 0x00 , 0x08 , 0x00 , 0x00 , 0x00 , 0x00 , 0x00 , 0x00 , 0x00 , 0x00 , 0x00 , 0x00 , 0x00 , 0x00 , 0x00 , 0xf0 ,
 0x00 , 0x04 , 0x00 , 0x01 , 0x00 , 0x16 , 0x00 , 0x00 , 0x20 , 0x00 , 0x00 , 0x00 , 0x00 , 0x00 , 0x00 , 0xf0 ,
 0x00 , 0x04 , 0x00 , 0x01 , 0x00 , 0x15 , 0x00 , 0x00 , 0xa8 , 0x01 , 0x00 , 0x00 , 0x00 , 0x00 , 0x00 , 0xf0 ,
 0x00 , 0x00 , 0x00 , 0x00 , 0x80 , 0x35 , 0x00 , 0x00 , 0x04 , 0x06 , 0x00 , 0x00 , 0x00 , 0x00 , 0x00 , 0xf0 ,
 0x00 , 0x04 , 0x00 , 0x01 , 0xfd , 0xef , 0x00 , 0x00 , 0x02 , 0x08 , 0x00 , 0x00 , 0x00 , 0x00 , 0x00 , 0xf0 ,
 0x00 , 0x04 , 0x00 , 0xf1 , 0x05 , 0x50 , 0x0f , 0x00 , 0x01 , 0x08 , 0x00 , 0x00 , 0x00 , 0x00 , 0x00 , 0xf0 ,
 0x00 , 0x00 , 0x00 , 0x2d , 0x52 , 0x95 , 0x78 , 0x00 , 0x01 , 0x10 , 0x00 , 0x00 , 0x00 , 0x00 , 0x00 , 0xf0 ,
 0x00 , 0x04 , 0x80 , 0x4b , 0x55 , 0x52 , 0xc5 , 0x81 , 0x00 , 0x00 , 0x00 , 0x00 , 0x00 , 0x00 , 0x00 , 0xf0 ,
 0x00 , 0x08 , 0x60 , 0x90 , 0x88 , 0x24 , 0x12 , 0x8e , 0x00 , 0x10 , 0x00 , 0x00 , 0x00 , 0x00 , 0x00 , 0xf0 ,
 0x00 , 0x10 , 0x98 , 0x26 , 0x55 , 0x95 , 0xa4 , 0x9a , 0x00 , 0x20 , 0x00 , 0x00 , 0x00 , 0x00 , 0x00 , 0xf0 ,
 0x00 , 0x60 , 0x76 , 0xa9 , 0x20 , 0xa9 , 0x2a , 0x61 , 0x00 , 0x20 , 0x00 , 0x00 , 0x00 , 0x00 , 0x00 , 0xf0 ,
 0x00 , 0x80 , 0x95 , 0x92 , 0x4f , 0x42 , 0x44 , 0xca , 0x00 , 0x00 , 0x00 , 0x00 , 0x00 , 0x00 , 0x00 , 0xf0 ,
 0x00 , 0x80 , 0x0a , 0x65 , 0xb0 , 0x94 , 0xaa , 0x14 , 0x03 , 0x20 , 0x00 , 0x00 , 0x00 , 0x00 , 0x00 , 0xf0 ,
 0x00 , 0x60 , 0x06 , 0x1a , 0x40 , 0x55 , 0x91 , 0x52 , 0x06 , 0x40 , 0x00 , 0x00 , 0x00 , 0x00 , 0x00 , 0xf0 ,
 0x00 , 0x90 , 0x02 , 0xb2 , 0x41 , 0x11 , 0x2a , 0xa5 , 0x08 , 0x00 , 0x00 , 0x00 , 0x00 , 0x00 , 0x00 , 0xf0 ,
 0x00 , 0x28 , 0x01 , 0x8a , 0x82 , 0xaa , 0x42 , 0x48 , 0x35 , 0x20 , 0x00 , 0x00 , 0x00 , 0x00 , 0x00 , 0xf0 ,
 0x00 , 0x54 , 0x21 , 0x8e , 0x00 , 0x49 , 0x55 , 0x13 , 0xe9 , 0x41 , 0x00 , 0x00 , 0x00 , 0x00 , 0x00 , 0xf0 ,
 0x00 , 0xa4 , 0x48 , 0x5a , 0x02 , 0x25 , 0x94 , 0x54 , 0x6a , 0x27 , 0x00 , 0x00 , 0x00 , 0x00 , 0x00 , 0xf0 ,
 0x00 , 0x8b , 0x54 , 0xca , 0x04 , 0x49 , 0x29 , 0x49 , 0x91 , 0x38 , 0x00 , 0xf8 , 0x00 , 0x00 , 0x00 , 0xf0 ,
 0x00 , 0xa9 , 0xa4 , 0x42 , 0x02 , 0xaa , 0x42 , 0x92 , 0xaa , 0xe5 , 0x00 , 0xf8 , 0x00 , 0x00 , 0x00 , 0xf0 ,
 0x80 , 0x52 , 0x48 , 0x4a , 0x02 , 0x12 , 0x55 , 0x25 , 0x09 , 0x0b , 0x03 , 0xfc , 0x01 , 0x00 , 0x00 , 0xf0 ,
 0x40 , 0x45 , 0x14 , 0x13 , 0x02 , 0xaa , 0x28 , 0xaa , 0x52 , 0x52 , 0x06 , 0xfc , 0x01 , 0x00 , 0x00 , 0xf0 ,
 0x40 , 0x68 , 0x24 , 0xb1 , 0x01 , 0x23 , 0x45 , 0x11 , 0xa4 , 0xa6 , 0x18 , 0xf8 , 0x00 , 0x00 , 0x00 , 0xf0 ,
 0xa0 , 0x5a , 0x88 , 0x42 , 0x00 , 0x4a , 0xaa , 0xaa , 0x49 , 0x4c , 0x35 , 0xf8 , 0x00 , 0x00 , 0x00 , 0xf0 ,
 0x30 , 0x87 , 0x80 , 0x02 , 0x00 , 0x9d , 0x24 , 0x44 , 0xaa , 0x2a , 0xc2 , 0x08 , 0x00 , 0x00 , 0x00 , 0xf0 ,
 0xd0 , 0x80 , 0x40 , 0x00 , 0x00 , 0x61 , 0x49 , 0xa9 , 0x44 , 0x54 , 0x55 , 0x05 , 0x00 , 0x00 , 0x00 , 0xf0 ,
 0x50 , 0x80 , 0x40 , 0x02 , 0x00 , 0xc0 , 0x92 , 0x0a , 0xa9 , 0x9a , 0x28 , 0x03 , 0x00 , 0x00 , 0x00 , 0xf0 ,
 0x18 , 0x00 , 0xf0 , 0x05 , 0x80 , 0x00 , 0x55 , 0x52 , 0x15 , 0x31 , 0x45 , 0x05 , 0x00 , 0x00 , 0x00 , 0xf0 ,
 0x08 , 0x00 , 0xfb , 0x07 , 0x40 , 0x00 , 0x4c , 0xa5 , 0xa4 , 0xaa , 0x2a , 0x0d , 0x00 , 0x00 , 0x00 , 0xf0 ,
 0x04 , 0x00 , 0x9c , 0x0f , 0x20 , 0x00 , 0x30 , 0x48 , 0x49 , 0x64 , 0x48 , 0x0a , 0x00 , 0x00 , 0x00 , 0xf0 ,
 0x04 , 0x00 , 0xd4 , 0x1f , 0x10 , 0x00 , 0x60 , 0x13 , 0x92 , 0x4a , 0x95 , 0x10 , 0x00 , 0x00 , 0x00 , 0xf0 ,
 0x20 , 0x00 , 0xfc , 0x6f , 0x05 , 0xa0 , 0x85 , 0xd4 , 0x54 , 0x52 , 0xa1 , 0x36 , 0x00 , 0x00 , 0x00 , 0xf0 ,
 0xc2 , 0x01 , 0xfc , 0x0f , 0x02 , 0x1a , 0x80 , 0x09 , 0xa5 , 0x64 , 0x2a , 0x29 , 0x00 , 0x6c , 0x01 , 0xf0 ,
 0x02 , 0x02 , 0xf8 , 0x07 , 0x80 , 0x01 , 0x00 , 0x52 , 0x09 , 0xc9 , 0x4a , 0x62 , 0x00 , 0x02 , 0x02 , 0xf0 ,
 0x02 , 0x18 , 0xf8 , 0x07 , 0x60 , 0x00 , 0x00 , 0x56 , 0x52 , 0x95 , 0x94 , 0x54 , 0x00 , 0x01 , 0x0c , 0xf0 ,
 0x00 , 0x20 , 0xf0 , 0x03 , 0x18 , 0x00 , 0x00 , 0x88 , 0x54 , 0xa2 , 0xa2 , 0x4a , 0x80 , 0x00 , 0x10 , 0xf0 ,
 0x01 , 0x40 , 0xd0 , 0x00 , 0x06 , 0x00 , 0x00 , 0x58 , 0xa5 , 0x94 , 0x29 , 0x91 , 0xa8 , 0x00 , 0x20 , 0xf0 ,
 0x01 , 0x80 , 0x10 , 0x00 , 0x01 , 0x00 , 0x00 , 0x90 , 0x08 , 0xa9 , 0x4a , 0xaa , 0x57 , 0x00 , 0x40 , 0xf0 ,
 0x00 , 0x00 , 0x00 , 0x00 , 0x00 , 0x00 , 0x00 , 0x20 , 0x55 , 0x45 , 0x91 , 0x44 , 0x54 , 0x00 , 0x80 , 0xf0 ,
 0x01 , 0x00 , 0x10 , 0x00 , 0x00 , 0x00 , 0x00 , 0x60 , 0x29 , 0xa9 , 0x2a , 0xa9 , 0xa2 , 0x00 , 0x00 , 0xf1 ,
 0x01 , 0x00 , 0x10 , 0x00 , 0x00 , 0x00 , 0x00 , 0x40 , 0x42 , 0x92 , 0xa5 , 0x4a , 0x4a , 0x00 , 0x00 , 0xf2 ,
 0x01 , 0x00 , 0x00 , 0x00 , 0x00 , 0x00 , 0x00 , 0x40 , 0x55 , 0x25 , 0x49 , 0x92 , 0xd4 , 0x00 , 0x00 , 0xf2 ,
 0x00 , 0x00 , 0x10 , 0x00 , 0x00 , 0xa8 , 0x12 , 0x80 , 0x94 , 0xa8 , 0x95 , 0x24 , 0x89 , 0x00 , 0x00 , 0xf4 ,
 0xe9 , 0x2e , 0x10 , 0x00 , 0x68 , 0x13 , 0x14 , 0x80 , 0x22 , 0x25 , 0x21 , 0xa9 , 0x52 , 0x01 , 0x00 , 0xf4 ,
 0x01 , 0xc0 , 0x00 , 0x00 , 0x0a , 0x00 , 0x00 , 0x80 , 0x54 , 0x4a , 0x4d , 0x25 , 0xa5 , 0x00 , 0x00 , 0xf0 ,
 0x00 , 0x00 , 0x10 , 0x00 , 0x00 , 0x00 , 0x00 , 0x00 , 0xa5 , 0x94 , 0x51 , 0x4a , 0x48 , 0x01 , 0x00 , 0xf8 ,
 0x01 , 0x00 , 0x10 , 0x00 , 0x00 , 0x00 , 0x00 , 0x00 , 0x89 , 0xa2 , 0x4a , 0x91 , 0x2a , 0x01 , 0x00 , 0xf8 ,
 0x01 , 0x00 , 0x00 , 0x00 , 0x00 , 0x00 , 0x00 , 0x00 , 0x53 , 0x94 , 0x92 , 0x54 , 0x45 , 0x02 , 0x00 , 0xf8 ,
 0x00 , 0x00 , 0x10 , 0x00 , 0x00 , 0x00 , 0x00 , 0x00 , 0xaa , 0xaa , 0x24 , 0x25 , 0xaa , 0x06 , 0x00 , 0xf0 ,
 0x01 , 0x00 , 0x20 , 0x00 , 0xb0 , 0x00 , 0x00 , 0x00 , 0x12 , 0xa1 , 0xa9 , 0x48 , 0x91 , 0x04 , 0x00 , 0xf8 ,
 0x02 , 0x00 , 0x00 , 0x00 , 0x00 , 0x0b , 0x00 , 0x00 , 0x4a , 0x4a , 0x4a , 0x95 , 0x2a , 0x19 , 0x00 , 0xf8 ,
 0x02 , 0x58 , 0x10 , 0x00 , 0x00 , 0x10 , 0x00 , 0x00 , 0x52 , 0xd5 , 0x12 , 0x29 , 0x51 , 0x1a , 0x00 , 0xf8 ,
 0x00 , 0x02 , 0x20 , 0x00 , 0x00 , 0xe0 , 0x00 , 0x00 , 0x94 , 0x48 , 0xaa , 0xa2 , 0x8a , 0x6a , 0x00 , 0xf0 ,
 0x2a , 0x00 , 0x20 , 0x00 , 0x00 , 0x00 , 0x01 , 0x00 , 0x24 , 0xd5 , 0x44 , 0x14 , 0x52 , 0x84 , 0x00 , 0xf4 ,
 0xc6 , 0x00 , 0x00 , 0x00 , 0x00 , 0x00 , 0x06 , 0x00 , 0x4c , 0x21 , 0xa9 , 0xaa , 0xa4 , 0x06 , 0x03 , 0xf2 ,
 0x02 , 0x01 , 0x20 , 0x00 , 0x00 , 0x00 , 0x00 , 0x00 , 0x54 , 0x6a , 0x12 , 0xa1 , 0x8a , 0x01 , 0x54 , 0xf1 ,
 0x02 , 0x00 , 0x40 , 0x00 , 0x00 , 0x00 , 0x00 , 0x00 , 0xa4 , 0xb4 , 0xaa , 0x4a , 0x74 , 0x00 , 0x00 , 0xf0 ,
 0x01 , 0x00 , 0x40 , 0x00 , 0x00 , 0x54 , 0x01 , 0x00 , 0x14 , 0x29 , 0x91 , 0x94 , 0x22 , 0x00 , 0x00 , 0xf0 ,
 0x02 , 0x00 , 0x40 , 0x00 , 0xc0 , 0xeb , 0x3f , 0x00 , 0xa8 , 0x9a , 0x2a , 0x29 , 0x15 , 0x00 , 0x00 , 0xf0 ,
 0x02 , 0x00 , 0x00 , 0x00 , 0x68 , 0x94 , 0xd1 , 0x01 , 0x44 , 0x2a , 0x44 , 0xa2 , 0x18 , 0x00 , 0x00 , 0xf0 ,
 0x00 , 0x00 , 0x40 , 0x00 , 0x4a , 0xab , 0x2b , 0x07 , 0x98 , 0x44 , 0xa9 , 0x14 , 0x15 , 0x00 , 0x00 , 0xf0 ,
 0x04 , 0x00 , 0x80 , 0x80 , 0x41 , 0x55 , 0xab , 0x1a , 0x28 , 0xad , 0x4a , 0xa5 , 0x0a , 0x00 , 0x00 , 0xf0 ,
 0x04 , 0x00 , 0x80 , 0x20 , 0x80 , 0xaa , 0x56 , 0x65 , 0x48 , 0x92 , 0x14 , 0x2a , 0x05 , 0x00 , 0x00 , 0xf0 ,
 0x18 , 0x00 , 0x00 , 0x10 , 0x00 , 0x55 , 0xad , 0x82 , 0xa8 , 0x26 , 0xa1 , 0x48 , 0x02 , 0x00 , 0x00 , 0xf0 ,
 0x10 , 0x00 , 0x00 , 0x0d , 0x00 , 0x55 , 0xad , 0x06 , 0x48 , 0xa9 , 0xaa , 0x92 , 0x02 , 0x00 , 0x00 , 0xf0 ,
 0x60 , 0x00 , 0x00 , 0x03 , 0x00 , 0xaa , 0x5a , 0x05 , 0xa8 , 0x25 , 0x4a , 0xaa , 0x01 , 0x00 , 0x00 , 0xf0 ,
 0x80 , 0x01 , 0x40 , 0x01 , 0x00 , 0x54 , 0x55 , 0x05 , 0x48 , 0x4a , 0x91 , 0x44 , 0x00 , 0x00 , 0x00 , 0xf0 ,
 0x00 , 0x06 , 0x54 , 0x00 , 0x00 , 0xac , 0xaa , 0x02 , 0x68 , 0x51 , 0x2a , 0x69 , 0x00 , 0x00 , 0x00 , 0xf0 ,
 0x00 , 0xec , 0x05 , 0x00 , 0x00 , 0x50 , 0x55 , 0x05 , 0x38 , 0x95 , 0x44 , 0x15 , 0x00 , 0x00 , 0x00 , 0xf0 ,
 0x00 , 0x08 , 0x00 , 0x00 , 0x00 , 0xb0 , 0xaa , 0x02 , 0x48 , 0x22 , 0xa9 , 0x18 , 0x00 , 0x00 , 0x00 , 0xf0 ,
 0x00 , 0x10 , 0x00 , 0x00 , 0x00 , 0xc0 , 0x54 , 0x03 , 0xac , 0x54 , 0x15 , 0x05 , 0x00 , 0x00 , 0x00 , 0xf0 ,
 0x00 , 0x60 , 0x00 , 0x00 , 0x00 , 0x00 , 0x57 , 0x01 , 0x12 , 0x25 , 0xa2 , 0x02 , 0x00 , 0x00 , 0x00 , 0xf0 ,
 0x00 , 0x80 , 0x00 , 0x00 , 0x00 , 0x00 , 0x58 , 0x00 , 0xab , 0x48 , 0xd5 , 0x00 , 0x00 , 0x00 , 0x00 , 0xf0 ,
 0x00 , 0x00 , 0x01 , 0x00 , 0x00 , 0x00 , 0x00 , 0xc0 , 0x44 , 0x95 , 0x28 , 0x00 , 0x00 , 0x00 , 0x00 , 0xf0 ,
 0x00 , 0x00 , 0x06 , 0x00 , 0x00 , 0x00 , 0x00 , 0xb0 , 0x92 , 0x24 , 0x15 , 0x00 , 0x00 , 0x00 , 0x00 , 0xf0 ,
 0x00 , 0x00 , 0x18 , 0x00 , 0x00 , 0x00 , 0x00 , 0x94 , 0x54 , 0xa9 , 0x06 , 0x00 , 0x00 , 0x00 , 0x00 , 0xf0 ,
 0x00 , 0x00 , 0xa0 , 0x00 , 0x00 , 0x00 , 0x00 , 0x2b , 0x89 , 0x92 , 0x01 , 0x00 , 0x00 , 0x00 , 0x00 , 0xf0 ,
 0x00 , 0x00 , 0x00 , 0x01 , 0x00 , 0x00 , 0xc0 , 0x4a , 0x52 , 0x64 , 0x00 , 0x00 , 0x00 , 0x00 , 0x00 , 0xf0 ,
 0x00 , 0x00 , 0x00 , 0x2e , 0x00 , 0x00 , 0xb8 , 0x94 , 0xaa , 0x1a , 0x00 , 0x00 , 0x00 , 0x00 , 0x00 , 0xf0 ,
 0x00 , 0x00 , 0x00 , 0x40 , 0x05 , 0x50 , 0x17 , 0xa1 , 0x04 , 0x03 , 0x00 , 0x00 , 0x00 , 0x00 , 0x00 , 0xf0 ,
 0x00 , 0x00 , 0x00 , 0x00 , 0xf8 , 0x17 , 0xa3 , 0x2a , 0xe9 , 0x00 , 0x00 , 0x00 , 0x00 , 0x00 , 0x00 , 0xf0 ,
 0x00 , 0x00 , 0x00 , 0x00 , 0x00 , 0x00 , 0x2c , 0xa5 , 0x1a , 0x00 , 0x00 , 0x00 , 0x00 , 0x00 , 0x00 , 0xf0 ,
 0x00 , 0x00 , 0x00 , 0x00 , 0x40 , 0x00 , 0x48 , 0x08 , 0x05 , 0x00 , 0x00 , 0x00 , 0x00 , 0x00 , 0x00 , 0xf0 ,
 0x00 , 0x00 , 0x00 , 0x00 , 0x40 , 0x00 , 0xa8 , 0xea , 0x02 , 0x00 , 0x00 , 0x00 , 0x00 , 0x00 , 0x00 , 0xf0 ,
 0x00 , 0x00 , 0x00 , 0x00 , 0x00 , 0x00 , 0x90 , 0x14 , 0x00 , 0x00 , 0x00 , 0x00 , 0x00 , 0x00 , 0x00 , 0xf0 ,
 0x00 , 0x00 , 0x00 , 0x00 , 0x20 , 0x00 , 0x50 , 0x0b , 0x00 , 0x00 , 0x00 , 0x00 , 0x00 , 0x00 , 0x00 , 0xf0 ,
 0x00 , 0x00 , 0x00 , 0x00 , 0x20 , 0x00 , 0xd0 , 0x00 , 0x00 , 0x00 , 0x00 , 0x00 , 0x00 , 0x00 , 0x00 , 0xf0 ,
 0x00 , 0x00 , 0x00 , 0x00 , 0x40 , 0x00 , 0x30 , 0x00 , 0x00 , 0x00 , 0x00 , 0x00 , 0x00 , 0x00 , 0x00 , 0xf0 ,
 0x00 , 0x00 , 0x00 , 0x00 , 0x20 , 0x00 , 0x08 , 0x00 , 0x00 , 0x00 , 0x00 , 0x00 , 0x00 , 0x00 , 0x00 , 0xf0 ,
 0x00 , 0x00 , 0x00 , 0x00 , 0x40 , 0x00 , 0x08 , 0x00 , 0x00 , 0x00 , 0x00 , 0x00 , 0x00 , 0x00 , 0x00 , 0xf0 ,
 0x00 , 0x00 , 0x00 , 0x00 , 0x80 , 0x00 , 0x08 , 0x00 , 0x00 , 0x00 , 0x00 , 0x00 , 0x00 , 0x00 , 0x00 , 0xf0 ,
 0x00 , 0x00 , 0x00 , 0x00 , 0x80 , 0x00 , 0x06 , 0x00 , 0x00 , 0x00 , 0x00 , 0x00 , 0x00 , 0x00 , 0x00 , 0xf0 ,
 0x00 , 0x00 , 0x00 , 0x00 , 0x00 , 0x03 , 0x01 , 0x00 , 0x00 , 0x00 , 0x00 , 0x00 , 0x00 , 0x00 , 0x00 , 0xf0 ,
 0x00 , 0x00 , 0x00 , 0x00 , 0x00 , 0xec , 0x00 , 0x00 , 0x00 , 0x00 , 0x00 , 0x00 , 0x00 , 0x00 , 0x00 , 0xf0 }; 
