#define 9_xbm_width 144 
#define 9_xbm_height 149 
static unsigned char 9_xbm_bits[] = { 
 0x00 , 0x00 , 0x00 , 0x00 , 0x00 , 0x00 , 0x55 , 0x55 , 0x00 , 0x00 , 0x00 , 0x00 , 0x00 , 0x00 , 0x00 , 0x00 , 0x00 , 0x00 ,
 0x00 , 0x00 , 0x00 , 0x00 , 0x00 , 0x68 , 0x22 , 0x89 , 0x16 , 0x00 , 0x00 , 0x00 , 0x00 , 0x00 , 0x00 , 0x00 , 0x00 , 0x00 ,
 0x00 , 0x00 , 0x00 , 0x00 , 0x80 , 0x8a , 0x54 , 0x52 , 0xa9 , 0x00 , 0x00 , 0x00 , 0x00 , 0x00 , 0x00 , 0x00 , 0x00 , 0x00 ,
 0x00 , 0x00 , 0x00 , 0x00 , 0x50 , 0x55 , 0xa5 , 0x94 , 0x44 , 0x0b , 0x00 , 0x00 , 0x00 , 0x00 , 0x00 , 0x00 , 0x00 , 0x00 ,
 0x00 , 0x00 , 0x00 , 0x00 , 0x2a , 0x22 , 0x09 , 0x25 , 0x29 , 0x54 , 0x00 , 0x00 , 0x00 , 0x00 , 0x00 , 0x00 , 0x00 , 0x00 ,
 0x00 , 0x00 , 0x00 , 0x80 , 0x52 , 0x49 , 0x52 , 0x49 , 0x4a , 0x49 , 0x01 , 0x00 , 0x00 , 0x00 , 0x00 , 0x00 , 0x00 , 0x00 ,
 0x00 , 0x00 , 0x00 , 0xa0 , 0x44 , 0xaa , 0x54 , 0x52 , 0x51 , 0x92 , 0x0a , 0x00 , 0x00 , 0x00 , 0x00 , 0x00 , 0x00 , 0x00 ,
 0x00 , 0x00 , 0x00 , 0x28 , 0xa9 , 0x24 , 0x45 , 0x95 , 0x8a , 0x2a , 0x14 , 0x00 , 0x00 , 0x00 , 0x00 , 0x00 , 0x00 , 0x00 ,
 0x00 , 0x00 , 0x00 , 0x4a , 0x0a , 0x49 , 0x2a , 0x22 , 0x52 , 0x49 , 0x21 , 0x00 , 0x00 , 0x00 , 0x00 , 0x00 , 0x00 , 0x00 ,
 0x00 , 0x00 , 0x00 , 0x91 , 0x52 , 0x95 , 0x50 , 0xa9 , 0x94 , 0x92 , 0xaa , 0x00 , 0x00 , 0x00 , 0x00 , 0x00 , 0x00 , 0x00 ,
 0x00 , 0x00 , 0x40 , 0xaa , 0x54 , 0xa2 , 0x46 , 0x4a , 0x29 , 0xa4 , 0x94 , 0x02 , 0x00 , 0x00 , 0x00 , 0x00 , 0x00 , 0x00 ,
 0x00 , 0x00 , 0xa0 , 0x92 , 0x82 , 0x94 , 0xa8 , 0x14 , 0x45 , 0x15 , 0x25 , 0x05 , 0x00 , 0x00 , 0x00 , 0x00 , 0x00 , 0x00 ,
 0x00 , 0x00 , 0x48 , 0x2a , 0x00 , 0x25 , 0x15 , 0x51 , 0xaa , 0xa2 , 0x48 , 0x0a , 0x00 , 0x00 , 0x00 , 0x00 , 0x00 , 0x00 ,
 0x00 , 0x00 , 0xa8 , 0x04 , 0x00 , 0xa8 , 0x24 , 0x40 , 0x11 , 0x29 , 0x53 , 0x11 , 0x00 , 0x00 , 0x00 , 0x00 , 0x00 , 0x00 ,
 0x00 , 0x00 , 0x12 , 0x29 , 0x00 , 0x48 , 0x09 , 0x80 , 0xa4 , 0x4a , 0x94 , 0x54 , 0x00 , 0x00 , 0x00 , 0x00 , 0x00 , 0x00 ,
 0x00 , 0x00 , 0xa5 , 0x0a , 0x00 , 0x10 , 0x02 , 0x00 , 0x55 , 0x94 , 0x22 , 0xa5 , 0x00 , 0x00 , 0x00 , 0x00 , 0x00 , 0x00 ,
 0x00 , 0x80 , 0x94 , 0x04 , 0x00 , 0xd0 , 0x02 , 0x00 , 0x24 , 0xa1 , 0x54 , 0x4a , 0x01 , 0x00 , 0x00 , 0x00 , 0x00 , 0x00 ,
 0x00 , 0x40 , 0x29 , 0x01 , 0x00 , 0x20 , 0x01 , 0x00 , 0x4a , 0x2d , 0xa5 , 0x90 , 0x02 , 0x00 , 0x00 , 0x00 , 0x00 , 0x00 ,
 0x00 , 0x20 , 0x42 , 0x02 , 0x00 , 0x40 , 0x00 , 0x00 , 0x90 , 0x50 , 0x8a , 0x26 , 0x04 , 0x00 , 0x00 , 0x00 , 0x00 , 0x00 ,
 0x00 , 0x50 , 0x55 , 0x01 , 0x00 , 0xa0 , 0x00 , 0x00 , 0x24 , 0x85 , 0x28 , 0xa9 , 0x09 , 0x00 , 0x00 , 0x00 , 0x00 , 0x00 ,
 0x00 , 0x90 , 0x94 , 0x00 , 0x00 , 0x40 , 0x00 , 0x00 , 0xa8 , 0xaa , 0x52 , 0x12 , 0x0a , 0x00 , 0x00 , 0x00 , 0x00 , 0x00 ,
 0x00 , 0x24 , 0x29 , 0x01 , 0x00 , 0x20 , 0x00 , 0x00 , 0x48 , 0x54 , 0x8a , 0xa4 , 0x32 , 0x00 , 0x00 , 0x00 , 0x00 , 0x00 ,
 0x00 , 0x48 , 0x42 , 0x00 , 0x00 , 0x40 , 0x00 , 0x00 , 0x90 , 0xa2 , 0x54 , 0x55 , 0x45 , 0x00 , 0x00 , 0x00 , 0x00 , 0x00 ,
 0x00 , 0xaa , 0x54 , 0x00 , 0x00 , 0x00 , 0x00 , 0x00 , 0x28 , 0x15 , 0x91 , 0x88 , 0x28 , 0x00 , 0x00 , 0x00 , 0x00 , 0x00 ,
 0x00 , 0x12 , 0x95 , 0x00 , 0x00 , 0x20 , 0x00 , 0x00 , 0x40 , 0xa4 , 0x2a , 0x55 , 0x4a , 0x01 , 0x00 , 0x00 , 0x00 , 0x00 ,
 0x00 , 0xa5 , 0x52 , 0x00 , 0x00 , 0x00 , 0x00 , 0x00 , 0xa8 , 0x4a , 0x42 , 0x91 , 0x52 , 0x00 , 0x00 , 0x00 , 0x00 , 0x00 ,
 0x80 , 0x48 , 0x04 , 0x00 , 0x00 , 0x20 , 0x00 , 0x00 , 0x90 , 0x90 , 0x54 , 0x2a , 0xa5 , 0x02 , 0x00 , 0x00 , 0x00 , 0x00 ,
 0x80 , 0xaa , 0x02 , 0x00 , 0x00 , 0x01 , 0x00 , 0x00 , 0x28 , 0x55 , 0x95 , 0x44 , 0x88 , 0x00 , 0x00 , 0x00 , 0x00 , 0x00 ,
 0x40 , 0x12 , 0x00 , 0x00 , 0xc0 , 0x23 , 0x00 , 0x00 , 0x40 , 0x25 , 0x22 , 0xa9 , 0x2a , 0x05 , 0x00 , 0x00 , 0x00 , 0x00 ,
 0x40 , 0x25 , 0x80 , 0x00 , 0xe0 , 0x07 , 0x00 , 0x00 , 0x00 , 0x4a , 0x55 , 0x95 , 0x52 , 0x05 , 0x00 , 0x00 , 0x00 , 0x00 ,
 0x20 , 0x08 , 0x00 , 0x00 , 0xe0 , 0x0f , 0x78 , 0x00 , 0x00 , 0x90 , 0x48 , 0x22 , 0x25 , 0x0a , 0x00 , 0x00 , 0x00 , 0x00 ,
 0xa0 , 0x05 , 0x00 , 0x00 , 0x60 , 0x0e , 0xfc , 0x00 , 0x04 , 0x20 , 0x95 , 0x54 , 0x48 , 0x11 , 0x00 , 0x00 , 0x00 , 0x00 ,
 0x10 , 0x02 , 0x00 , 0x00 , 0xe0 , 0x06 , 0xec , 0x00 , 0x00 , 0x40 , 0x21 , 0x89 , 0x2a , 0x05 , 0x00 , 0x00 , 0x00 , 0x00 ,
 0xd0 , 0x00 , 0x00 , 0x00 , 0xc0 , 0x07 , 0xcc , 0x01 , 0x00 , 0x00 , 0xaa , 0x52 , 0x45 , 0x2a , 0x00 , 0x00 , 0x00 , 0x00 ,
 0x08 , 0x00 , 0x00 , 0x02 , 0xc0 , 0x03 , 0xfc , 0x00 , 0x00 , 0x00 , 0x14 , 0x95 , 0xa8 , 0x08 , 0x00 , 0x00 , 0x00 , 0x00 ,
 0x50 , 0x00 , 0x00 , 0x00 , 0x00 , 0x40 , 0xfc , 0x00 , 0x01 , 0x00 , 0x48 , 0x22 , 0x95 , 0x12 , 0x00 , 0x00 , 0x00 , 0x00 ,
 0x24 , 0x00 , 0x00 , 0x00 , 0x00 , 0x00 , 0x78 , 0x00 , 0x00 , 0x00 , 0x50 , 0xa9 , 0x24 , 0x55 , 0x00 , 0x00 , 0x00 , 0x00 ,
 0x08 , 0x00 , 0x00 , 0x08 , 0xf0 , 0x03 , 0x00 , 0x00 , 0x00 , 0x00 , 0x40 , 0x4a , 0x49 , 0x22 , 0x00 , 0x00 , 0x00 , 0x00 ,
 0x14 , 0x00 , 0x00 , 0x00 , 0xf8 , 0x0f , 0x00 , 0x40 , 0x00 , 0x00 , 0x80 , 0x14 , 0x52 , 0x55 , 0x00 , 0x00 , 0x00 , 0x00 ,
 0x04 , 0x00 , 0x00 , 0x00 , 0xfe , 0x3f , 0x01 , 0x00 , 0x00 , 0x00 , 0x00 , 0xa1 , 0x8a , 0x88 , 0x00 , 0x00 , 0x00 , 0x00 ,
 0x04 , 0x40 , 0x00 , 0x00 , 0xfe , 0x3f , 0x00 , 0x00 , 0x00 , 0x00 , 0x00 , 0xaa , 0x54 , 0x55 , 0x00 , 0x00 , 0x00 , 0x00 ,
 0x02 , 0x00 , 0x00 , 0x00 , 0xfe , 0x7f , 0x00 , 0x00 , 0x00 , 0x00 , 0x00 , 0x14 , 0x11 , 0xa1 , 0x00 , 0x00 , 0x00 , 0x00 ,
 0x04 , 0x00 , 0x04 , 0x00 , 0xff , 0x7f , 0x00 , 0x00 , 0x00 , 0x00 , 0x00 , 0xa0 , 0xaa , 0x8a , 0x00 , 0x00 , 0x00 , 0x00 ,
 0x02 , 0x00 , 0x00 , 0x00 , 0xfe , 0x7f , 0x00 , 0x00 , 0x00 , 0x20 , 0x00 , 0x50 , 0x22 , 0x32 , 0x0b , 0x00 , 0x00 , 0x00 ,
 0x02 , 0x00 , 0x00 , 0x00 , 0xff , 0xff , 0x00 , 0x00 , 0x00 , 0x08 , 0x00 , 0xa0 , 0x54 , 0x45 , 0x14 , 0x00 , 0x00 , 0x00 ,
 0x00 , 0x00 , 0x40 , 0x00 , 0xfe , 0x7f , 0x00 , 0x00 , 0x00 , 0x02 , 0x00 , 0x00 , 0x25 , 0xaa , 0x21 , 0x00 , 0x00 , 0x00 ,
 0x01 , 0x00 , 0x00 , 0x00 , 0xfe , 0x7f , 0x00 , 0x00 , 0x40 , 0x00 , 0x00 , 0x40 , 0x49 , 0x11 , 0x4a , 0x00 , 0x00 , 0x00 ,
 0x00 , 0x00 , 0x00 , 0x04 , 0xfc , 0x7f , 0x00 , 0x00 , 0x08 , 0x00 , 0x00 , 0x80 , 0x92 , 0xaa , 0xaa , 0x00 , 0x00 , 0x00 ,
 0x01 , 0x24 , 0x00 , 0x00 , 0xfc , 0x3f , 0x00 , 0x00 , 0x01 , 0x00 , 0x00 , 0x00 , 0x24 , 0x91 , 0x92 , 0x02 , 0x00 , 0x04 ,
 0x80 , 0x00 , 0x00 , 0x00 , 0xf0 , 0x0f , 0x00 , 0x20 , 0x00 , 0x00 , 0x00 , 0x00 , 0x55 , 0x2a , 0x25 , 0x05 , 0x00 , 0x3f ,
 0x00 , 0x00 , 0x00 , 0x00 , 0xc0 , 0x0b , 0x00 , 0x08 , 0x00 , 0x00 , 0x00 , 0x00 , 0x92 , 0x42 , 0x56 , 0x0a , 0x80 , 0x7f ,
 0x20 , 0x80 , 0x00 , 0x00 , 0x00 , 0x00 , 0x00 , 0x02 , 0x00 , 0x00 , 0x00 , 0x00 , 0x24 , 0x55 , 0x95 , 0x10 , 0xc0 , 0x7f ,
 0x00 , 0x00 , 0x04 , 0x00 , 0x00 , 0x00 , 0x80 , 0x00 , 0x00 , 0x00 , 0x00 , 0x00 , 0x4a , 0x94 , 0x2e , 0x0b , 0xc0 , 0xff ,
 0x00 , 0x00 , 0x40 , 0x00 , 0x00 , 0x00 , 0x20 , 0x00 , 0x00 , 0x00 , 0x00 , 0x00 , 0x50 , 0x29 , 0x55 , 0x14 , 0xc0 , 0xff ,
 0x08 , 0x00 , 0x00 , 0x00 , 0x40 , 0x00 , 0x00 , 0x00 , 0x00 , 0x00 , 0x00 , 0x00 , 0x94 , 0x42 , 0x8e , 0x22 , 0xc0 , 0xff ,
 0x00 , 0x00 , 0x00 , 0x08 , 0x00 , 0x00 , 0x00 , 0x00 , 0x00 , 0x00 , 0x00 , 0x00 , 0x28 , 0x55 , 0xad , 0x54 , 0xc0 , 0x7f ,
 0x00 , 0x00 , 0x00 , 0x00 , 0x00 , 0x00 , 0x00 , 0x00 , 0x00 , 0x00 , 0x00 , 0x00 , 0x40 , 0x94 , 0x2e , 0xa5 , 0xc0 , 0x7f ,
 0x00 , 0x00 , 0x00 , 0x00 , 0x00 , 0x00 , 0x00 , 0x00 , 0x00 , 0x00 , 0x00 , 0x00 , 0xa8 , 0x22 , 0xad , 0x88 , 0x00 , 0x3f ,
 0x08 , 0x00 , 0x00 , 0x00 , 0x40 , 0x00 , 0x00 , 0x00 , 0x00 , 0x00 , 0x00 , 0x00 , 0x90 , 0x54 , 0x2f , 0x55 , 0x00 , 0x16 ,
 0x00 , 0x00 , 0x00 , 0x00 , 0x00 , 0x00 , 0x00 , 0x00 , 0x00 , 0x00 , 0x00 , 0x00 , 0x50 , 0x49 , 0xae , 0x92 , 0x04 , 0x00 ,
 0x00 , 0x00 , 0x00 , 0x00 , 0x00 , 0x00 , 0x00 , 0x00 , 0x00 , 0x00 , 0x00 , 0x00 , 0x20 , 0x92 , 0x4f , 0x24 , 0x01 , 0x00 ,
 0x02 , 0x00 , 0x00 , 0x00 , 0x00 , 0x00 , 0x00 , 0x00 , 0x00 , 0x00 , 0x00 , 0x00 , 0x90 , 0x2a , 0x9d , 0x4a , 0x01 , 0x00 ,
 0x00 , 0x00 , 0x10 , 0x02 , 0x00 , 0x00 , 0x00 , 0x00 , 0x00 , 0x00 , 0x00 , 0x00 , 0xa0 , 0x44 , 0x57 , 0x52 , 0x02 , 0x00 ,
 0x20 , 0x00 , 0x00 , 0x00 , 0x40 , 0x00 , 0x00 , 0x00 , 0x00 , 0x00 , 0x00 , 0x00 , 0x20 , 0x29 , 0x97 , 0xa4 , 0x00 , 0x00 ,
 0x00 , 0x00 , 0x00 , 0x00 , 0x00 , 0x00 , 0x00 , 0x00 , 0x00 , 0x00 , 0x00 , 0x00 , 0xa0 , 0x52 , 0x57 , 0x09 , 0x01 , 0x00 ,
 0x00 , 0x00 , 0x00 , 0x00 , 0x00 , 0x00 , 0x00 , 0x00 , 0x00 , 0x00 , 0x00 , 0x00 , 0x20 , 0xa4 , 0x17 , 0x55 , 0x01 , 0x00 ,
 0x04 , 0x00 , 0x00 , 0x00 , 0x00 , 0x00 , 0x00 , 0x00 , 0x00 , 0x00 , 0x00 , 0x00 , 0x40 , 0x95 , 0xab , 0xa8 , 0x02 , 0x00 ,
 0x80 , 0x00 , 0x00 , 0x00 , 0x00 , 0x00 , 0x80 , 0x24 , 0x01 , 0x00 , 0x00 , 0x04 , 0x90 , 0xa2 , 0x27 , 0x45 , 0x02 , 0x00 ,
 0x00 , 0x00 , 0x00 , 0x00 , 0x40 , 0x00 , 0x00 , 0x00 , 0x90 , 0x00 , 0x00 , 0x00 , 0x20 , 0x55 , 0x4b , 0x29 , 0x01 , 0x00 ,
 0x00 , 0x00 , 0x00 , 0x00 , 0x00 , 0x00 , 0x00 , 0x00 , 0x00 , 0x24 , 0x80 , 0x00 , 0xa0 , 0xc8 , 0x2b , 0x4a , 0x02 , 0x00 ,
 0x00 , 0x00 , 0x00 , 0x00 , 0x00 , 0x00 , 0x00 , 0x00 , 0x00 , 0x00 , 0xc0 , 0x00 , 0x20 , 0xd5 , 0xa5 , 0x92 , 0x02 , 0x00 ,
 0x10 , 0x04 , 0x00 , 0x00 , 0x00 , 0x00 , 0x00 , 0x00 , 0x00 , 0x00 , 0xe0 , 0x01 , 0x50 , 0xe2 , 0x95 , 0xa4 , 0x00 , 0x00 ,
 0x00 , 0x00 , 0x00 , 0x00 , 0x00 , 0x00 , 0x00 , 0x00 , 0x00 , 0x00 , 0xf8 , 0x01 , 0x80 , 0xd4 , 0x22 , 0x29 , 0x05 , 0x00 ,
 0x00 , 0x00 , 0x00 , 0x00 , 0x40 , 0x00 , 0x00 , 0x00 , 0x00 , 0x00 , 0xf4 , 0x03 , 0x50 , 0xf5 , 0xaa , 0x4a , 0x02 , 0x00 ,
 0x00 , 0x20 , 0x00 , 0x00 , 0x00 , 0x00 , 0x00 , 0x00 , 0x00 , 0x00 , 0xfe , 0x03 , 0x90 , 0x70 , 0x45 , 0x94 , 0x00 , 0x00 ,
 0x40 , 0x00 , 0x00 , 0x00 , 0x00 , 0x00 , 0x00 , 0x00 , 0x00 , 0x80 , 0xff , 0x03 , 0x20 , 0x6d , 0xa9 , 0x22 , 0x01 , 0x00 ,
 0x00 , 0x00 , 0x01 , 0x00 , 0x00 , 0x00 , 0x00 , 0x00 , 0x00 , 0xe0 , 0xff , 0x07 , 0x48 , 0xb9 , 0x12 , 0x55 , 0x01 , 0x00 ,
 0x00 , 0x00 , 0x00 , 0x00 , 0x40 , 0x00 , 0x00 , 0x00 , 0x00 , 0xf0 , 0xff , 0x07 , 0x50 , 0xba , 0xa4 , 0x88 , 0x00 , 0x00 ,
 0x00 , 0x00 , 0x10 , 0x00 , 0x00 , 0x00 , 0x00 , 0x00 , 0x00 , 0xfc , 0xff , 0x07 , 0x88 , 0x5c , 0x55 , 0x55 , 0x01 , 0x00 ,
 0x00 , 0x01 , 0x00 , 0x00 , 0x00 , 0x00 , 0x00 , 0x00 , 0x80 , 0xff , 0xff , 0x07 , 0x50 , 0xaf , 0x08 , 0x21 , 0x00 , 0x00 ,
 0x00 , 0x00 , 0x80 , 0x00 , 0x00 , 0x00 , 0x00 , 0x00 , 0xe0 , 0xff , 0xff , 0x07 , 0x94 , 0x2e , 0x55 , 0x4a , 0x01 , 0x00 ,
 0x00 , 0x00 , 0x00 , 0x00 , 0x40 , 0x00 , 0x00 , 0x00 , 0xf0 , 0xff , 0xfe , 0x03 , 0x24 , 0xab , 0xa4 , 0xaa , 0x00 , 0x00 ,
 0x00 , 0x08 , 0x00 , 0x08 , 0x00 , 0x00 , 0x00 , 0x00 , 0xf0 , 0xff , 0xff , 0x07 , 0xc8 , 0x4b , 0x49 , 0x24 , 0x00 , 0x00 ,
 0x00 , 0x00 , 0x00 , 0x80 , 0x00 , 0x00 , 0x00 , 0x00 , 0xe0 , 0xff , 0xff , 0x03 , 0xaa , 0x15 , 0x92 , 0x4a , 0x00 , 0x00 ,
 0x00 , 0x00 , 0x00 , 0x00 , 0x48 , 0x00 , 0x00 , 0x00 , 0xc0 , 0xff , 0xff , 0x01 , 0xd2 , 0xd2 , 0x2a , 0x51 , 0x00 , 0x00 ,
 0x00 , 0x20 , 0x00 , 0x00 , 0x00 , 0x00 , 0x04 , 0x00 , 0xc0 , 0xff , 0xff , 0x01 , 0x65 , 0x25 , 0x44 , 0x4a , 0x00 , 0x00 ,
 0x00 , 0x00 , 0x00 , 0x00 , 0x00 , 0x00 , 0x00 , 0x00 , 0x80 , 0xff , 0xff , 0x00 , 0xb9 , 0x54 , 0xaa , 0x12 , 0x00 , 0x00 ,
 0x00 , 0x00 , 0x00 , 0x00 , 0x00 , 0x00 , 0x00 , 0x00 , 0x00 , 0xff , 0x7f , 0x80 , 0x4a , 0x09 , 0x24 , 0x25 , 0x00 , 0x00 ,
 0x00 , 0x00 , 0x01 , 0x00 , 0x00 , 0x00 , 0x00 , 0x00 , 0x00 , 0xfc , 0x1f , 0x40 , 0x2a , 0x12 , 0x4a , 0x28 , 0x00 , 0x00 ,
 0x00 , 0x00 , 0x00 , 0x00 , 0x00 , 0x00 , 0x00 , 0x00 , 0x00 , 0xf8 , 0x17 , 0x40 , 0x49 , 0x15 , 0x90 , 0x0a , 0x00 , 0x00 ,
 0x00 , 0x00 , 0x00 , 0x00 , 0x00 , 0x00 , 0x00 , 0x00 , 0x00 , 0x00 , 0x00 , 0x50 , 0x95 , 0x08 , 0x55 , 0x15 , 0x00 , 0x00 ,
 0x00 , 0x00 , 0x08 , 0x00 , 0x00 , 0x00 , 0x00 , 0x00 , 0x00 , 0x00 , 0x00 , 0x50 , 0x22 , 0x05 , 0x4a , 0x08 , 0x00 , 0x00 ,
 0x00 , 0x00 , 0x00 , 0x00 , 0x00 , 0x00 , 0x00 , 0x00 , 0x00 , 0x00 , 0x00 , 0xa8 , 0x54 , 0x09 , 0x91 , 0x02 , 0x00 , 0x00 ,
 0x00 , 0x00 , 0x40 , 0x00 , 0x00 , 0x00 , 0x00 , 0x00 , 0x00 , 0x00 , 0x00 , 0x14 , 0x49 , 0x02 , 0x2a , 0x0d , 0x00 , 0x00 ,
 0x00 , 0x00 , 0x00 , 0x00 , 0x00 , 0x00 , 0x00 , 0x00 , 0x00 , 0x00 , 0x00 , 0xaa , 0x92 , 0x82 , 0x52 , 0x02 , 0x00 , 0x00 ,
 0x00 , 0x00 , 0x00 , 0x02 , 0x00 , 0x00 , 0x00 , 0x00 , 0x00 , 0x00 , 0x00 , 0x45 , 0x2a , 0x81 , 0x84 , 0x04 , 0x00 , 0x00 ,
 0x00 , 0x00 , 0x00 , 0x00 , 0x00 , 0x00 , 0x00 , 0x00 , 0x00 , 0x00 , 0x80 , 0xaa , 0x44 , 0x42 , 0xa9 , 0x02 , 0x00 , 0x00 ,
 0x00 , 0x00 , 0x00 , 0x20 , 0x00 , 0x00 , 0x00 , 0x00 , 0x00 , 0x00 , 0xa0 , 0x24 , 0xa9 , 0x20 , 0x2a , 0x01 , 0x00 , 0x00 ,
 0x00 , 0x00 , 0x00 , 0x00 , 0x00 , 0x00 , 0x00 , 0x00 , 0x00 , 0x00 , 0xa8 , 0x4a , 0x92 , 0x40 , 0x51 , 0x10 , 0x00 , 0x00 ,
 0x00 , 0x00 , 0x00 , 0x00 , 0x02 , 0x00 , 0x00 , 0x00 , 0x00 , 0x00 , 0x2a , 0x91 , 0x2a , 0x28 , 0x85 , 0x68 , 0x00 , 0x00 ,
 0x00 , 0x00 , 0x00 , 0x00 , 0x00 , 0x00 , 0x00 , 0x00 , 0x00 , 0x80 , 0x50 , 0x2a , 0x51 , 0x4a , 0xaa , 0xd4 , 0x00 , 0x00 ,
 0x00 , 0x00 , 0x00 , 0x00 , 0x20 , 0x00 , 0x00 , 0x00 , 0x00 , 0x28 , 0x80 , 0x44 , 0x4a , 0x51 , 0x29 , 0x28 , 0x01 , 0x00 ,
 0x00 , 0x00 , 0x00 , 0x00 , 0x00 , 0x04 , 0x00 , 0x00 , 0x00 , 0x05 , 0x30 , 0xa9 , 0x52 , 0x4a , 0x52 , 0xd2 , 0x00 , 0x00 ,
 0x00 , 0x00 , 0x00 , 0x00 , 0x00 , 0x40 , 0x00 , 0x00 , 0x54 , 0x80 , 0x50 , 0x95 , 0xa4 , 0x94 , 0x24 , 0xa9 , 0x00 , 0x00 ,
 0x00 , 0x00 , 0x00 , 0x00 , 0x00 , 0x00 , 0xac , 0xaa , 0x05 , 0x20 , 0x10 , 0x21 , 0x19 , 0x25 , 0x15 , 0x52 , 0x01 , 0x00 ,
 0x00 , 0x00 , 0x00 , 0x00 , 0x00 , 0x00 , 0x50 , 0x55 , 0x0a , 0x01 , 0xa8 , 0xaa , 0x02 , 0xa0 , 0x44 , 0x68 , 0x01 , 0x00 ,
 0x00 , 0x00 , 0x00 , 0x00 , 0x00 , 0x00 , 0x00 , 0x88 , 0x44 , 0x84 , 0x00 , 0x94 , 0x00 , 0x00 , 0x29 , 0xa9 , 0x00 , 0x00 ,
 0x00 , 0x00 , 0x00 , 0x00 , 0x00 , 0x80 , 0x62 , 0x23 , 0x09 , 0x2e , 0x00 , 0x20 , 0x00 , 0x00 , 0x8a , 0xa8 , 0x00 , 0x00 ,
 0x00 , 0x00 , 0x00 , 0x00 , 0x00 , 0x54 , 0x88 , 0x00 , 0x20 , 0x06 , 0x00 , 0x40 , 0x00 , 0x00 , 0x24 , 0xd2 , 0x00 , 0x00 ,
 0x00 , 0x00 , 0x00 , 0x00 , 0x40 , 0x01 , 0x11 , 0x00 , 0x00 , 0x00 , 0x00 , 0x00 , 0x00 , 0x00 , 0x88 , 0xa8 , 0x00 , 0x00 ,
 0x00 , 0x00 , 0x00 , 0x00 , 0x20 , 0x2a , 0x02 , 0x00 , 0x00 , 0x01 , 0x00 , 0x00 , 0x00 , 0x00 , 0x20 , 0x52 , 0x00 , 0x00 ,
 0x00 , 0x00 , 0x00 , 0x00 , 0x80 , 0x44 , 0x08 , 0x00 , 0x00 , 0x00 , 0x00 , 0x20 , 0x00 , 0x00 , 0x88 , 0x68 , 0x00 , 0x00 ,
 0x00 , 0x00 , 0x00 , 0x00 , 0x00 , 0xa9 , 0x12 , 0x00 , 0x00 , 0x00 , 0x00 , 0x00 , 0x00 , 0x00 , 0x28 , 0x95 , 0x00 , 0x00 ,
 0x00 , 0x00 , 0x00 , 0x00 , 0x00 , 0x02 , 0x04 , 0x00 , 0x00 , 0x00 , 0x00 , 0x00 , 0x00 , 0x00 , 0x44 , 0x00 , 0x2d , 0x00 ,
 0x00 , 0x00 , 0x00 , 0x00 , 0x00 , 0x80 , 0x2a , 0x00 , 0x80 , 0x00 , 0x00 , 0x40 , 0x00 , 0x00 , 0x90 , 0x2a , 0xc0 , 0x01 ,
 0x00 , 0x00 , 0x00 , 0x00 , 0x00 , 0x05 , 0x50 , 0x00 , 0x20 , 0x00 , 0x00 , 0x00 , 0x00 , 0x00 , 0x12 , 0x50 , 0x15 , 0x00 ,
 0x00 , 0x00 , 0x00 , 0x00 , 0x00 , 0x00 , 0x01 , 0x25 , 0x8a , 0x00 , 0x00 , 0x00 , 0x01 , 0x80 , 0xa4 , 0x85 , 0x28 , 0x00 ,
 0x00 , 0x00 , 0x00 , 0x00 , 0x00 , 0x02 , 0x12 , 0x88 , 0x54 , 0x01 , 0x00 , 0x80 , 0x04 , 0x50 , 0x49 , 0x02 , 0x05 , 0x00 ,
 0x00 , 0x00 , 0x00 , 0x00 , 0x00 , 0x04 , 0x20 , 0x00 , 0x00 , 0x0a , 0x00 , 0x40 , 0x52 , 0x95 , 0x92 , 0x00 , 0x00 , 0x00 ,
 0x00 , 0x00 , 0x00 , 0x00 , 0x00 , 0x41 , 0x15 , 0x14 , 0x50 , 0x11 , 0x00 , 0x28 , 0x04 , 0x40 , 0x24 , 0x00 , 0x00 , 0x00 ,
 0x00 , 0x00 , 0x00 , 0x00 , 0x00 , 0x14 , 0xa1 , 0x00 , 0x00 , 0xa0 , 0x40 , 0x85 , 0x50 , 0x15 , 0x51 , 0x01 , 0x00 , 0x00 ,
 0x00 , 0x00 , 0x00 , 0x00 , 0x00 , 0x41 , 0x14 , 0x20 , 0xa0 , 0x48 , 0x16 , 0x12 , 0x02 , 0x40 , 0x04 , 0xaa , 0x00 , 0x00 ,
 0x00 , 0x00 , 0x00 , 0x00 , 0xa0 , 0x0a , 0x01 , 0x80 , 0x12 , 0x15 , 0x50 , 0xa9 , 0x94 , 0x14 , 0x91 , 0x00 , 0x01 , 0x00 ,
 0x00 , 0x00 , 0x00 , 0x00 , 0x00 , 0x21 , 0x02 , 0x00 , 0x6c , 0x09 , 0x08 , 0x02 , 0x21 , 0x41 , 0x04 , 0xaa , 0x00 , 0x00 ,
 0x00 , 0x00 , 0x00 , 0x00 , 0xa0 , 0x94 , 0x00 , 0x00 , 0x4b , 0xa3 , 0xa2 , 0xa8 , 0x4a , 0xaa , 0x50 , 0x11 , 0x00 , 0x00 ,
 0x00 , 0x00 , 0x00 , 0x00 , 0x00 , 0x22 , 0x01 , 0x04 , 0xb4 , 0x2c , 0x08 , 0x12 , 0xa9 , 0x00 , 0x05 , 0x02 , 0x00 , 0x00 ,
 0x00 , 0x00 , 0x00 , 0x00 , 0x00 , 0x48 , 0x10 , 0x00 , 0x54 , 0x4b , 0xa1 , 0xa4 , 0x82 , 0x2a , 0xa8 , 0x00 , 0x00 , 0x00 ,
 0x00 , 0x00 , 0x00 , 0x00 , 0x00 , 0x80 , 0x00 , 0x20 , 0x54 , 0x11 , 0x44 , 0x09 , 0x55 , 0x00 , 0x22 , 0x00 , 0x00 , 0x00 ,
 0x00 , 0x00 , 0x00 , 0x00 , 0x00 , 0x00 , 0x00 , 0x02 , 0x54 , 0x42 , 0x19 , 0x52 , 0x28 , 0x15 , 0x10 , 0x00 , 0x00 , 0x00 ,
 0x00 , 0x00 , 0x00 , 0x00 , 0x00 , 0x00 , 0x08 , 0x00 , 0x88 , 0x88 , 0xa2 , 0xa4 , 0x02 , 0x04 , 0x20 , 0x00 , 0x00 , 0x00 ,
 0x00 , 0x00 , 0x00 , 0x00 , 0x00 , 0x80 , 0x40 , 0x02 , 0x20 , 0x32 , 0x44 , 0x09 , 0x15 , 0x09 , 0x00 , 0x00 , 0x00 , 0x00 ,
 0x00 , 0x00 , 0x00 , 0x00 , 0x00 , 0x00 , 0x80 , 0x87 , 0x88 , 0x44 , 0x29 , 0x52 , 0x20 , 0x01 , 0x10 , 0x00 , 0x00 , 0x00 ,
 0x00 , 0x00 , 0x00 , 0x00 , 0x00 , 0x00 , 0x80 , 0x07 , 0xb0 , 0x2a , 0x45 , 0x95 , 0x8a , 0x0a , 0x20 , 0x00 , 0x00 , 0x00 ,
 0x00 , 0x00 , 0x00 , 0x00 , 0x00 , 0x00 , 0x80 , 0x07 , 0x08 , 0x51 , 0x28 , 0x22 , 0x20 , 0x50 , 0x11 , 0x00 , 0x00 , 0x00 ,
 0x00 , 0x00 , 0x00 , 0x00 , 0x00 , 0x80 , 0xa4 , 0x27 , 0xa8 , 0x8a , 0xc2 , 0x44 , 0x89 , 0x0a , 0x4a , 0x00 , 0x00 , 0x00 ,
 0x00 , 0x00 , 0x00 , 0x00 , 0x00 , 0x00 , 0x80 , 0x07 , 0x10 , 0x51 , 0x14 , 0x10 , 0x22 , 0x50 , 0x90 , 0x02 , 0x00 , 0x00 ,
 0x00 , 0x00 , 0x00 , 0x00 , 0x00 , 0x00 , 0x00 , 0x02 , 0xa8 , 0x8a , 0x55 , 0xa5 , 0x88 , 0x02 , 0x21 , 0x54 , 0x00 , 0x00 ,
 0x00 , 0x00 , 0x00 , 0x00 , 0x00 , 0x00 , 0x00 , 0x00 , 0x48 , 0x52 , 0x50 , 0x0a , 0x22 , 0x54 , 0x84 , 0x80 , 0x00 , 0x00 ,
 0x00 , 0x00 , 0x00 , 0x00 , 0x00 , 0x80 , 0x00 , 0x00 , 0x95 , 0x01 , 0x80 , 0x54 , 0x89 , 0x00 , 0x11 , 0x52 , 0x01 , 0x00 ,
 0x00 , 0x00 , 0x00 , 0x00 , 0x00 , 0x00 , 0x20 , 0x00 , 0x28 , 0x02 , 0x00 , 0xa8 , 0x12 , 0x2a , 0x44 , 0xa4 , 0x00 , 0x00 ,
 0x00 , 0x00 , 0x00 , 0x00 , 0x00 , 0x00 , 0x00 , 0x24 , 0xd4 , 0x14 , 0x00 , 0x03 , 0xaa , 0x80 , 0x10 , 0x49 , 0x00 , 0x00 ,
 0x00 , 0x00 , 0x00 , 0x00 , 0x00 , 0x00 , 0x08 , 0x00 , 0xac , 0xa1 , 0x82 , 0x0a , 0xa0 , 0x2a , 0x45 , 0x12 , 0x00 , 0x00 ,
 0x00 , 0x00 , 0x00 , 0x00 , 0x00 , 0x00 , 0x02 , 0x00 , 0x50 , 0x00 , 0x44 , 0x15 , 0x00 , 0x4a , 0xaa , 0x04 , 0x00 , 0x00 ,
 0x00 , 0x00 , 0x00 , 0x00 , 0x00 , 0x00 , 0x00 , 0x00 , 0x01 , 0x00 , 0xa9 , 0x1a , 0x00 , 0xa0 , 0x14 , 0x00 , 0x00 , 0x00 ,
 0x00 , 0x00 , 0x00 , 0x00 , 0x00 , 0x00 , 0x00 , 0x00 , 0x00 , 0x00 , 0xa0 , 0x0a , 0x00 , 0x00 , 0x00 , 0x00 , 0x00 , 0x00 ,
 0x00 , 0x00 , 0x00 , 0x00 , 0x00 , 0x00 , 0x10 , 0x20 , 0x00 , 0x00 , 0x40 , 0x15 , 0x00 , 0x00 , 0x00 , 0x00 , 0x00 , 0x00 ,
 0x00 , 0x00 , 0x00 , 0x00 , 0x00 , 0x00 , 0x00 , 0x12 , 0x00 , 0x00 , 0x40 , 0x15 , 0x00 , 0x00 , 0x00 , 0x00 , 0x00 , 0x00 ,
 0x00 , 0x00 , 0x00 , 0x00 , 0x00 , 0x00 , 0x80 , 0x00 , 0x00 , 0x00 , 0x80 , 0x0d , 0x00 , 0x00 , 0x00 , 0x00 , 0x00 , 0x00 ,
 0x00 , 0x00 , 0x00 , 0x00 , 0x00 , 0x00 , 0x00 , 0x00 , 0x00 , 0x00 , 0x00 , 0x02 , 0x00 , 0x00 , 0x00 , 0x00 , 0x00 , 0x00 }; 
