#define EDTA-N2_xbm_width 196 
#define EDTA-N2_xbm_height 38 
static unsigned char EDTA-N2_xbm_bits[] = { 
 0x00 , 0x00 , 0x00 , 0x00 , 0x00 , 0x00 , 0x00 , 0x00 , 0x00 , 0x00 , 0x00 , 0x00 , 0x00 , 0x00 , 0x00 , 0x00 , 0x00 , 0x00 , 0x00 , 0x00 , 0x00 , 0x00 , 0x00 , 0x00 , 0x40 ,
 0x00 , 0x00 , 0x00 , 0x00 , 0x00 , 0x00 , 0x00 , 0x00 , 0x00 , 0x00 , 0x00 , 0x00 , 0x00 , 0x00 , 0x00 , 0x00 , 0x00 , 0x00 , 0x00 , 0x00 , 0x00 , 0x00 , 0x00 , 0x00 , 0x00 ,
 0x00 , 0x08 , 0x02 , 0x00 , 0x80 , 0x00 , 0x00 , 0x00 , 0x00 , 0x00 , 0x00 , 0x00 , 0x00 , 0x00 , 0x00 , 0x00 , 0x00 , 0x00 , 0x00 , 0x00 , 0x00 , 0x00 , 0x00 , 0x00 , 0xe0 ,
 0x44 , 0x8a , 0xc4 , 0x89 , 0xa0 , 0x00 , 0x00 , 0x00 , 0x00 , 0x00 , 0x00 , 0x00 , 0x00 , 0x00 , 0x00 , 0x00 , 0x00 , 0x00 , 0x00 , 0x00 , 0x00 , 0x00 , 0x00 , 0x00 , 0x70 ,
 0x44 , 0x51 , 0x28 , 0x8a , 0x10 , 0x01 , 0x00 , 0x00 , 0x00 , 0x00 , 0x00 , 0x00 , 0x00 , 0x00 , 0x00 , 0x00 , 0x00 , 0x00 , 0x00 , 0x20 , 0x00 , 0x10 , 0x04 , 0x01 , 0xb0 ,
 0x6c , 0xa1 , 0x28 , 0xd8 , 0x10 , 0x00 , 0x00 , 0x00 , 0x00 , 0x00 , 0x00 , 0x00 , 0x00 , 0x00 , 0x00 , 0x00 , 0x00 , 0x00 , 0x00 , 0x48 , 0x13 , 0x64 , 0x99 , 0x24 , 0x12 ,
 0x40 , 0xa1 , 0x28 , 0x88 , 0x12 , 0x00 , 0x00 , 0x00 , 0x00 , 0x00 , 0x00 , 0x00 , 0x00 , 0x00 , 0x00 , 0x00 , 0x00 , 0x00 , 0x00 , 0x08 , 0x22 , 0x04 , 0xa1 , 0x28 , 0xe1 ,
 0x44 , 0x92 , 0x24 , 0x8b , 0x28 , 0x09 , 0x00 , 0x00 , 0x00 , 0x00 , 0x00 , 0x00 , 0x00 , 0x00 , 0x00 , 0x00 , 0x00 , 0x00 , 0x00 , 0x04 , 0x1a , 0x04 , 0x21 , 0x68 , 0xe3 ,
 0x00 , 0x0c , 0x45 , 0x01 , 0xc4 , 0x18 , 0x00 , 0x00 , 0x00 , 0x00 , 0x00 , 0x00 , 0x00 , 0x00 , 0x00 , 0x00 , 0x00 , 0x00 , 0x00 , 0x88 , 0xa2 , 0x05 , 0x51 , 0x28 , 0x62 ,
 0x00 , 0x00 , 0x00 , 0x00 , 0x02 , 0x60 , 0x00 , 0x00 , 0x00 , 0x00 , 0x00 , 0x00 , 0x00 , 0x00 , 0x00 , 0x00 , 0x00 , 0x00 , 0x00 , 0x49 , 0x12 , 0x68 , 0x8a , 0x25 , 0x02 ,
 0x00 , 0x00 , 0x00 , 0x00 , 0x02 , 0x80 , 0x01 , 0x00 , 0x00 , 0x00 , 0x00 , 0x00 , 0x00 , 0x00 , 0x00 , 0x00 , 0x00 , 0x00 , 0xc0 , 0x50 , 0x80 , 0x10 , 0x04 , 0x02 , 0x40 ,
 0x00 , 0x00 , 0x00 , 0x00 , 0x00 , 0x00 , 0x06 , 0x00 , 0x00 , 0x00 , 0x00 , 0x00 , 0x00 , 0x00 , 0x00 , 0x00 , 0x00 , 0x00 , 0x30 , 0x00 , 0x40 , 0x01 , 0x00 , 0x00 , 0x00 ,
 0x00 , 0x00 , 0x00 , 0x00 , 0x00 , 0x00 , 0x08 , 0x00 , 0x00 , 0x00 , 0x00 , 0x00 , 0x00 , 0x00 , 0x00 , 0x00 , 0x00 , 0x00 , 0x08 , 0x00 , 0x00 , 0x00 , 0x00 , 0x00 , 0x00 ,
 0x00 , 0x00 , 0x00 , 0x00 , 0x00 , 0x00 , 0x30 , 0x00 , 0x00 , 0x00 , 0x00 , 0x00 , 0x00 , 0x00 , 0x00 , 0x00 , 0x00 , 0x00 , 0x06 , 0x00 , 0x00 , 0x00 , 0x00 , 0x00 , 0x00 ,
 0x00 , 0x00 , 0x00 , 0x00 , 0x00 , 0x00 , 0xc0 , 0x00 , 0x00 , 0x00 , 0x00 , 0x00 , 0x00 , 0x00 , 0x00 , 0x00 , 0x00 , 0x80 , 0x01 , 0x00 , 0x00 , 0x00 , 0x00 , 0x00 , 0x00 ,
 0x00 , 0x00 , 0x00 , 0x00 , 0x00 , 0x00 , 0x00 , 0x44 , 0x00 , 0x00 , 0x58 , 0x12 , 0x38 , 0x11 , 0x00 , 0x00 , 0x00 , 0x60 , 0x00 , 0x00 , 0x00 , 0x00 , 0x00 , 0x00 , 0x00 ,
 0x00 , 0x00 , 0x00 , 0x00 , 0x00 , 0x00 , 0x00 , 0x4c , 0x00 , 0x00 , 0x88 , 0x22 , 0x44 , 0x11 , 0x00 , 0x00 , 0x00 , 0x10 , 0x00 , 0x00 , 0x00 , 0x00 , 0x00 , 0x00 , 0x00 ,
 0x00 , 0x00 , 0x00 , 0x00 , 0x00 , 0x00 , 0x00 , 0x54 , 0xff , 0xff , 0x04 , 0x1a , 0x04 , 0x0d , 0x00 , 0x00 , 0x60 , 0x02 , 0x00 , 0x00 , 0x00 , 0x00 , 0x00 , 0x00 , 0x00 ,
 0x00 , 0x00 , 0x00 , 0x00 , 0x00 , 0x00 , 0x00 , 0x54 , 0x00 , 0x00 , 0x04 , 0x91 , 0x04 , 0x51 , 0x00 , 0x00 , 0x40 , 0x02 , 0x00 , 0x00 , 0x00 , 0x00 , 0x00 , 0x00 , 0x00 ,
 0x00 , 0x00 , 0x00 , 0x00 , 0x00 , 0x00 , 0x00 , 0x24 , 0x00 , 0x00 , 0x48 , 0x12 , 0x45 , 0x11 , 0xfd , 0xff , 0xaf , 0x02 , 0x00 , 0x00 , 0x00 , 0x00 , 0x00 , 0x00 , 0x00 ,
 0x00 , 0x00 , 0x00 , 0x00 , 0x00 , 0x00 , 0xc0 , 0x44 , 0x00 , 0x00 , 0x30 , 0x21 , 0x39 , 0x90 , 0x00 , 0x00 , 0x20 , 0x01 , 0x00 , 0x00 , 0x00 , 0x00 , 0x00 , 0x00 , 0x00 ,
 0x00 , 0x00 , 0x00 , 0x00 , 0x00 , 0x00 , 0x30 , 0x00 , 0x00 , 0x00 , 0x00 , 0x40 , 0x00 , 0x40 , 0x00 , 0x00 , 0x20 , 0x03 , 0x00 , 0x00 , 0x00 , 0x00 , 0x00 , 0x00 , 0x00 ,
 0x00 , 0x00 , 0x00 , 0x00 , 0x00 , 0x00 , 0x0c , 0x00 , 0x00 , 0x00 , 0x00 , 0x80 , 0x00 , 0x40 , 0x00 , 0x00 , 0x00 , 0x30 , 0x00 , 0x00 , 0x00 , 0x00 , 0x00 , 0x00 , 0x00 ,
 0x00 , 0x00 , 0x00 , 0x00 , 0x00 , 0x00 , 0x02 , 0x00 , 0x00 , 0x00 , 0x00 , 0x00 , 0x00 , 0x00 , 0x00 , 0x00 , 0x00 , 0xc0 , 0x00 , 0x00 , 0x00 , 0x00 , 0x00 , 0x00 , 0x00 ,
 0x00 , 0x00 , 0x00 , 0x00 , 0x00 , 0x80 , 0x01 , 0x00 , 0x00 , 0x00 , 0x00 , 0x00 , 0x00 , 0x00 , 0x00 , 0x00 , 0x00 , 0x00 , 0x03 , 0x00 , 0x00 , 0x00 , 0x00 , 0x00 , 0x80 ,
 0x00 , 0x00 , 0x00 , 0x00 , 0x00 , 0x60 , 0x00 , 0x00 , 0x00 , 0x00 , 0x00 , 0x00 , 0x00 , 0x00 , 0x00 , 0x00 , 0x00 , 0x00 , 0x0c , 0x00 , 0x00 , 0x00 , 0x00 , 0x00 , 0x00 ,
 0x00 , 0x00 , 0x00 , 0x00 , 0x00 , 0x18 , 0x00 , 0x00 , 0x00 , 0x00 , 0x00 , 0x00 , 0x00 , 0x00 , 0x00 , 0x00 , 0x00 , 0x00 , 0x10 , 0x00 , 0x00 , 0x00 , 0x00 , 0x00 , 0x60 ,
 0x44 , 0x8e , 0xc7 , 0x89 , 0xe0 , 0x08 , 0x00 , 0x00 , 0x00 , 0x00 , 0x00 , 0x00 , 0x00 , 0x00 , 0x00 , 0x00 , 0x00 , 0x00 , 0x60 , 0x00 , 0x00 , 0x00 , 0x00 , 0x00 , 0x80 ,
 0x40 , 0x91 , 0x28 , 0x8a , 0x20 , 0x01 , 0x00 , 0x00 , 0x00 , 0x00 , 0x00 , 0x00 , 0x00 , 0x00 , 0x00 , 0x00 , 0x00 , 0x00 , 0x80 , 0x01 , 0x00 , 0x00 , 0x00 , 0x00 , 0xf0 ,
 0x5c , 0x61 , 0x28 , 0xa8 , 0x10 , 0x00 , 0x00 , 0x00 , 0x00 , 0x00 , 0x00 , 0x00 , 0x00 , 0x00 , 0x00 , 0x00 , 0x00 , 0x00 , 0x00 , 0x5a , 0x22 , 0x78 , 0x9e , 0x27 , 0xc2 ,
 0x44 , 0x21 , 0x28 , 0x48 , 0x12 , 0x00 , 0x00 , 0x00 , 0x00 , 0x00 , 0x00 , 0x00 , 0x00 , 0x00 , 0x00 , 0x00 , 0x00 , 0x00 , 0x00 , 0x88 , 0x12 , 0x04 , 0x91 , 0x28 , 0x42 ,
 0x44 , 0x92 , 0x28 , 0x8a , 0x28 , 0x01 , 0x00 , 0x00 , 0x00 , 0x00 , 0x00 , 0x00 , 0x00 , 0x00 , 0x00 , 0x00 , 0x00 , 0x00 , 0x00 , 0x08 , 0x16 , 0x04 , 0x61 , 0x68 , 0xf3 ,
 0x40 , 0x8a , 0x45 , 0x89 , 0x44 , 0x01 , 0x00 , 0x00 , 0x00 , 0x00 , 0x00 , 0x00 , 0x00 , 0x00 , 0x00 , 0x00 , 0x00 , 0x00 , 0x00 , 0x04 , 0x52 , 0x05 , 0x41 , 0x08 , 0x42 ,
 0x00 , 0x00 , 0x00 , 0x00 , 0x02 , 0x00 , 0x00 , 0x00 , 0x00 , 0x00 , 0x00 , 0x00 , 0x00 , 0x00 , 0x00 , 0x00 , 0x00 , 0x00 , 0x00 , 0xc8 , 0x22 , 0x44 , 0x91 , 0x24 , 0xe2 ,
 0x00 , 0x00 , 0x00 , 0x00 , 0x02 , 0x00 , 0x00 , 0x00 , 0x00 , 0x00 , 0x00 , 0x00 , 0x00 , 0x00 , 0x00 , 0x00 , 0x00 , 0x00 , 0x00 , 0x30 , 0x80 , 0x38 , 0x0e , 0x25 , 0x02 ,
 0x00 , 0x00 , 0x00 , 0x00 , 0x00 , 0x00 , 0x00 , 0x00 , 0x00 , 0x00 , 0x00 , 0x00 , 0x00 , 0x00 , 0x00 , 0x00 , 0x00 , 0x00 , 0x00 , 0x00 , 0x40 , 0x01 , 0x00 , 0x00 , 0x80 ,
 0x00 , 0x00 , 0x00 , 0x00 , 0x00 , 0x00 , 0x00 , 0x00 , 0x00 , 0x00 , 0x00 , 0x00 , 0x00 , 0x00 , 0x00 , 0x00 , 0x00 , 0x00 , 0x00 , 0x00 , 0x80 , 0x00 , 0x00 , 0x00 , 0x00 ,
 0x00 , 0x00 , 0x00 , 0x00 , 0x00 , 0x00 , 0x00 , 0x00 , 0x00 , 0x00 , 0x00 , 0x00 , 0x00 , 0x00 , 0x00 , 0x00 , 0x00 , 0x00 , 0x00 , 0x00 , 0x00 , 0x00 , 0x00 , 0x00 , 0x00 }; 
