#define EDTA-6_xbm_width 144 
#define EDTA-6_xbm_height 110 
static unsigned char EDTA-6_xbm_bits[] = { 
 0x00 , 0x00 , 0x00 , 0x00 , 0x00 , 0x00 , 0x00 , 0x00 , 0x00 , 0x00 , 0x00 , 0x00 , 0x00 , 0x00 , 0x00 , 0x00 , 0x00 , 0x00 ,
 0x00 , 0x00 , 0x00 , 0x00 , 0x00 , 0x00 , 0x00 , 0x00 , 0x00 , 0x00 , 0x00 , 0x00 , 0xfa , 0x02 , 0x00 , 0x00 , 0x00 , 0x00 ,
 0x00 , 0x00 , 0x00 , 0x00 , 0x00 , 0x00 , 0x00 , 0x00 , 0x00 , 0x00 , 0x00 , 0xc0 , 0xff , 0x0f , 0x00 , 0x00 , 0x00 , 0x00 ,
 0x00 , 0x00 , 0x00 , 0x00 , 0x00 , 0x00 , 0x00 , 0x00 , 0x00 , 0x00 , 0x00 , 0xf0 , 0xaf , 0x3b , 0x00 , 0x00 , 0x00 , 0x00 ,
 0x00 , 0x00 , 0x00 , 0x00 , 0x00 , 0x00 , 0x00 , 0x00 , 0x00 , 0x00 , 0x00 , 0xbe , 0xfa , 0xae , 0x00 , 0x00 , 0x00 , 0x00 ,
 0x00 , 0x00 , 0x00 , 0x00 , 0x00 , 0x00 , 0x00 , 0x00 , 0x00 , 0x00 , 0x00 , 0xf7 , 0xaf , 0x7b , 0x01 , 0x00 , 0x00 , 0x00 ,
 0x00 , 0x00 , 0x00 , 0x00 , 0x00 , 0x00 , 0x00 , 0x00 , 0x00 , 0x00 , 0xc0 , 0x5d , 0x75 , 0xad , 0x03 , 0x00 , 0x00 , 0x00 ,
 0x00 , 0x00 , 0x00 , 0x00 , 0xc0 , 0x1f , 0x00 , 0x00 , 0x00 , 0x00 , 0x60 , 0xf7 , 0xae , 0x6b , 0x0d , 0x00 , 0x00 , 0x00 ,
 0x00 , 0x00 , 0x00 , 0x00 , 0xf8 , 0xf5 , 0x00 , 0x00 , 0x00 , 0x00 , 0xd0 , 0xaf , 0xb5 , 0x5a , 0x05 , 0x00 , 0x00 , 0x00 ,
 0x00 , 0x00 , 0x00 , 0x00 , 0x6c , 0xd7 , 0x03 , 0x00 , 0x00 , 0x00 , 0xf0 , 0x5a , 0xad , 0xaa , 0x1a , 0x00 , 0x00 , 0x00 ,
 0x00 , 0x00 , 0x00 , 0x00 , 0xbe , 0x4d , 0x07 , 0x00 , 0x00 , 0x00 , 0xbc , 0x6b , 0xab , 0x4a , 0x54 , 0x00 , 0x00 , 0x00 ,
 0x00 , 0x00 , 0x00 , 0x00 , 0x6b , 0xdb , 0x0d , 0x00 , 0x00 , 0x00 , 0xfc , 0xd6 , 0x2a , 0x94 , 0x52 , 0x00 , 0x00 , 0x00 ,
 0x00 , 0x00 , 0x00 , 0x80 , 0xbf , 0xb5 , 0x3e , 0x00 , 0x00 , 0x00 , 0xae , 0xad , 0x4a , 0x21 , 0x94 , 0x00 , 0x00 , 0x00 ,
 0x00 , 0x00 , 0x00 , 0xc0 , 0xd6 , 0xae , 0x2d , 0x00 , 0x00 , 0x00 , 0x7f , 0xb5 , 0x12 , 0x80 , 0xe8 , 0x2f , 0x00 , 0x00 ,
 0x00 , 0x00 , 0x00 , 0xc0 , 0xbb , 0x55 , 0xf5 , 0x00 , 0x00 , 0x00 , 0xab , 0x55 , 0x15 , 0x08 , 0x55 , 0xff , 0x07 , 0x00 ,
 0x00 , 0x00 , 0x00 , 0x60 , 0x57 , 0x55 , 0xea , 0x03 , 0x00 , 0x80 , 0x5f , 0x55 , 0xa5 , 0x40 , 0xe8 , 0xf5 , 0x3f , 0x00 ,
 0x00 , 0x00 , 0x00 , 0xe0 , 0xad , 0x82 , 0x94 , 0x0e , 0x00 , 0x80 , 0x75 , 0xab , 0x0a , 0x00 , 0x5a , 0x5f , 0xfd , 0x00 ,
 0x00 , 0x00 , 0x00 , 0xb0 , 0x2a , 0x29 , 0xa0 , 0x35 , 0x00 , 0xc0 , 0xaf , 0xaa , 0x50 , 0x09 , 0xd4 , 0xea , 0x6b , 0x01 ,
 0x00 , 0x00 , 0x00 , 0xf0 , 0x4a , 0x00 , 0x09 , 0x6d , 0x00 , 0x40 , 0x5b , 0x55 , 0x25 , 0x00 , 0xb4 , 0x5d , 0xdd , 0x07 ,
 0x00 , 0x00 , 0x00 , 0x50 , 0x05 , 0x12 , 0x20 , 0xcd , 0x00 , 0xc0 , 0xb7 , 0x2a , 0x09 , 0x01 , 0x55 , 0xab , 0x7b , 0x0f ,
 0x00 , 0x00 , 0x00 , 0x58 , 0x12 , 0x20 , 0x84 , 0xba , 0x00 , 0xe0 , 0xaa , 0xa5 , 0x4b , 0x24 , 0x6a , 0x75 , 0xd6 , 0x1d ,
 0x00 , 0x00 , 0x00 , 0xa8 , 0x00 , 0x94 , 0x20 , 0xb4 , 0x01 , 0xc0 , 0x6f , 0xea , 0x16 , 0x80 , 0xaa , 0xaa , 0xb5 , 0x17 ,
 0x00 , 0x00 , 0x00 , 0x2c , 0x01 , 0x10 , 0x44 , 0xb5 , 0x02 , 0xe0 , 0x5a , 0xb5 , 0x8d , 0xa8 , 0xaa , 0xad , 0x6a , 0x3d ,
 0x00 , 0x00 , 0x00 , 0x48 , 0x04 , 0x22 , 0x11 , 0xd5 , 0x02 , 0xe0 , 0xab , 0xf2 , 0x0a , 0x82 , 0xaa , 0xaa , 0xaa , 0x3b ,
 0x00 , 0x00 , 0x00 , 0x94 , 0x00 , 0x08 , 0xa4 , 0xb4 , 0x07 , 0x60 , 0x57 , 0xd5 , 0x2f , 0x50 , 0x55 , 0x55 , 0xa5 , 0x6e ,
 0x00 , 0x00 , 0x00 , 0x2c , 0x81 , 0xb0 , 0x12 , 0xe5 , 0x02 , 0xf0 , 0xaa , 0xb0 , 0x0a , 0x24 , 0x55 , 0x55 , 0x45 , 0x7d ,
 0x00 , 0x00 , 0x00 , 0x54 , 0x24 , 0x2a , 0x64 , 0x4a , 0x07 , 0xb0 , 0x5b , 0xe5 , 0x05 , 0x51 , 0x55 , 0x55 , 0xa9 , 0x76 ,
 0x00 , 0x00 , 0x00 , 0x24 , 0x11 , 0xd9 , 0xa9 , 0x52 , 0x2d , 0xe8 , 0x56 , 0x48 , 0x43 , 0x44 , 0xa9 , 0xaa , 0x4a , 0x5d ,
 0x00 , 0x00 , 0x00 , 0x4c , 0x42 , 0x74 , 0xf9 , 0x09 , 0xd1 , 0xbb , 0x95 , 0x02 , 0x0a , 0x50 , 0xaa , 0x54 , 0xd5 , 0x76 ,
 0x00 , 0x00 , 0x00 , 0x54 , 0x14 , 0xed , 0xab , 0x42 , 0x02 , 0x64 , 0x2b , 0x40 , 0x04 , 0xa5 , 0x2a , 0xa5 , 0xaa , 0xfd ,
 0x00 , 0x00 , 0x00 , 0xac , 0x42 , 0xbc , 0xf9 , 0x89 , 0x48 , 0xca , 0xaa , 0x00 , 0x08 , 0xa8 , 0xca , 0xaa , 0xaa , 0x76 ,
 0x00 , 0x00 , 0x00 , 0x54 , 0x14 , 0xe9 , 0x65 , 0x21 , 0x00 , 0x90 , 0x0a , 0x00 , 0xa0 , 0x92 , 0x94 , 0xaa , 0xaa , 0x5d ,
 0x00 , 0x00 , 0x00 , 0xa8 , 0x02 , 0x78 , 0x4b , 0x84 , 0x44 , 0x20 , 0x55 , 0x00 , 0x04 , 0xa4 , 0xaa , 0xba , 0x6a , 0x7b ,
 0x00 , 0x00 , 0x00 , 0x58 , 0x80 , 0x42 , 0xb6 , 0x28 , 0x00 , 0x88 , 0x22 , 0x00 , 0xa8 , 0x29 , 0x55 , 0x55 , 0xd5 , 0x6e ,
 0x00 , 0x00 , 0x00 , 0xa8 , 0x15 , 0x90 , 0xaa , 0x02 , 0x10 , 0x00 , 0x94 , 0x00 , 0x0a , 0xa5 , 0xa2 , 0x56 , 0xb5 , 0x7d ,
 0x00 , 0x00 , 0x00 , 0x30 , 0x42 , 0x00 , 0x6a , 0x48 , 0x02 , 0x20 , 0x21 , 0x00 , 0x54 , 0x49 , 0x5a , 0xa9 , 0xaa , 0x76 ,
 0x00 , 0x00 , 0x00 , 0xb0 , 0x2a , 0x89 , 0x54 , 0x12 , 0x00 , 0x00 , 0x08 , 0x00 , 0xa2 , 0x92 , 0xfe , 0xaa , 0x6a , 0x3f ,
 0x00 , 0x00 , 0x00 , 0x80 , 0x4a , 0x12 , 0x88 , 0x84 , 0x00 , 0x10 , 0x20 , 0x00 , 0xa8 , 0x7a , 0xff , 0x4a , 0xd5 , 0x3a ,
 0x00 , 0x00 , 0x00 , 0x50 , 0x55 , 0x65 , 0x21 , 0x11 , 0x04 , 0x80 , 0x00 , 0x01 , 0xa4 , 0xd0 , 0xaf , 0x54 , 0xad , 0x3f ,
 0x00 , 0x00 , 0x00 , 0xa8 , 0x12 , 0x49 , 0x05 , 0x02 , 0x01 , 0x10 , 0x08 , 0x00 , 0x28 , 0xa2 , 0xfd , 0x55 , 0x75 , 0x1b ,
 0x00 , 0x00 , 0x00 , 0x54 , 0x25 , 0xaa , 0x54 , 0x29 , 0x00 , 0x40 , 0x40 , 0x00 , 0x82 , 0x88 , 0xff , 0x52 , 0xad , 0x3f ,
 0x00 , 0x00 , 0x00 , 0xab , 0x0a , 0x28 , 0xa9 , 0x84 , 0x88 , 0x08 , 0x00 , 0x00 , 0x00 , 0xa0 , 0x55 , 0x55 , 0xdb , 0x1e ,
 0x00 , 0x00 , 0x00 , 0xad , 0x54 , 0xa5 , 0x22 , 0x29 , 0x02 , 0xa0 , 0x88 , 0x80 , 0x48 , 0x0a , 0x7f , 0xaa , 0x6a , 0x0b ,
 0x00 , 0x00 , 0x80 , 0x55 , 0x11 , 0x4a , 0x55 , 0x82 , 0x20 , 0x08 , 0x02 , 0x2a , 0x02 , 0x00 , 0x2a , 0xa9 , 0xb6 , 0x0f ,
 0x00 , 0x00 , 0x40 , 0x95 , 0xca , 0x50 , 0xa2 , 0x2a , 0x04 , 0x42 , 0x20 , 0x00 , 0x00 , 0x20 , 0x80 , 0xa4 , 0xea , 0x0e ,
 0x00 , 0x00 , 0xc0 , 0x2a , 0x11 , 0x95 , 0xa8 , 0x92 , 0x90 , 0x80 , 0x80 , 0xa8 , 0x22 , 0x01 , 0x24 , 0x4a , 0xdd , 0x07 ,
 0x00 , 0x00 , 0xa0 , 0xaa , 0xa4 , 0xa4 , 0xaa , 0x0a , 0x21 , 0x28 , 0x22 , 0x08 , 0x02 , 0x00 , 0x80 , 0x50 , 0xb5 , 0x05 ,
 0x00 , 0x00 , 0xa0 , 0x15 , 0x15 , 0x49 , 0xaa , 0x6b , 0x14 , 0x02 , 0x08 , 0x51 , 0x49 , 0x00 , 0x20 , 0x22 , 0xd5 , 0x03 ,
 0x00 , 0x00 , 0x60 , 0xa5 , 0x48 , 0x92 , 0x54 , 0x53 , 0x21 , 0xa0 , 0x40 , 0xa4 , 0x00 , 0x04 , 0x00 , 0x48 , 0x6a , 0x03 ,
 0x00 , 0x00 , 0x50 , 0x05 , 0x92 , 0xaa , 0x6a , 0x05 , 0x55 , 0x09 , 0x12 , 0x01 , 0x80 , 0x00 , 0x80 , 0x90 , 0xda , 0x01 ,
 0x00 , 0x00 , 0xb0 , 0x8a , 0x24 , 0x25 , 0xa5 , 0x29 , 0x49 , 0x20 , 0x41 , 0x14 , 0x04 , 0x00 , 0x10 , 0x22 , 0xb5 , 0x00 ,
 0x00 , 0x00 , 0xa0 , 0x12 , 0x52 , 0x4b , 0x6b , 0x47 , 0x52 , 0x0a , 0x10 , 0x09 , 0x00 , 0x25 , 0x00 , 0x48 , 0xea , 0x00 ,
 0x00 , 0x00 , 0xb0 , 0x0a , 0x49 , 0x53 , 0xe2 , 0x9d , 0xa0 , 0xa0 , 0x02 , 0x0a , 0x08 , 0x08 , 0x49 , 0x91 , 0x3a , 0x00 ,
 0x00 , 0x00 , 0x50 , 0x21 , 0x52 , 0xab , 0xb4 , 0x17 , 0x54 , 0x0a , 0x40 , 0x8d , 0x20 , 0x22 , 0x02 , 0x4a , 0x2d , 0x00 ,
 0x00 , 0x00 , 0x50 , 0x4d , 0xa5 , 0x56 , 0xf5 , 0x25 , 0xa9 , 0x50 , 0x85 , 0x0b , 0x04 , 0x48 , 0xa8 , 0x50 , 0x0b , 0x00 ,
 0x00 , 0x00 , 0x50 , 0x12 , 0x48 , 0xa4 , 0xea , 0x57 , 0x1a , 0x4b , 0xc0 , 0x16 , 0x51 , 0x90 , 0x92 , 0xd6 , 0x06 , 0x00 ,
 0x00 , 0x00 , 0x50 , 0xa5 , 0x95 , 0x6b , 0x4b , 0x95 , 0x44 , 0x92 , 0xea , 0x1d , 0x00 , 0x41 , 0xaa , 0xb4 , 0x01 , 0x00 ,
 0x00 , 0x00 , 0x50 , 0x08 , 0x6a , 0xda , 0x54 , 0x25 , 0xa9 , 0xac , 0xb4 , 0x2b , 0x05 , 0x00 , 0x51 , 0xeb , 0x00 , 0x00 ,
 0x00 , 0x00 , 0x28 , 0xa1 , 0x54 , 0xb5 , 0x55 , 0x55 , 0x02 , 0x55 , 0x89 , 0x1f , 0x00 , 0x08 , 0xa4 , 0x3a , 0x00 , 0x00 ,
 0x00 , 0x00 , 0x48 , 0x02 , 0xa9 , 0xee , 0x52 , 0xa5 , 0x54 , 0xea , 0x22 , 0x95 , 0x00 , 0x80 , 0x88 , 0x16 , 0x00 , 0x00 ,
 0x00 , 0x00 , 0x12 , 0x00 , 0x52 , 0x75 , 0x55 , 0x95 , 0xaa , 0x5a , 0x09 , 0x30 , 0x00 , 0x02 , 0x20 , 0x1d , 0x00 , 0x00 ,
 0x00 , 0x00 , 0x09 , 0x48 , 0x45 , 0x5a , 0xaa , 0x2a , 0x91 , 0xea , 0xa0 , 0x4a , 0x00 , 0x00 , 0x40 , 0x12 , 0x00 , 0x00 ,
 0x00 , 0xc0 , 0x22 , 0x00 , 0xa8 , 0xaa , 0x52 , 0x55 , 0xa5 , 0x5a , 0x05 , 0x20 , 0x81 , 0x20 , 0x10 , 0x15 , 0x00 , 0x00 ,
 0x00 , 0x20 , 0x05 , 0x00 , 0x11 , 0x29 , 0xa5 , 0xaa , 0xaa , 0xba , 0x20 , 0x45 , 0x22 , 0x08 , 0x00 , 0x14 , 0x00 , 0x00 ,
 0x00 , 0xa8 , 0x4a , 0x00 , 0xa4 , 0xaa , 0x94 , 0xaa , 0x54 , 0x55 , 0x08 , 0x50 , 0x00 , 0x00 , 0x40 , 0x15 , 0x00 , 0x00 ,
 0x00 , 0xd4 , 0x04 , 0x00 , 0x90 , 0x54 , 0x55 , 0x2a , 0x55 , 0x5f , 0x81 , 0x20 , 0x09 , 0x42 , 0x10 , 0x1a , 0x00 , 0x00 ,
 0x00 , 0x36 , 0x11 , 0x00 , 0x48 , 0x55 , 0x92 , 0xa4 , 0xaa , 0x2a , 0x20 , 0x40 , 0xa2 , 0x08 , 0x40 , 0x15 , 0x00 , 0x00 ,
 0x00 , 0xab , 0x02 , 0x00 , 0x20 , 0xaa , 0x2a , 0x49 , 0xd5 , 0x57 , 0x04 , 0x84 , 0x00 , 0x00 , 0x90 , 0x14 , 0x00 , 0x00 ,
 0x80 , 0xaf , 0x14 , 0x00 , 0x44 , 0x29 , 0x49 , 0x92 , 0xaa , 0x2a , 0x00 , 0x00 , 0x35 , 0x00 , 0x20 , 0x1d , 0x00 , 0x00 ,
 0xc0 , 0x2a , 0x01 , 0x00 , 0x10 , 0x6a , 0x95 , 0x20 , 0xda , 0x15 , 0x91 , 0x90 , 0x48 , 0x00 , 0x44 , 0x15 , 0x00 , 0x00 ,
 0xe0 , 0x55 , 0x02 , 0x00 , 0x44 , 0xc5 , 0x24 , 0x85 , 0xb4 , 0x02 , 0x04 , 0x02 , 0x12 , 0x00 , 0xa8 , 0x1a , 0x00 , 0x00 ,
 0xb0 , 0x95 , 0x08 , 0x00 , 0x20 , 0xb5 , 0x49 , 0x00 , 0xa0 , 0x24 , 0x91 , 0x80 , 0x44 , 0x80 , 0x92 , 0x0e , 0x00 , 0x00 ,
 0x70 , 0x2b , 0x01 , 0x00 , 0x88 , 0xaa , 0x12 , 0x10 , 0xaa , 0x02 , 0x24 , 0x14 , 0x8a , 0x00 , 0xa4 , 0x0a , 0x00 , 0x00 ,
 0xd8 , 0x4a , 0x24 , 0x00 , 0x21 , 0xa9 , 0x45 , 0x02 , 0x50 , 0x49 , 0x89 , 0x40 , 0x54 , 0x50 , 0xa9 , 0x07 , 0x00 , 0x00 ,
 0xb8 , 0x92 , 0x00 , 0x20 , 0x40 , 0xf5 , 0x10 , 0x80 , 0xaa , 0x02 , 0x52 , 0x12 , 0x21 , 0x00 , 0xaa , 0x06 , 0x00 , 0x00 ,
 0x6c , 0x15 , 0x02 , 0x54 , 0x59 , 0xad , 0x46 , 0x01 , 0xe8 , 0x2a , 0x95 , 0x44 , 0x08 , 0xa8 , 0x6a , 0x03 , 0x00 , 0x00 ,
 0xdc , 0x4a , 0x10 , 0xd4 , 0x16 , 0x5a , 0x6d , 0x81 , 0xaa , 0x85 , 0x2a , 0x11 , 0x01 , 0x40 , 0xd5 , 0x01 , 0x00 , 0x00 ,
 0xb6 , 0x22 , 0x01 , 0xa5 , 0x4a , 0x21 , 0x54 , 0x23 , 0xd4 , 0x2a , 0x4a , 0xa4 , 0x40 , 0x2b , 0xb5 , 0x01 , 0x00 , 0x00 ,
 0xae , 0x04 , 0x00 , 0x6a , 0x01 , 0x4a , 0xb9 , 0x02 , 0xe9 , 0x57 , 0x55 , 0x09 , 0x41 , 0x55 , 0xf5 , 0x02 , 0x00 , 0x00 ,
 0x5a , 0x29 , 0x82 , 0xaa , 0x53 , 0x11 , 0x54 , 0x45 , 0x5a , 0xaf , 0x96 , 0x52 , 0xaa , 0x4b , 0xad , 0x03 , 0x00 , 0x00 ,
 0x56 , 0x82 , 0x20 , 0x59 , 0x21 , 0xaa , 0xa8 , 0x82 , 0xf4 , 0xab , 0xad , 0x84 , 0xe0 , 0xae , 0xbe , 0x02 , 0x00 , 0x00 ,
 0x56 , 0x09 , 0x00 , 0xb6 , 0x44 , 0x01 , 0x59 , 0x11 , 0xd5 , 0x01 , 0xaa , 0x2a , 0xa5 , 0x6d , 0xab , 0x03 , 0x00 , 0x00 ,
 0xad , 0x00 , 0x00 , 0x6a , 0x29 , 0xaa , 0xd0 , 0xa2 , 0xfa , 0x00 , 0x5c , 0x51 , 0xea , 0xd6 , 0x6f , 0x03 , 0x00 , 0x00 ,
 0x16 , 0x02 , 0x02 , 0x18 , 0x90 , 0x4a , 0x04 , 0x88 , 0xaa , 0x01 , 0xb0 , 0x4a , 0x91 , 0x5b , 0xab , 0x07 , 0x00 , 0x00 ,
 0x55 , 0x00 , 0x20 , 0x50 , 0xa5 , 0x14 , 0x41 , 0x22 , 0xfd , 0x00 , 0x50 , 0x55 , 0x26 , 0xf5 , 0xd5 , 0x02 , 0x00 , 0x00 ,
 0x56 , 0x00 , 0x08 , 0x09 , 0x4a , 0x21 , 0x00 , 0x48 , 0x75 , 0x00 , 0xe0 , 0xa8 , 0xd4 , 0xda , 0xaa , 0x03 , 0x00 , 0x00 ,
 0x2a , 0x01 , 0x01 , 0x50 , 0x51 , 0x96 , 0x84 , 0x50 , 0xef , 0x00 , 0x80 , 0x51 , 0x55 , 0x77 , 0xf5 , 0x03 , 0x00 , 0x00 ,
 0x4a , 0x00 , 0x20 , 0x25 , 0xaa , 0x4a , 0x10 , 0x4a , 0x75 , 0x00 , 0x80 , 0x57 , 0xab , 0x5e , 0xad , 0x03 , 0x00 , 0x00 ,
 0x94 , 0x40 , 0x8a , 0x48 , 0x55 , 0x11 , 0x41 , 0x54 , 0x3f , 0x00 , 0x00 , 0xbe , 0xf6 , 0xab , 0xfa , 0x01 , 0x00 , 0x00 ,
 0x2c , 0x05 , 0x21 , 0x52 , 0x55 , 0x55 , 0x04 , 0xa9 , 0x3d , 0x00 , 0x00 , 0xe8 , 0xad , 0xaa , 0xd7 , 0x01 , 0x00 , 0x00 ,
 0x54 , 0x51 , 0x94 , 0xaa , 0xaa , 0x2a , 0x51 , 0x6a , 0x1b , 0x00 , 0x00 , 0x60 , 0x7f , 0xb5 , 0xfa , 0x00 , 0x00 , 0x00 ,
 0x58 , 0xa5 , 0xa2 , 0xea , 0x6a , 0x4b , 0x84 , 0xaa , 0x1f , 0x00 , 0x00 , 0xc0 , 0x41 , 0xeb , 0xee , 0x00 , 0x00 , 0x00 ,
 0xa8 , 0x4a , 0xaa , 0x6a , 0xad , 0xaa , 0x28 , 0x75 , 0x0f , 0x00 , 0x00 , 0x80 , 0xd7 , 0x5e , 0x7b , 0x00 , 0x00 , 0x00 ,
 0xb8 , 0x5a , 0x55 , 0xbd , 0xda , 0x16 , 0x45 , 0xd5 , 0x07 , 0x00 , 0x00 , 0x00 , 0xaf , 0xf5 , 0x3e , 0x00 , 0x00 , 0x00 ,
 0xd0 , 0xd5 , 0xaa , 0xaa , 0xb5 , 0x55 , 0x52 , 0xfd , 0x02 , 0x00 , 0x00 , 0x00 , 0xfc , 0xaf , 0x1f , 0x00 , 0x00 , 0x00 ,
 0x60 , 0xaf , 0x6d , 0x55 , 0x6b , 0xab , 0x54 , 0xeb , 0x01 , 0x00 , 0x00 , 0x00 , 0x78 , 0xfd , 0x07 , 0x00 , 0x00 , 0x00 ,
 0xe0 , 0x75 , 0x5b , 0x6b , 0xdd , 0xae , 0xd2 , 0xfe , 0x00 , 0x00 , 0x00 , 0x00 , 0xc0 , 0xff , 0x01 , 0x00 , 0x00 , 0x00 ,
 0xc0 , 0xdf , 0xaa , 0xd6 , 0x6a , 0x5b , 0x55 , 0x37 , 0x00 , 0x00 , 0x00 , 0x00 , 0x00 , 0x2a , 0x00 , 0x00 , 0x00 , 0x00 ,
 0xc0 , 0xb6 , 0x6d , 0xad , 0xdf , 0xad , 0xea , 0x1d , 0x00 , 0x00 , 0x00 , 0x00 , 0x00 , 0x00 , 0x00 , 0x00 , 0x00 , 0x00 ,
 0x80 , 0x5f , 0xdb , 0x5a , 0x75 , 0xb7 , 0xba , 0x0f , 0x00 , 0x00 , 0x00 , 0x00 , 0x00 , 0x00 , 0x00 , 0x00 , 0x00 , 0x00 ,
 0x00 , 0xfb , 0xb6 , 0xeb , 0xee , 0x7f , 0xef , 0x01 , 0x00 , 0x00 , 0x00 , 0x00 , 0x00 , 0x00 , 0x00 , 0x00 , 0x00 , 0x00 ,
 0x00 , 0xaf , 0x6b , 0x5d , 0xfb , 0x45 , 0x15 , 0x00 , 0x00 , 0x00 , 0x00 , 0x00 , 0x00 , 0x00 , 0x00 , 0x00 , 0x00 , 0x00 ,
 0x00 , 0xfe , 0xde , 0xea , 0x7d , 0x00 , 0x00 , 0x00 , 0x00 , 0x00 , 0x00 , 0x00 , 0x00 , 0x00 , 0x00 , 0x00 , 0x00 , 0x00 ,
 0x00 , 0xdc , 0xbb , 0x5f , 0x1f , 0x00 , 0x00 , 0x00 , 0x00 , 0x00 , 0x00 , 0x00 , 0x00 , 0x00 , 0x00 , 0x00 , 0x00 , 0x00 ,
 0x00 , 0x78 , 0xd7 , 0xfa , 0x0f , 0x00 , 0x00 , 0x00 , 0x00 , 0x00 , 0x00 , 0x00 , 0x00 , 0x00 , 0x00 , 0x00 , 0x00 , 0x00 ,
 0x00 , 0xf0 , 0x7d , 0xb7 , 0x03 , 0x00 , 0x00 , 0x00 , 0x00 , 0x00 , 0x00 , 0x00 , 0x00 , 0x00 , 0x00 , 0x00 , 0x00 , 0x00 ,
 0x00 , 0xc0 , 0xef , 0xfd , 0x00 , 0x00 , 0x00 , 0x00 , 0x00 , 0x00 , 0x00 , 0x00 , 0x00 , 0x00 , 0x00 , 0x00 , 0x00 , 0x00 ,
 0x00 , 0x80 , 0x7f , 0xbf , 0x00 , 0x00 , 0x00 , 0x00 , 0x00 , 0x00 , 0x00 , 0x00 , 0x00 , 0x00 , 0x00 , 0x00 , 0x00 , 0x00 ,
 0x00 , 0x00 , 0xfc , 0x07 , 0x00 , 0x00 , 0x00 , 0x00 , 0x00 , 0x00 , 0x00 , 0x00 , 0x00 , 0x00 , 0x00 , 0x00 , 0x00 , 0x00 ,
 0x00 , 0x00 , 0x00 , 0x00 , 0x00 , 0x00 , 0x00 , 0x00 , 0x00 , 0x00 , 0x00 , 0x00 , 0x00 , 0x00 , 0x00 , 0x00 , 0x00 , 0x00 }; 
