#define EDTA_xbm_width 144 
#define EDTA_xbm_height 119 
static unsigned char EDTA_xbm_bits[] = { 
 0x00 , 0x00 , 0x00 , 0x00 , 0x00 , 0x00 , 0x00 , 0x00 , 0x00 , 0x00 , 0x00 , 0x00 , 0x00 , 0x00 , 0x00 , 0x00 , 0x00 , 0x00 ,
 0x00 , 0x00 , 0x00 , 0x00 , 0x00 , 0x7e , 0x00 , 0x00 , 0x00 , 0x00 , 0x00 , 0x00 , 0x00 , 0x00 , 0x00 , 0x00 , 0x00 , 0x00 ,
 0x00 , 0x00 , 0x00 , 0x00 , 0x00 , 0xff , 0x01 , 0x00 , 0x00 , 0x00 , 0x00 , 0x00 , 0x00 , 0x00 , 0x00 , 0x00 , 0x00 , 0x00 ,
 0x00 , 0x00 , 0x00 , 0x00 , 0x80 , 0xff , 0x03 , 0x00 , 0x00 , 0x00 , 0x00 , 0x00 , 0x00 , 0x00 , 0x00 , 0x00 , 0x00 , 0x00 ,
 0x00 , 0x00 , 0x00 , 0x00 , 0xc0 , 0xfb , 0x03 , 0x00 , 0x00 , 0x00 , 0x00 , 0x00 , 0x00 , 0x00 , 0x00 , 0x00 , 0x00 , 0x00 ,
 0x00 , 0x00 , 0x00 , 0x00 , 0xc0 , 0xfd , 0x07 , 0x00 , 0x00 , 0x00 , 0x00 , 0x00 , 0x00 , 0x00 , 0x00 , 0x00 , 0x20 , 0x00 ,
 0x00 , 0x00 , 0x00 , 0x00 , 0xe0 , 0xff , 0x07 , 0x00 , 0x00 , 0x00 , 0x00 , 0x00 , 0x00 , 0x00 , 0x00 , 0x00 , 0x40 , 0x00 ,
 0x00 , 0x00 , 0x00 , 0x00 , 0xe0 , 0xff , 0x07 , 0x00 , 0x00 , 0x00 , 0x00 , 0x00 , 0x00 , 0x00 , 0x00 , 0x00 , 0xa0 , 0x00 ,
 0x00 , 0x00 , 0x00 , 0x00 , 0xc0 , 0xff , 0x07 , 0x00 , 0x00 , 0x00 , 0x00 , 0x00 , 0x00 , 0x00 , 0x00 , 0x00 , 0xa8 , 0x00 ,
 0x00 , 0x00 , 0x00 , 0x00 , 0xe0 , 0xff , 0x03 , 0x00 , 0x00 , 0x00 , 0x00 , 0x00 , 0x00 , 0x00 , 0x00 , 0x00 , 0xda , 0x00 ,
 0x00 , 0x00 , 0x00 , 0x00 , 0xc0 , 0xff , 0x03 , 0x00 , 0x00 , 0x00 , 0x00 , 0x00 , 0x00 , 0x00 , 0x00 , 0x00 , 0xea , 0x00 ,
 0x80 , 0x02 , 0x00 , 0x00 , 0x80 , 0xff , 0x03 , 0x00 , 0x00 , 0x00 , 0x00 , 0x00 , 0x00 , 0x00 , 0x00 , 0x80 , 0xb4 , 0x00 ,
 0x00 , 0x01 , 0x00 , 0x00 , 0x00 , 0xff , 0x00 , 0x00 , 0x00 , 0x00 , 0x00 , 0x00 , 0x00 , 0x00 , 0x00 , 0x00 , 0x75 , 0x00 ,
 0xa0 , 0x06 , 0x00 , 0x00 , 0x00 , 0x7e , 0x00 , 0x00 , 0x00 , 0x00 , 0x00 , 0x00 , 0x00 , 0x00 , 0x00 , 0x00 , 0x1e , 0x00 ,
 0xa8 , 0x03 , 0x00 , 0x00 , 0x80 , 0x00 , 0x00 , 0x00 , 0x00 , 0x00 , 0x00 , 0x00 , 0x00 , 0x00 , 0x00 , 0x00 , 0x00 , 0x00 ,
 0x50 , 0x03 , 0x00 , 0x00 , 0x40 , 0x02 , 0x00 , 0x00 , 0x00 , 0x00 , 0x00 , 0x00 , 0x00 , 0x00 , 0x00 , 0x00 , 0x04 , 0x00 ,
 0xa4 , 0x05 , 0x00 , 0x00 , 0x00 , 0x00 , 0x00 , 0x00 , 0x00 , 0x00 , 0x00 , 0x00 , 0x00 , 0x00 , 0x00 , 0x00 , 0x00 , 0x00 ,
 0xd4 , 0x03 , 0x00 , 0x00 , 0x20 , 0x01 , 0x00 , 0x00 , 0x00 , 0x00 , 0x00 , 0x00 , 0x00 , 0x00 , 0x00 , 0x00 , 0x02 , 0x00 ,
 0x78 , 0x00 , 0x00 , 0x00 , 0x95 , 0x00 , 0x00 , 0x00 , 0x00 , 0x00 , 0x00 , 0x00 , 0x00 , 0x00 , 0x00 , 0x60 , 0xc1 , 0x07 ,
 0x40 , 0x00 , 0x00 , 0x80 , 0x34 , 0x00 , 0x00 , 0x00 , 0x00 , 0x00 , 0x00 , 0x00 , 0x00 , 0x00 , 0x00 , 0xf8 , 0xe7 , 0x1f ,
 0x00 , 0x14 , 0x00 , 0x20 , 0xd2 , 0x00 , 0x00 , 0x00 , 0x00 , 0x00 , 0x00 , 0x00 , 0x00 , 0x00 , 0x00 , 0xfc , 0xff , 0x3f ,
 0x00 , 0x7f , 0x00 , 0x00 , 0xd4 , 0x00 , 0x00 , 0x00 , 0x00 , 0x00 , 0x00 , 0x00 , 0x00 , 0x00 , 0x00 , 0xfe , 0xff , 0x7f ,
 0x80 , 0xff , 0x00 , 0x10 , 0xea , 0x00 , 0x00 , 0x00 , 0x00 , 0x00 , 0x00 , 0x00 , 0x00 , 0x00 , 0x00 , 0xef , 0x3f , 0x7f ,
 0xc0 , 0xff , 0x01 , 0xa0 , 0xda , 0x01 , 0x00 , 0x00 , 0x00 , 0x00 , 0x00 , 0x00 , 0x00 , 0x00 , 0x00 , 0xef , 0xbf , 0xff ,
 0xc0 , 0xfd , 0x03 , 0x48 , 0xb7 , 0x00 , 0x00 , 0x00 , 0x00 , 0x00 , 0x00 , 0x00 , 0x00 , 0x00 , 0x00 , 0xff , 0xff , 0x7f ,
 0xe0 , 0xfd , 0x03 , 0x50 , 0xed , 0x01 , 0x00 , 0x00 , 0x00 , 0x00 , 0x00 , 0x00 , 0x00 , 0x00 , 0x00 , 0xff , 0xff , 0xff ,
 0xe0 , 0xff , 0xab , 0x54 , 0xf5 , 0x00 , 0x00 , 0x00 , 0x00 , 0x00 , 0x00 , 0x00 , 0x00 , 0x00 , 0x00 , 0xff , 0xff , 0x7f ,
 0xe0 , 0xff , 0x07 , 0x50 , 0xdf , 0x00 , 0x00 , 0x00 , 0x00 , 0x00 , 0x00 , 0x00 , 0x00 , 0x00 , 0x00 , 0x7e , 0xff , 0x7f ,
 0xe0 , 0xff , 0x03 , 0xe0 , 0x7a , 0x00 , 0x00 , 0x00 , 0x00 , 0x00 , 0x00 , 0x00 , 0x00 , 0x00 , 0x00 , 0x3e , 0xfd , 0x7f ,
 0xe0 , 0xff , 0x03 , 0xc0 , 0x2f , 0x00 , 0x00 , 0x00 , 0x00 , 0x00 , 0x00 , 0x00 , 0x00 , 0x00 , 0x00 , 0x5c , 0xf8 , 0x3f ,
 0xc0 , 0xff , 0x03 , 0x80 , 0x0e , 0x00 , 0x00 , 0x00 , 0x00 , 0x00 , 0x00 , 0x00 , 0x00 , 0x00 , 0x00 , 0x88 , 0xe2 , 0x1f ,
 0xc0 , 0xff , 0x01 , 0x00 , 0x00 , 0x00 , 0x00 , 0x00 , 0x00 , 0x00 , 0x00 , 0x00 , 0x00 , 0x00 , 0x00 , 0x10 , 0xda , 0x02 ,
 0x80 , 0xff , 0x00 , 0x00 , 0x40 , 0x00 , 0x00 , 0x00 , 0x00 , 0x00 , 0x00 , 0x00 , 0x00 , 0x00 , 0x00 , 0x08 , 0x72 , 0x00 ,
 0x00 , 0x3e , 0x00 , 0x00 , 0x00 , 0x00 , 0x00 , 0x00 , 0x00 , 0x00 , 0x00 , 0x00 , 0x00 , 0x00 , 0x00 , 0x20 , 0xed , 0x00 ,
 0x00 , 0x00 , 0x00 , 0x00 , 0x00 , 0x00 , 0x00 , 0x00 , 0x00 , 0x00 , 0x00 , 0x00 , 0x00 , 0x00 , 0x00 , 0x54 , 0x5b , 0x00 ,
 0x00 , 0x00 , 0x00 , 0x00 , 0x00 , 0x00 , 0x00 , 0x20 , 0x00 , 0x00 , 0x00 , 0x00 , 0x00 , 0x00 , 0x00 , 0xc8 , 0xee , 0x00 ,
 0x00 , 0x00 , 0x00 , 0x00 , 0x00 , 0x01 , 0x00 , 0x40 , 0x00 , 0x00 , 0x20 , 0x00 , 0x00 , 0x00 , 0x00 , 0xa8 , 0x7a , 0x00 ,
 0x00 , 0x00 , 0x00 , 0x00 , 0x00 , 0x00 , 0x00 , 0xc0 , 0x00 , 0x00 , 0x40 , 0x00 , 0x00 , 0x00 , 0x00 , 0xa8 , 0xdd , 0x00 ,
 0x00 , 0x00 , 0x00 , 0x00 , 0x00 , 0x5a , 0x00 , 0x90 , 0x00 , 0x00 , 0xd0 , 0x00 , 0x00 , 0x00 , 0x00 , 0x50 , 0x77 , 0x00 ,
 0x00 , 0x00 , 0x00 , 0x00 , 0x00 , 0xa1 , 0x00 , 0xf6 , 0x01 , 0x00 , 0xd4 , 0x00 , 0x00 , 0x00 , 0x00 , 0xf0 , 0x3e , 0x00 ,
 0x00 , 0x00 , 0x00 , 0x00 , 0x80 , 0xd4 , 0x01 , 0x54 , 0x01 , 0x00 , 0xba , 0x00 , 0x00 , 0x00 , 0x00 , 0xc0 , 0x0f , 0x00 ,
 0x00 , 0x00 , 0x00 , 0x00 , 0x40 , 0x50 , 0x43 , 0xe9 , 0x00 , 0x00 , 0xd5 , 0x00 , 0x00 , 0x00 , 0x00 , 0x80 , 0x02 , 0x00 ,
 0x00 , 0x00 , 0x00 , 0x00 , 0x00 , 0xa8 , 0x09 , 0xb5 , 0x00 , 0x80 , 0x74 , 0x00 , 0x00 , 0x00 , 0x00 , 0x00 , 0x00 , 0x00 ,
 0x00 , 0x00 , 0x00 , 0x00 , 0xa0 , 0x6a , 0x03 , 0x5e , 0x00 , 0x00 , 0x5b , 0x00 , 0x00 , 0x00 , 0x00 , 0x40 , 0x00 , 0x00 ,
 0x00 , 0x00 , 0x00 , 0x00 , 0x20 , 0xdd , 0x03 , 0x10 , 0x00 , 0x00 , 0x2c , 0x00 , 0x00 , 0x00 , 0x00 , 0x00 , 0x00 , 0x00 ,
 0x00 , 0x00 , 0x00 , 0x00 , 0x54 , 0xbb , 0x06 , 0x00 , 0x00 , 0x00 , 0x08 , 0x00 , 0x00 , 0x00 , 0x00 , 0x40 , 0x00 , 0x00 ,
 0x00 , 0x00 , 0x00 , 0x00 , 0xa8 , 0xea , 0x03 , 0x00 , 0x00 , 0x00 , 0x00 , 0x00 , 0x00 , 0x00 , 0x00 , 0x00 , 0x00 , 0x00 ,
 0x00 , 0x00 , 0x00 , 0x00 , 0x72 , 0xdd , 0x01 , 0x00 , 0x00 , 0x00 , 0x08 , 0x00 , 0x00 , 0x00 , 0x00 , 0x20 , 0x00 , 0x00 ,
 0x00 , 0x00 , 0x00 , 0x40 , 0xad , 0x76 , 0x01 , 0x00 , 0x00 , 0x00 , 0x08 , 0x00 , 0x00 , 0x00 , 0x00 , 0x00 , 0x00 , 0x00 ,
 0x00 , 0x00 , 0x00 , 0x80 , 0xbe , 0xfb , 0x00 , 0x00 , 0x00 , 0x00 , 0x00 , 0x00 , 0x00 , 0x00 , 0x00 , 0x20 , 0x00 , 0x00 ,
 0x00 , 0x00 , 0x00 , 0x20 , 0x29 , 0x5e , 0x00 , 0x00 , 0x00 , 0x00 , 0x0c , 0x00 , 0x00 , 0x00 , 0x00 , 0x00 , 0x00 , 0x00 ,
 0x00 , 0x00 , 0x00 , 0xa0 , 0x1e , 0x10 , 0x00 , 0x00 , 0x00 , 0x00 , 0x31 , 0x00 , 0x00 , 0x00 , 0x04 , 0x10 , 0x00 , 0x00 ,
 0x00 , 0x00 , 0x00 , 0xc0 , 0x0b , 0x10 , 0x00 , 0x00 , 0x00 , 0x20 , 0xca , 0x00 , 0x00 , 0x00 , 0x04 , 0x04 , 0x00 , 0x00 ,
 0x00 , 0x00 , 0x00 , 0x00 , 0x02 , 0x20 , 0x00 , 0x00 , 0x00 , 0x40 , 0xd0 , 0x01 , 0x00 , 0x00 , 0x9a , 0x2a , 0x00 , 0x00 ,
 0x00 , 0x00 , 0x00 , 0x00 , 0x00 , 0x10 , 0x00 , 0x00 , 0x00 , 0x10 , 0x54 , 0x01 , 0x00 , 0x80 , 0x14 , 0x54 , 0x00 , 0x00 ,
 0x00 , 0x00 , 0x00 , 0x00 , 0x00 , 0x20 , 0x00 , 0x00 , 0x00 , 0xaa , 0xa8 , 0x03 , 0x00 , 0x80 , 0x4b , 0x69 , 0x00 , 0x00 ,
 0x00 , 0x00 , 0x00 , 0x00 , 0x00 , 0xd0 , 0x00 , 0x00 , 0x00 , 0x0a , 0xfd , 0x02 , 0x00 , 0xa0 , 0x06 , 0xea , 0x00 , 0x00 ,
 0x00 , 0x00 , 0x00 , 0x00 , 0x00 , 0xfc , 0x03 , 0x00 , 0x80 , 0xa8 , 0xd6 , 0x03 , 0x00 , 0x90 , 0x10 , 0xd4 , 0x00 , 0x00 ,
 0x00 , 0x00 , 0x00 , 0x00 , 0x00 , 0xde , 0x07 , 0x00 , 0x00 , 0x55 , 0x6d , 0x01 , 0x00 , 0x60 , 0x60 , 0xb7 , 0x00 , 0x00 ,
 0x00 , 0x00 , 0x00 , 0x00 , 0x00 , 0xf7 , 0x0f , 0x00 , 0x00 , 0x5b , 0xf5 , 0x03 , 0x00 , 0x17 , 0x90 , 0xed , 0x01 , 0x00 ,
 0x00 , 0x00 , 0x00 , 0x00 , 0x00 , 0xf7 , 0x0e , 0x00 , 0x00 , 0x56 , 0xdb , 0x04 , 0xc0 , 0x3f , 0x60 , 0xfb , 0x00 , 0x00 ,
 0x00 , 0x00 , 0x00 , 0x00 , 0x80 , 0xe7 , 0x1f , 0x00 , 0x00 , 0x80 , 0xfe , 0x50 , 0xe0 , 0x3f , 0xad , 0xd6 , 0x00 , 0x00 ,
 0x00 , 0x00 , 0x00 , 0x00 , 0x80 , 0xfd , 0x1f , 0x00 , 0x00 , 0xc0 , 0x37 , 0x80 , 0x72 , 0x3b , 0xfa , 0x7d , 0x00 , 0x00 ,
 0x00 , 0x00 , 0x00 , 0x00 , 0x80 , 0xff , 0x1f , 0x00 , 0x00 , 0x20 , 0x2e , 0x00 , 0x38 , 0x3f , 0x55 , 0xb7 , 0x00 , 0x00 ,
 0x00 , 0x00 , 0x00 , 0x00 , 0x00 , 0xff , 0x0f , 0x00 , 0x00 , 0x10 , 0x00 , 0x00 , 0x78 , 0x7f , 0xea , 0x3d , 0x02 , 0x00 ,
 0x00 , 0xa0 , 0x00 , 0x00 , 0x80 , 0xbf , 0x1f , 0x00 , 0x10 , 0x08 , 0x00 , 0x00 , 0xf8 , 0xef , 0xbd , 0x06 , 0x04 , 0x04 ,
 0x00 , 0x40 , 0x00 , 0x00 , 0x00 , 0xfb , 0x4f , 0x00 , 0xe4 , 0x04 , 0x00 , 0x00 , 0xf8 , 0xff , 0xd5 , 0x00 , 0x10 , 0x18 ,
 0x00 , 0xd0 , 0x01 , 0x00 , 0x00 , 0xfe , 0x87 , 0x02 , 0x89 , 0x03 , 0x00 , 0x00 , 0xd8 , 0xfb , 0xea , 0x00 , 0x00 , 0x14 ,
 0x00 , 0x54 , 0x01 , 0x00 , 0x00 , 0xfd , 0x03 , 0x14 , 0x50 , 0x02 , 0x00 , 0x00 , 0xf8 , 0xff , 0xd4 , 0x00 , 0x00 , 0x15 ,
 0x00 , 0xfa , 0x00 , 0x00 , 0x40 , 0xb0 , 0x00 , 0xa0 , 0xd0 , 0x07 , 0x00 , 0x00 , 0xf0 , 0xfe , 0xb7 , 0x01 , 0x40 , 0x3d ,
 0x00 , 0xa5 , 0x00 , 0x00 , 0x20 , 0x00 , 0x00 , 0x00 , 0x91 , 0x02 , 0x00 , 0x00 , 0xe0 , 0x7f , 0xed , 0x00 , 0x50 , 0x0b ,
 0x00 , 0xda , 0x00 , 0x00 , 0x10 , 0x00 , 0x00 , 0x40 , 0x76 , 0x41 , 0x01 , 0x00 , 0xc0 , 0xbf , 0xfa , 0x05 , 0x80 , 0x1e ,
 0x00 , 0x76 , 0x02 , 0xba , 0x08 , 0x00 , 0x00 , 0x80 , 0x6c , 0x80 , 0x00 , 0x00 , 0x00 , 0x57 , 0xad , 0x50 , 0xb4 , 0x0a ,
 0x00 , 0x08 , 0x88 , 0xa0 , 0x02 , 0x00 , 0x00 , 0x40 , 0x55 , 0xa0 , 0x01 , 0x00 , 0x00 , 0x50 , 0xff , 0x00 , 0xe8 , 0x03 ,
 0x00 , 0x00 , 0x20 , 0xaa , 0x01 , 0x00 , 0x00 , 0x80 , 0xfa , 0x6c , 0x03 , 0x00 , 0x00 , 0xe0 , 0x35 , 0x00 , 0x56 , 0x00 ,
 0x00 , 0x00 , 0x80 , 0xa8 , 0x01 , 0x00 , 0x00 , 0x80 , 0x55 , 0xd8 , 0x02 , 0x00 , 0x00 , 0x80 , 0x1f , 0x80 , 0xe8 , 0x00 ,
 0x00 , 0x00 , 0x20 , 0x50 , 0x03 , 0x00 , 0x00 , 0x00 , 0xff , 0xd2 , 0x01 , 0x00 , 0x00 , 0x40 , 0x02 , 0x00 , 0xbb , 0x00 ,
 0x00 , 0x00 , 0x40 , 0xbd , 0x03 , 0x00 , 0x00 , 0x00 , 0xb5 , 0xb5 , 0x00 , 0x00 , 0x00 , 0x00 , 0x00 , 0x00 , 0x2c , 0x00 ,
 0x00 , 0x00 , 0x20 , 0xeb , 0x02 , 0x00 , 0x00 , 0x00 , 0x5c , 0xec , 0x00 , 0x00 , 0x00 , 0x20 , 0x00 , 0x00 , 0x00 , 0x00 ,
 0x00 , 0x00 , 0xa0 , 0xda , 0x03 , 0x00 , 0x00 , 0x00 , 0x00 , 0x28 , 0x00 , 0x00 , 0x00 , 0x10 , 0x00 , 0x00 , 0x00 , 0x00 ,
 0x00 , 0x00 , 0xa0 , 0x6a , 0x03 , 0x00 , 0x00 , 0x00 , 0x10 , 0x00 , 0x00 , 0x00 , 0x00 , 0x00 , 0x00 , 0x00 , 0x00 , 0x00 ,
 0x00 , 0x00 , 0x40 , 0xfd , 0x01 , 0x00 , 0x00 , 0x00 , 0x08 , 0x00 , 0x00 , 0x00 , 0x00 , 0x08 , 0x00 , 0x00 , 0x00 , 0x00 ,
 0x00 , 0x00 , 0xc0 , 0xda , 0x00 , 0x00 , 0x00 , 0x00 , 0x00 , 0x00 , 0x00 , 0x00 , 0x00 , 0x08 , 0x00 , 0x00 , 0x00 , 0x00 ,
 0x00 , 0x00 , 0x80 , 0x7b , 0x10 , 0x00 , 0x00 , 0x00 , 0x08 , 0x00 , 0x00 , 0x00 , 0xd0 , 0x05 , 0x00 , 0x00 , 0x00 , 0x00 ,
 0x00 , 0x00 , 0x00 , 0x58 , 0xff , 0x00 , 0x00 , 0x00 , 0x20 , 0x00 , 0x00 , 0x00 , 0x00 , 0x0a , 0x00 , 0x00 , 0x00 , 0x00 ,
 0x00 , 0x00 , 0x00 , 0x84 , 0xff , 0x01 , 0x00 , 0x00 , 0x60 , 0x00 , 0x00 , 0x00 , 0x54 , 0x0d , 0x00 , 0x00 , 0x00 , 0x00 ,
 0x00 , 0x00 , 0x00 , 0xd0 , 0xff , 0x03 , 0x00 , 0x00 , 0xc0 , 0x00 , 0x00 , 0x00 , 0x80 , 0x1a , 0x01 , 0x00 , 0x00 , 0x00 ,
 0x00 , 0x00 , 0x00 , 0xb4 , 0xfb , 0x07 , 0x00 , 0x00 , 0xba , 0x00 , 0x00 , 0x00 , 0x42 , 0xfd , 0x0f , 0x00 , 0x00 , 0x00 ,
 0x00 , 0x00 , 0x00 , 0xe5 , 0xfd , 0x07 , 0x00 , 0x00 , 0x6a , 0x00 , 0x00 , 0x00 , 0xaa , 0xd5 , 0x3f , 0x00 , 0x00 , 0x00 ,
 0x00 , 0x00 , 0xa0 , 0xda , 0xff , 0x07 , 0x00 , 0x00 , 0xd5 , 0x00 , 0x00 , 0x00 , 0x71 , 0xff , 0x3f , 0x00 , 0x00 , 0x00 ,
 0x00 , 0x00 , 0x00 , 0xea , 0xff , 0x0f , 0x00 , 0x80 , 0x74 , 0x00 , 0x00 , 0x00 , 0xca , 0xda , 0x7f , 0x00 , 0x00 , 0x00 ,
 0x00 , 0x00 , 0xa8 , 0xfa , 0xff , 0x07 , 0x00 , 0x00 , 0x5b , 0x00 , 0x00 , 0x00 , 0xaa , 0x3f , 0x7f , 0x00 , 0x00 , 0x00 ,
 0x00 , 0x00 , 0x00 , 0xc5 , 0xff , 0x07 , 0x00 , 0x00 , 0x16 , 0x00 , 0x00 , 0x00 , 0xda , 0xea , 0xff , 0x00 , 0x00 , 0x00 ,
 0x00 , 0x00 , 0x14 , 0xd5 , 0xff , 0x07 , 0x00 , 0x00 , 0x00 , 0x00 , 0x40 , 0x00 , 0x75 , 0xff , 0x7f , 0x00 , 0x00 , 0x00 ,
 0x00 , 0x00 , 0xc8 , 0xf6 , 0xff , 0x03 , 0x00 , 0x00 , 0x00 , 0x00 , 0xf8 , 0x47 , 0xdd , 0xf7 , 0xff , 0x00 , 0x00 , 0x00 ,
 0x00 , 0x00 , 0x64 , 0x3b , 0xf3 , 0x01 , 0x00 , 0x00 , 0x00 , 0x00 , 0xfc , 0x4f , 0xf0 , 0xfa , 0x7f , 0x00 , 0x00 , 0x00 ,
 0x00 , 0x00 , 0xd4 , 0x6e , 0x7a , 0x00 , 0x00 , 0x00 , 0x00 , 0x00 , 0xfe , 0x1f , 0x00 , 0xf8 , 0x7f , 0x00 , 0x00 , 0x00 ,
 0x00 , 0x00 , 0x54 , 0x3b , 0x10 , 0x00 , 0x00 , 0x00 , 0x00 , 0x00 , 0xee , 0x3f , 0x00 , 0xf8 , 0x3f , 0x00 , 0x00 , 0x00 ,
 0x00 , 0x00 , 0xa8 , 0x3d , 0x20 , 0x00 , 0x00 , 0x00 , 0x00 , 0x00 , 0xef , 0x1f , 0x00 , 0xf0 , 0x1f , 0x00 , 0x00 , 0x00 ,
 0x00 , 0x00 , 0x78 , 0x2f , 0x28 , 0x00 , 0x00 , 0x00 , 0x00 , 0x00 , 0xff , 0x3f , 0x00 , 0xc0 , 0x07 , 0x00 , 0x00 , 0x00 ,
 0x00 , 0x00 , 0xd0 , 0x0f , 0x52 , 0x00 , 0x00 , 0x00 , 0x00 , 0x00 , 0xff , 0x3f , 0x00 , 0x10 , 0x00 , 0x00 , 0x00 , 0x00 ,
 0x00 , 0x00 , 0xa0 , 0x01 , 0x7d , 0x00 , 0x00 , 0x00 , 0x00 , 0x00 , 0xfe , 0x3f , 0x00 , 0x10 , 0x00 , 0x00 , 0x00 , 0x00 ,
 0x00 , 0x00 , 0x08 , 0x80 , 0x56 , 0x00 , 0x00 , 0x00 , 0x00 , 0x00 , 0xff , 0x1f , 0x00 , 0x08 , 0x00 , 0x00 , 0x00 , 0x00 ,
 0x00 , 0x00 , 0x04 , 0x20 , 0x39 , 0x00 , 0x00 , 0x00 , 0x00 , 0x00 , 0xfe , 0x1f , 0x00 , 0x30 , 0x00 , 0x00 , 0x00 , 0x00 ,
 0x00 , 0x08 , 0x00 , 0x40 , 0x2d , 0x00 , 0x00 , 0x00 , 0x00 , 0x00 , 0xfc , 0x0f , 0x00 , 0x15 , 0x00 , 0x00 , 0x00 , 0x00 ,
 0x00 , 0x7f , 0x01 , 0x80 , 0x1f , 0x00 , 0x00 , 0x00 , 0x00 , 0x00 , 0xf8 , 0x07 , 0x00 , 0x76 , 0x00 , 0x00 , 0x00 , 0x00 ,
 0x80 , 0xff , 0x01 , 0x00 , 0x00 , 0x00 , 0x00 , 0x00 , 0x00 , 0x00 , 0xf0 , 0x01 , 0x80 , 0x1a , 0x00 , 0x00 , 0x00 , 0x00 ,
 0xc0 , 0xff , 0x01 , 0x00 , 0x00 , 0x00 , 0x00 , 0x00 , 0x00 , 0x00 , 0x00 , 0x00 , 0x20 , 0x35 , 0x00 , 0x00 , 0x00 , 0x00 ,
 0xc0 , 0xfd , 0x03 , 0x00 , 0x00 , 0x00 , 0x00 , 0x00 , 0x00 , 0x00 , 0x00 , 0x00 , 0x40 , 0x1d , 0x00 , 0x00 , 0x00 , 0x00 ,
 0xe0 , 0xfd , 0x03 , 0x00 , 0x00 , 0x00 , 0x00 , 0x00 , 0x00 , 0x00 , 0x00 , 0x00 , 0xc0 , 0x17 , 0x00 , 0x00 , 0x00 , 0x00 ,
 0xe0 , 0xff , 0x07 , 0x00 , 0x00 , 0x00 , 0x00 , 0x00 , 0x00 , 0x00 , 0x00 , 0x00 , 0x00 , 0x00 , 0x00 , 0x00 , 0x00 , 0x00 ,
 0xe0 , 0xff , 0x07 , 0x00 , 0x00 , 0x00 , 0x00 , 0x00 , 0x00 , 0x00 , 0x00 , 0x00 , 0x00 , 0x00 , 0x00 , 0x00 , 0x00 , 0x00 ,
 0xe0 , 0xff , 0x03 , 0x00 , 0x00 , 0x00 , 0x00 , 0x00 , 0x00 , 0x00 , 0x00 , 0x00 , 0x00 , 0x00 , 0x00 , 0x00 , 0x00 , 0x00 ,
 0xe0 , 0xff , 0x03 , 0x00 , 0x00 , 0x00 , 0x00 , 0x00 , 0x00 , 0x00 , 0x00 , 0x00 , 0x00 , 0x00 , 0x00 , 0x00 , 0x00 , 0x00 ,
 0xc0 , 0xff , 0x03 , 0x00 , 0x00 , 0x00 , 0x00 , 0x00 , 0x00 , 0x00 , 0x00 , 0x00 , 0x00 , 0x00 , 0x00 , 0x00 , 0x00 , 0x00 ,
 0x80 , 0xff , 0x01 , 0x00 , 0x00 , 0x00 , 0x00 , 0x00 , 0x00 , 0x00 , 0x00 , 0x00 , 0x00 , 0x00 , 0x00 , 0x00 , 0x00 , 0x00 ,
 0x80 , 0xff , 0x00 , 0x00 , 0x00 , 0x00 , 0x00 , 0x00 , 0x00 , 0x00 , 0x00 , 0x00 , 0x00 , 0x00 , 0x00 , 0x00 , 0x00 , 0x00 ,
 0x00 , 0x3e , 0x00 , 0x00 , 0x00 , 0x00 , 0x00 , 0x00 , 0x00 , 0x00 , 0x00 , 0x00 , 0x00 , 0x00 , 0x00 , 0x00 , 0x00 , 0x00 ,
 0x00 , 0x00 , 0x00 , 0x00 , 0x00 , 0x00 , 0x00 , 0x00 , 0x00 , 0x00 , 0x00 , 0x00 , 0x00 , 0x00 , 0x00 , 0x00 , 0x00 , 0x00 }; 
