#define NAA-2_xbm_width 196 
#define NAA-2_xbm_height 102 
static unsigned char NAA-2_xbm_bits[] = { 
 0x00 , 0x00 , 0x00 , 0x00 , 0x00 , 0x00 , 0x00 , 0x00 , 0x00 , 0x00 , 0x00 , 0x00 , 0x00 , 0x00 , 0x00 , 0x00 , 0x00 , 0x00 , 0x00 , 0x00 , 0x00 , 0x00 , 0x00 , 0x00 , 0x00 ,
 0x00 , 0x00 , 0x00 , 0x00 , 0x00 , 0x00 , 0x00 , 0x00 , 0x00 , 0x00 , 0x00 , 0x00 , 0x00 , 0x00 , 0x00 , 0x00 , 0x00 , 0x80 , 0x76 , 0x05 , 0x00 , 0x00 , 0x00 , 0x00 , 0x00 ,
 0x00 , 0x00 , 0x00 , 0x00 , 0x00 , 0x00 , 0x00 , 0x00 , 0x00 , 0x00 , 0x00 , 0x00 , 0x00 , 0x00 , 0x00 , 0x00 , 0x00 , 0xf8 , 0xff , 0x3f , 0x00 , 0x00 , 0x00 , 0x00 , 0x00 ,
 0x00 , 0x00 , 0x00 , 0x00 , 0x00 , 0x00 , 0x00 , 0x00 , 0x00 , 0x00 , 0x00 , 0x00 , 0x00 , 0x00 , 0x00 , 0x00 , 0x00 , 0xd5 , 0xb6 , 0xff , 0x01 , 0x00 , 0x00 , 0x00 , 0x00 ,
 0x00 , 0x00 , 0x00 , 0x00 , 0x00 , 0x00 , 0x00 , 0x00 , 0x00 , 0x00 , 0x00 , 0x00 , 0x00 , 0x00 , 0x00 , 0x00 , 0x40 , 0x6d , 0xdb , 0xea , 0x0f , 0x00 , 0x00 , 0x00 , 0x00 ,
 0x00 , 0x00 , 0x00 , 0x00 , 0x00 , 0x00 , 0x00 , 0x00 , 0x00 , 0x00 , 0x00 , 0x00 , 0x00 , 0x00 , 0x00 , 0x00 , 0x58 , 0xb5 , 0xb6 , 0xbf , 0x1b , 0x00 , 0x00 , 0x00 , 0x00 ,
 0x00 , 0x00 , 0x00 , 0x00 , 0x00 , 0x00 , 0x00 , 0x00 , 0x00 , 0x00 , 0x00 , 0x00 , 0x00 , 0x00 , 0x00 , 0x00 , 0x56 , 0x55 , 0x55 , 0xe9 , 0x76 , 0x00 , 0x00 , 0x00 , 0x00 ,
 0x00 , 0x00 , 0x00 , 0x00 , 0x00 , 0x00 , 0x00 , 0x00 , 0x00 , 0x00 , 0x00 , 0x00 , 0x80 , 0x02 , 0x00 , 0x00 , 0xa5 , 0xaa , 0xaa , 0x56 , 0x4f , 0x01 , 0x00 , 0x00 , 0x00 ,
 0x00 , 0x00 , 0x00 , 0x00 , 0x00 , 0x00 , 0x00 , 0x00 , 0x00 , 0x00 , 0x00 , 0x00 , 0xf4 , 0x7e , 0x00 , 0xc0 , 0x2a , 0x89 , 0xa4 , 0xaa , 0x75 , 0x03 , 0x00 , 0x00 , 0x00 ,
 0x00 , 0x00 , 0x00 , 0x00 , 0x00 , 0x00 , 0x00 , 0x00 , 0x00 , 0x00 , 0x00 , 0x00 , 0x5d , 0xab , 0x07 , 0x20 , 0x90 , 0x24 , 0x49 , 0x6a , 0xdd , 0x07 , 0x00 , 0x00 , 0x00 ,
 0x00 , 0x00 , 0x00 , 0x00 , 0x00 , 0x00 , 0x00 , 0x00 , 0x00 , 0x00 , 0x00 , 0x40 , 0xeb , 0x76 , 0x5d , 0x08 , 0x4a , 0x40 , 0x90 , 0x48 , 0x6b , 0x1d , 0x00 , 0x00 , 0x00 ,
 0x00 , 0x00 , 0x00 , 0x00 , 0x00 , 0x00 , 0x00 , 0x00 , 0x00 , 0x00 , 0x00 , 0xf0 , 0x5e , 0xad , 0xd2 , 0x56 , 0x04 , 0x15 , 0x05 , 0x95 , 0xd4 , 0x1f , 0x00 , 0x00 , 0x00 ,
 0x00 , 0x00 , 0x00 , 0x00 , 0x00 , 0x00 , 0x00 , 0x00 , 0x00 , 0x00 , 0x00 , 0x5c , 0xd5 , 0xaa , 0x95 , 0xaa , 0x52 , 0x00 , 0x50 , 0x20 , 0xb5 , 0x3a , 0x00 , 0x00 , 0x00 ,
 0x00 , 0x00 , 0x00 , 0x00 , 0x00 , 0x00 , 0x00 , 0x00 , 0x00 , 0x00 , 0x00 , 0xf6 , 0xab , 0x56 , 0xa5 , 0x4a , 0x04 , 0xa5 , 0x04 , 0x55 , 0xaa , 0x7d , 0x00 , 0x00 , 0x00 ,
 0x00 , 0x00 , 0x00 , 0x00 , 0x00 , 0x00 , 0x00 , 0x00 , 0x00 , 0x00 , 0x00 , 0xaf , 0x5a , 0xb5 , 0x2a , 0xb5 , 0xaa , 0x10 , 0x20 , 0x80 , 0xa4 , 0xf6 , 0x00 , 0x00 , 0x00 ,
 0x00 , 0x00 , 0x00 , 0x00 , 0x00 , 0x00 , 0x00 , 0x00 , 0x00 , 0x00 , 0x80 , 0x5d , 0xd5 , 0xaa , 0x2d , 0x55 , 0x25 , 0x45 , 0x89 , 0x24 , 0xa9 , 0xda , 0x00 , 0x00 , 0x00 ,
 0x00 , 0x00 , 0x00 , 0x00 , 0x00 , 0x00 , 0x00 , 0x00 , 0x00 , 0x00 , 0xe0 , 0xeb , 0xb6 , 0x6a , 0x55 , 0xb5 , 0xaa , 0x08 , 0x02 , 0x00 , 0x44 , 0xf5 , 0x01 , 0x00 , 0x00 ,
 0x00 , 0x00 , 0x00 , 0x00 , 0x00 , 0x00 , 0x00 , 0x00 , 0x00 , 0x00 , 0x60 , 0x5d , 0x55 , 0x55 , 0x55 , 0x55 , 0x55 , 0x55 , 0x54 , 0x55 , 0x91 , 0x5a , 0x03 , 0x00 , 0x00 ,
 0x00 , 0x00 , 0x00 , 0x00 , 0x00 , 0x00 , 0x00 , 0x00 , 0x00 , 0x00 , 0xf0 , 0xab , 0xaa , 0xaa , 0xb6 , 0xda , 0x2a , 0x49 , 0x01 , 0x00 , 0x24 , 0xd5 , 0x03 , 0x00 , 0x00 ,
 0x00 , 0x00 , 0x00 , 0x00 , 0x00 , 0x00 , 0x00 , 0x00 , 0x00 , 0x00 , 0x58 , 0x6d , 0xab , 0xaa , 0x55 , 0xb5 , 0xad , 0xaa , 0xaa , 0x92 , 0x90 , 0x6a , 0x03 , 0x00 , 0x00 ,
 0x00 , 0x00 , 0x00 , 0x00 , 0x00 , 0x00 , 0x00 , 0x00 , 0x00 , 0x00 , 0xfc , 0xda , 0xaa , 0x5a , 0xd5 , 0x6e , 0x6b , 0x95 , 0x24 , 0x04 , 0x42 , 0xd4 , 0x07 , 0x00 , 0x00 ,
 0x00 , 0x00 , 0x00 , 0x00 , 0x00 , 0x00 , 0x00 , 0x00 , 0x00 , 0x00 , 0x56 , 0x57 , 0x55 , 0x55 , 0xad , 0x55 , 0x55 , 0x55 , 0x49 , 0x51 , 0x14 , 0xa9 , 0x06 , 0x00 , 0x00 ,
 0x00 , 0x00 , 0x00 , 0x00 , 0x00 , 0x00 , 0x00 , 0x80 , 0x04 , 0x00 , 0xfd , 0x5a , 0xad , 0xaa , 0x6a , 0x6d , 0x5b , 0x55 , 0x2a , 0x85 , 0x40 , 0xaa , 0x05 , 0x00 , 0x00 ,
 0x00 , 0x00 , 0x00 , 0x00 , 0x00 , 0x00 , 0x00 , 0xfc , 0xff , 0x40 , 0x57 , 0xb7 , 0xd5 , 0xaa , 0x55 , 0xdb , 0xd6 , 0xaa , 0x4a , 0x2a , 0x95 , 0xa4 , 0x0e , 0x00 , 0x00 ,
 0x00 , 0x00 , 0x00 , 0x00 , 0x00 , 0x00 , 0x80 , 0xb7 , 0xbb , 0xff , 0xfd , 0x6a , 0xb5 , 0xaa , 0x5a , 0xb5 , 0xaa , 0xaa , 0x52 , 0x51 , 0x20 , 0xa9 , 0x0d , 0x00 , 0x00 ,
 0x00 , 0x00 , 0x00 , 0x00 , 0x00 , 0x00 , 0x60 , 0xfb , 0xee , 0x7f , 0x57 , 0x5b , 0x4d , 0x55 , 0xd5 , 0xd6 , 0xb6 , 0x56 , 0x55 , 0x8a , 0x8a , 0x24 , 0x0b , 0x00 , 0x00 ,
 0x00 , 0x00 , 0x00 , 0x00 , 0x00 , 0x00 , 0xe8 , 0xae , 0xbb , 0xea , 0xfd , 0xd6 , 0xaa , 0xaa , 0xb6 , 0x5a , 0x55 , 0x55 , 0x95 , 0x52 , 0x52 , 0xca , 0x0e , 0x00 , 0x00 ,
 0x00 , 0x00 , 0x00 , 0x00 , 0x00 , 0x00 , 0xbe , 0xdb , 0x56 , 0x5f , 0x57 , 0xad , 0x56 , 0xb5 , 0x55 , 0xb5 , 0xad , 0x6a , 0x55 , 0x95 , 0x94 , 0x28 , 0x0d , 0x00 , 0x00 ,
 0x00 , 0x00 , 0x00 , 0x00 , 0x00 , 0xc0 , 0xeb , 0xb6 , 0x55 , 0xd0 , 0xdd , 0xdb , 0x6a , 0x4d , 0x55 , 0x6b , 0x6b , 0xfd , 0xab , 0xa4 , 0x2a , 0xd3 , 0x0a , 0x00 , 0x00 ,
 0x00 , 0x00 , 0x00 , 0x00 , 0x00 , 0x54 , 0x5f , 0x6d , 0xad , 0xaa , 0xb6 , 0xb6 , 0x5a , 0x55 , 0xd5 , 0xd6 , 0xaa , 0xde , 0x96 , 0x2a , 0xa5 , 0x94 , 0x0e , 0x00 , 0x00 ,
 0x00 , 0x00 , 0x00 , 0x00 , 0x52 , 0xf3 , 0xfa , 0x5b , 0x2b , 0xa1 , 0xed , 0xad , 0x55 , 0x55 , 0xb5 , 0x5a , 0x55 , 0xf7 , 0xaf , 0x4a , 0xa9 , 0x6a , 0x15 , 0x00 , 0x00 ,
 0x00 , 0x00 , 0x00 , 0xf5 , 0xad , 0xdc , 0x57 , 0xb5 , 0x5a , 0x4d , 0x5b , 0x6b , 0xad , 0xaa , 0xaa , 0xaa , 0xad , 0xbf , 0x2a , 0xa9 , 0xaa , 0xaa , 0x0e , 0x00 , 0x00 ,
 0x00 , 0x00 , 0xd0 , 0x96 , 0x6a , 0x7b , 0xad , 0xae , 0xd5 , 0xaa , 0x76 , 0x5d , 0xab , 0xab , 0xaa , 0x5a , 0x55 , 0xff , 0x5f , 0x55 , 0x55 , 0xad , 0x15 , 0x00 , 0x00 ,
 0x00 , 0x00 , 0xb6 , 0x6d , 0xd5 , 0xee , 0x7b , 0x55 , 0xad , 0x6a , 0xad , 0xab , 0x6a , 0x55 , 0x55 , 0xd5 , 0xaa , 0xdb , 0xaa , 0x24 , 0xa9 , 0x5a , 0x0b , 0x00 , 0x00 ,
 0x00 , 0x80 , 0x5a , 0x55 , 0xb5 , 0xbb , 0xd6 , 0xaa , 0xaa , 0xda , 0x5a , 0xb5 , 0x5a , 0xab , 0xaa , 0xaa , 0xd6 , 0xff , 0x4f , 0x49 , 0x4a , 0xf5 , 0x0e , 0x00 , 0x00 ,
 0x00 , 0xa0 , 0xb7 , 0x55 , 0xad , 0x6e , 0xad , 0x56 , 0xd5 , 0x56 , 0xf7 , 0xae , 0xd5 , 0xaa , 0xaa , 0xb6 , 0x55 , 0xb7 , 0x2d , 0x92 , 0x52 , 0xa8 , 0x0b , 0x00 , 0x00 ,
 0x00 , 0x70 , 0x55 , 0x55 , 0xd5 , 0xdb , 0xab , 0x55 , 0xb5 , 0xaa , 0x54 , 0x55 , 0x55 , 0x95 , 0x54 , 0x55 , 0x55 , 0xff , 0xa7 , 0xa4 , 0x94 , 0xd2 , 0x0e , 0x00 , 0x00 ,
 0x00 , 0xdc , 0xb6 , 0xaa , 0x6a , 0xbf , 0x5a , 0x55 , 0x55 , 0x55 , 0xdb , 0x6a , 0x55 , 0xa5 , 0xaa , 0xaa , 0xaa , 0xb6 , 0x0a , 0x09 , 0x29 , 0xa1 , 0x0f , 0x00 , 0x80 ,
 0x00 , 0xb6 , 0xad , 0x12 , 0xd5 , 0x6a , 0x55 , 0x55 , 0x55 , 0xd5 , 0xb6 , 0xad , 0xaa , 0xaa , 0x52 , 0x55 , 0x55 , 0xfd , 0x51 , 0x52 , 0x42 , 0x8a , 0x1a , 0x00 , 0x80 ,
 0x00 , 0x6f , 0x55 , 0xa5 , 0xba , 0xd7 , 0xb6 , 0xaa , 0xaa , 0xaa , 0xaa , 0xaa , 0xaa , 0x52 , 0x2a , 0x55 , 0x95 , 0x56 , 0x8a , 0x00 , 0x94 , 0x40 , 0x1f , 0x00 , 0x00 ,
 0x80 , 0xd5 , 0xaa , 0x4a , 0x65 , 0xbd , 0x55 , 0x91 , 0x2a , 0x55 , 0xb5 , 0x55 , 0x55 , 0x95 , 0x52 , 0x55 , 0xa5 , 0x84 , 0x20 , 0xa4 , 0x20 , 0x15 , 0x1d , 0x00 , 0x70 ,
 0xc0 , 0xbf , 0x56 , 0xa9 , 0xda , 0xab , 0xaa , 0x2a , 0x49 , 0x55 , 0x6d , 0xad , 0x4a , 0xaa , 0x94 , 0xaa , 0x2a , 0x55 , 0x0a , 0x01 , 0x42 , 0x42 , 0x3a , 0x00 , 0x00 ,
 0x60 , 0xa5 , 0xa9 , 0x92 , 0x54 , 0x6d , 0x55 , 0x40 , 0x55 , 0x55 , 0x55 , 0xab , 0x52 , 0x25 , 0xa5 , 0x54 , 0x55 , 0x22 , 0x40 , 0x08 , 0x88 , 0x14 , 0x7a , 0x00 , 0xc0 ,
 0xf0 , 0x5b , 0x55 , 0xaa , 0xea , 0x5a , 0x95 , 0x4a , 0xaa , 0x92 , 0xaa , 0xaa , 0xaa , 0x4a , 0xa9 , 0xaa , 0xaa , 0x94 , 0x04 , 0x40 , 0x20 , 0xa0 , 0xf4 , 0x00 , 0x10 ,
 0xb0 , 0xb6 , 0xaa , 0x24 , 0x55 , 0xd7 , 0x2a , 0x20 , 0x49 , 0xaa , 0xda , 0xaa , 0x4a , 0x95 , 0x4a , 0xa5 , 0x2a , 0x05 , 0x10 , 0x02 , 0x02 , 0x15 , 0xd5 , 0x01 , 0x60 ,
 0xf8 , 0x55 , 0x95 , 0x4a , 0xa9 , 0x5a , 0x55 , 0x89 , 0x52 , 0x95 , 0xaa , 0xaa , 0x54 , 0x25 , 0x95 , 0x54 , 0x4b , 0x4a , 0x82 , 0x00 , 0x10 , 0xa0 , 0xf4 , 0x03 , 0x80 ,
 0x58 , 0xad , 0x2a , 0xa9 , 0xea , 0x56 , 0x25 , 0x22 , 0x55 , 0x89 , 0x5a , 0x55 , 0xa5 , 0x4a , 0x25 , 0xd5 , 0x2a , 0x05 , 0x00 , 0x20 , 0x80 , 0x04 , 0xd5 , 0x07 , 0xb0 ,
 0xbc , 0xab , 0xa2 , 0x12 , 0xaa , 0x55 , 0x55 , 0x51 , 0xaa , 0x92 , 0xaa , 0x55 , 0x69 , 0x85 , 0xaa , 0xaa , 0x4a , 0x49 , 0x10 , 0x00 , 0x09 , 0x50 , 0x6a , 0x0f , 0x90 ,
 0x74 , 0x55 , 0x15 , 0xa4 , 0x54 , 0x55 , 0x95 , 0x44 , 0x55 , 0x95 , 0x6a , 0x55 , 0x4a , 0x55 , 0x55 , 0x55 , 0x55 , 0x0a , 0x04 , 0x04 , 0x00 , 0x81 , 0xd4 , 0x1f , 0xc0 ,
 0xdc , 0xaa , 0xa4 , 0x49 , 0xa9 , 0xaa , 0x52 , 0x92 , 0x7a , 0x4a , 0x55 , 0x95 , 0xaa , 0x22 , 0x55 , 0xa5 , 0x42 , 0x05 , 0x01 , 0x41 , 0x20 , 0x24 , 0xa9 , 0x1e , 0xf0 ,
 0xb6 , 0x15 , 0x29 , 0x12 , 0x52 , 0xad , 0xa4 , 0xa4 , 0x6a , 0x91 , 0x5a , 0x55 , 0x65 , 0x49 , 0xa7 , 0x54 , 0x95 , 0x22 , 0x40 , 0x10 , 0x02 , 0x00 , 0xea , 0x3b , 0x30 ,
 0x5e , 0x55 , 0x92 , 0xa4 , 0xa4 , 0xaa , 0x4a , 0x2a , 0x5d , 0x56 , 0x55 , 0x55 , 0x89 , 0xa8 , 0x4a , 0x49 , 0xa9 , 0x02 , 0x00 , 0x00 , 0x88 , 0x48 , 0x94 , 0x7e , 0x90 ,
 0x76 , 0x0b , 0x49 , 0x89 , 0xa8 , 0x2a , 0x95 , 0x48 , 0x95 , 0xa8 , 0xaa , 0xaa , 0x2a , 0xa9 , 0x13 , 0x92 , 0x42 , 0x08 , 0x08 , 0x42 , 0x00 , 0x82 , 0xd0 , 0xfd , 0x60 ,
 0xae , 0x22 , 0x24 , 0x52 , 0x21 , 0x55 , 0x29 , 0x55 , 0x56 , 0x4b , 0xb5 , 0x55 , 0x52 , 0x52 , 0xa9 , 0x2a , 0x95 , 0x02 , 0x41 , 0x08 , 0x91 , 0x10 , 0x2a , 0xef , 0x20 ,
 0xde , 0x0a , 0x90 , 0x04 , 0x49 , 0xa5 , 0x42 , 0xa9 , 0xaa , 0x94 , 0xaa , 0xaa , 0x54 , 0xd5 , 0x52 , 0x49 , 0x00 , 0x41 , 0x00 , 0x40 , 0x04 , 0x40 , 0xd0 , 0xfa , 0x41 ,
 0xab , 0x8a , 0x22 , 0x51 , 0xa1 , 0x2a , 0x54 , 0xaa , 0x3a , 0xa9 , 0xaa , 0x4a , 0x95 , 0x14 , 0x84 , 0x92 , 0x42 , 0x04 , 0x88 , 0x12 , 0x20 , 0x05 , 0x25 , 0xff , 0x01 ,
 0x7e , 0x25 , 0x14 , 0xaa , 0x42 , 0xa4 , 0x25 , 0x95 , 0x66 , 0xa5 , 0x6a , 0x55 , 0xa5 , 0xaa , 0x29 , 0x25 , 0x00 , 0x14 , 0x22 , 0x80 , 0x02 , 0x10 , 0x48 , 0xf5 , 0xf3 ,
 0x56 , 0x95 , 0x40 , 0x51 , 0x95 , 0x4a , 0x4a , 0x54 , 0x5d , 0x29 , 0x55 , 0x55 , 0x55 , 0x2d , 0xaa , 0x48 , 0x01 , 0x94 , 0x00 , 0x2a , 0x28 , 0x41 , 0x51 , 0xbd , 0xb3 ,
 0x6e , 0x2b , 0x95 , 0xd4 , 0xa2 , 0xaa , 0x8a , 0xaa , 0x6a , 0x4a , 0xad , 0xaa , 0xaa , 0xa6 , 0x92 , 0x2a , 0x20 , 0x18 , 0x48 , 0x00 , 0x01 , 0x04 , 0x44 , 0xfb , 0x37 ,
 0xda , 0x52 , 0x24 , 0xa8 , 0x40 , 0x49 , 0x55 , 0x55 , 0x7b , 0x55 , 0x55 , 0xd5 , 0x52 , 0x95 , 0x24 , 0x45 , 0x09 , 0xb1 , 0x12 , 0x49 , 0x24 , 0x50 , 0x92 , 0xf6 , 0xb7 ,
 0xae , 0x8a , 0x92 , 0x02 , 0x40 , 0x95 , 0x52 , 0xa9 , 0xd6 , 0x55 , 0x5d , 0x55 , 0xb5 , 0x22 , 0xa9 , 0x28 , 0x00 , 0xd0 , 0x2e , 0x04 , 0x81 , 0x00 , 0xa8 , 0xdc , 0x77 ,
 0xbc , 0xaa , 0x24 , 0x54 , 0x92 , 0xa0 , 0x0a , 0xaa , 0x3d , 0xab , 0x6a , 0xb5 , 0xed , 0x54 , 0x4a , 0x45 , 0x00 , 0xb4 , 0x5a , 0x51 , 0x14 , 0xa0 , 0x42 , 0xfb , 0x76 ,
 0xd4 , 0x2a , 0x49 , 0x01 , 0x00 , 0xab , 0xaa , 0x50 , 0x55 , 0x5e , 0xdb , 0x6b , 0x55 , 0x95 , 0x52 , 0x15 , 0x49 , 0xd0 , 0xb5 , 0x84 , 0x00 , 0x08 , 0x28 , 0xb5 , 0x77 ,
 0xbc , 0xaa , 0x12 , 0xaa , 0xa4 , 0x54 , 0x05 , 0xa5 , 0x96 , 0xa8 , 0x3a , 0x55 , 0xfb , 0x55 , 0x55 , 0x2a , 0x00 , 0xbd , 0x6f , 0x91 , 0x0a , 0x80 , 0x42 , 0xfd , 0xff ,
 0xa8 , 0x95 , 0xa4 , 0x00 , 0x00 , 0xa9 , 0x56 , 0x88 , 0xa8 , 0xaa , 0x55 , 0x55 , 0x55 , 0xab , 0xaa , 0x8a , 0x00 , 0x68 , 0xdd , 0x25 , 0x20 , 0x00 , 0xa8 , 0xea , 0x87 ,
 0x78 , 0x25 , 0x09 , 0x95 , 0x12 , 0x4a , 0x81 , 0x22 , 0x45 , 0xb5 , 0xaa , 0xa4 , 0x5e , 0xa5 , 0xa5 , 0x12 , 0x24 , 0xda , 0xab , 0x47 , 0x15 , 0xa0 , 0x92 , 0xbe , 0xc7 ,
 0x50 , 0x55 , 0x52 , 0x00 , 0x40 , 0x54 , 0x15 , 0x48 , 0x28 , 0x6a , 0x55 , 0xa9 , 0xa2 , 0x6a , 0x49 , 0x45 , 0x80 , 0x74 , 0xef , 0x9a , 0x82 , 0x08 , 0xa4 , 0xf4 , 0xaf ,
 0xd0 , 0xaa , 0x84 , 0xaa , 0x04 , 0x21 , 0xa1 , 0x92 , 0x52 , 0xd5 , 0x55 , 0x44 , 0x55 , 0xad , 0x2a , 0x09 , 0x00 , 0xec , 0xdd , 0xa5 , 0x14 , 0xa1 , 0x92 , 0xf6 , 0x76 ,
 0xa0 , 0x2a , 0x29 , 0x00 , 0x50 , 0x4a , 0x06 , 0x00 , 0x44 , 0x55 , 0xab , 0x92 , 0x54 , 0xeb , 0xaa , 0x12 , 0x29 , 0xb9 , 0x77 , 0x09 , 0xa9 , 0x08 , 0xa9 , 0xda , 0xf7 ,
 0xa0 , 0x56 , 0x45 , 0x95 , 0x02 , 0xa1 , 0x24 , 0x55 , 0xa9 , 0xaa , 0xb6 , 0xa0 , 0xaa , 0x5a , 0x25 , 0x41 , 0x00 , 0xe8 , 0xde , 0x52 , 0x02 , 0xa2 , 0x44 , 0xfd , 0x57 ,
 0x00 , 0x95 , 0x28 , 0x00 , 0x48 , 0x12 , 0x05 , 0x48 , 0x92 , 0x6a , 0x6d , 0x57 , 0x55 , 0x55 , 0xaa , 0x0a , 0x48 , 0xb5 , 0x7b , 0x84 , 0x54 , 0x14 , 0xa9 , 0xea , 0x97 ,
 0x40 , 0xaa , 0x82 , 0x52 , 0x82 , 0xa4 , 0xaa , 0xa2 , 0xa4 , 0xaa , 0xd5 , 0xaa , 0xae , 0x55 , 0x55 , 0x04 , 0x21 , 0xe0 , 0x5e , 0x29 , 0x49 , 0xa1 , 0xaa , 0xfe , 0xf2 ,
 0x00 , 0x55 , 0x2a , 0x04 , 0x19 , 0x4a , 0x51 , 0x95 , 0xaa , 0x55 , 0xbb , 0x57 , 0x55 , 0x55 , 0xa5 , 0x52 , 0x84 , 0x8a , 0x2b , 0xa5 , 0x92 , 0x2a , 0x49 , 0xf5 , 0x03 ,
 0x00 , 0xaa , 0x44 , 0x51 , 0x8a , 0x50 , 0x85 , 0xa0 , 0x52 , 0xfa , 0x76 , 0xbd , 0xeb , 0x55 , 0x55 , 0x01 , 0x28 , 0x29 , 0x44 , 0x4a , 0x2a , 0x4a , 0x55 , 0xbf , 0x83 ,
 0x00 , 0x54 , 0x29 , 0x04 , 0x05 , 0x24 , 0x20 , 0x55 , 0x89 , 0x55 , 0xed , 0x57 , 0x5d , 0xab , 0xaa , 0x14 , 0x42 , 0x52 , 0xa9 , 0xa8 , 0xc4 , 0x54 , 0xaa , 0xfa , 0x81 ,
 0x00 , 0xac , 0x8a , 0x10 , 0x20 , 0x41 , 0x09 , 0x52 , 0x51 , 0x56 , 0xb5 , 0xee , 0xf6 , 0x5a , 0x55 , 0x01 , 0x94 , 0x44 , 0x4a , 0x25 , 0x29 , 0x49 , 0x55 , 0xef , 0x01 ,
 0x00 , 0xb0 , 0x52 , 0x42 , 0x09 , 0x14 , 0x40 , 0x55 , 0x8a , 0x54 , 0xed , 0xbb , 0xad , 0xd6 , 0xaa , 0x0a , 0xa9 , 0xaa , 0x92 , 0x4a , 0x55 , 0x55 , 0xd5 , 0xfa , 0x00 ,
 0x00 , 0xa0 , 0x8a , 0x14 , 0xa0 , 0x40 , 0x0a , 0xa4 , 0xa4 , 0xaa , 0x5a , 0x6f , 0x5b , 0xb5 , 0xb6 , 0x44 , 0x92 , 0x94 , 0x54 , 0x54 , 0x4a , 0xaa , 0xaa , 0xff , 0x00 ,
 0x00 , 0x60 , 0x55 , 0x42 , 0x05 , 0x15 , 0x51 , 0x29 , 0x29 , 0x55 , 0xd5 , 0xfa , 0xf6 , 0x6d , 0xad , 0x8a , 0x2a , 0xa5 , 0xaa , 0xa5 , 0x52 , 0x55 , 0x55 , 0x7d , 0x00 ,
 0x00 , 0x60 , 0x95 , 0x14 , 0x28 , 0x40 , 0x04 , 0x4a , 0x52 , 0x55 , 0xb5 , 0xd6 , 0xaf , 0xd6 , 0x5b , 0xb5 , 0x4a , 0x55 , 0x25 , 0xaa , 0x54 , 0xa5 , 0xea , 0x3f , 0x00 ,
 0x00 , 0xc0 , 0x55 , 0xa1 , 0x42 , 0x95 , 0x52 , 0x95 , 0x54 , 0x55 , 0x4d , 0xb5 , 0xfd , 0x7d , 0x77 , 0xa5 , 0xaa , 0xaa , 0xd4 , 0x2a , 0x55 , 0x55 , 0xb5 , 0x1e , 0x00 ,
 0x00 , 0x40 , 0xab , 0x4a , 0x94 , 0x24 , 0xa4 , 0xa8 , 0x4a , 0x55 , 0x55 , 0xaa , 0xaa , 0xb7 , 0xdd , 0x5d , 0x55 , 0x25 , 0x95 , 0x52 , 0x55 , 0x55 , 0xed , 0x0f , 0x00 ,
 0x00 , 0x80 , 0x56 , 0xaa , 0x2a , 0x49 , 0x95 , 0x52 , 0x55 , 0xd5 , 0xaa , 0x52 , 0x6d , 0xed , 0x7f , 0x6b , 0xab , 0xaa , 0xaa , 0xaa , 0xaa , 0xaa , 0x5a , 0x07 , 0x00 ,
 0x00 , 0x00 , 0xd9 , 0x4a , 0x52 , 0x55 , 0xa5 , 0xaa , 0xaa , 0x5a , 0x55 , 0x95 , 0xaa , 0x5d , 0xf5 , 0xdf , 0xb6 , 0x92 , 0xaa , 0xaa , 0xaa , 0x6a , 0xf7 , 0x03 , 0x00 ,
 0x00 , 0x00 , 0xb2 , 0xaa , 0x4a , 0xaa , 0xaa , 0xaa , 0xda , 0xb5 , 0xaa , 0x54 , 0x55 , 0xeb , 0x7f , 0xbb , 0xad , 0x4a , 0xaa , 0xaa , 0xaa , 0xda , 0xda , 0x01 , 0x00 ,
 0x00 , 0x00 , 0x64 , 0x55 , 0x55 , 0x55 , 0x55 , 0x55 , 0xb5 , 0x6e , 0xab , 0xaa , 0xda , 0xb6 , 0xee , 0xef , 0xda , 0x92 , 0x54 , 0x55 , 0xad , 0x56 , 0xf7 , 0x00 , 0x00 ,
 0x00 , 0x00 , 0xc4 , 0x5b , 0xd5 , 0xaa , 0xda , 0xee , 0x6f , 0xdb , 0xb6 , 0xb5 , 0xb5 , 0xdd , 0xfb , 0xbf , 0xb7 , 0x0a , 0x55 , 0xdb , 0x6a , 0xb5 , 0x7a , 0x00 , 0x00 ,
 0x00 , 0x00 , 0x58 , 0xb6 , 0xad , 0xb6 , 0xb7 , 0xb5 , 0xda , 0x6d , 0x6d , 0x6f , 0xef , 0xf6 , 0xbf , 0xfc , 0xdd , 0x52 , 0xaa , 0xb6 , 0xad , 0xed , 0x1f , 0x00 , 0x00 ,
 0x00 , 0x00 , 0xa0 , 0x6d , 0xdb , 0x6d , 0x6d , 0xdf , 0x7f , 0xdf , 0xdb , 0xfa , 0xbd , 0xbf , 0x7d , 0x78 , 0x77 , 0x97 , 0x6a , 0x55 , 0x5b , 0x5b , 0x0d , 0x00 , 0x00 ,
 0x00 , 0x00 , 0x40 , 0xdb , 0xb6 , 0xf6 , 0xfb , 0xfd , 0xf6 , 0x7b , 0xff , 0x5f , 0xff , 0xfb , 0x0f , 0xf0 , 0xdf , 0x6a , 0xd5 , 0x6d , 0xf5 , 0xb6 , 0x07 , 0x00 , 0x00 ,
 0x00 , 0x00 , 0x00 , 0x6d , 0xfb , 0x5d , 0xdf , 0xb7 , 0xdd , 0xee , 0xb5 , 0xdb , 0x75 , 0x7f , 0x07 , 0xe0 , 0xfd , 0x5f , 0xbb , 0xb6 , 0xab , 0xed , 0x02 , 0x00 , 0x00 ,
 0x00 , 0x00 , 0x00 , 0xda , 0xad , 0xff , 0xf7 , 0x6d , 0xeb , 0xbf , 0xff , 0xad , 0xee , 0xf7 , 0x01 , 0x80 , 0x57 , 0xf5 , 0xd6 , 0x6d , 0xbd , 0xb6 , 0x01 , 0x00 , 0x00 ,
 0x00 , 0x00 , 0x00 , 0x70 , 0xff , 0xf6 , 0x7e , 0xd7 , 0xb6 , 0xfa , 0xbf , 0x7b , 0xdb , 0x3e , 0x00 , 0x00 , 0xff , 0xaf , 0xbd , 0xfb , 0xd7 , 0x7b , 0x00 , 0x00 , 0x00 ,
 0x00 , 0x00 , 0x00 , 0xc0 , 0xd5 , 0xdf , 0xdf , 0xbd , 0xda , 0xd7 , 0xf6 , 0xd6 , 0x76 , 0x0f , 0x00 , 0x00 , 0xfe , 0xfe , 0x77 , 0xaf , 0x7a , 0x0f , 0x00 , 0x00 , 0x00 ,
 0x00 , 0x00 , 0x00 , 0x00 , 0x7f , 0x7d , 0x7b , 0xeb , 0x77 , 0xfd , 0xdf , 0xdd , 0xfd , 0x01 , 0x00 , 0x00 , 0xf8 , 0x5b , 0xdd , 0xfd , 0xef , 0x06 , 0x00 , 0x00 , 0x00 ,
 0x00 , 0x00 , 0x00 , 0x00 , 0xe8 , 0xd7 , 0xef , 0x5f , 0xfd , 0xbf , 0x7d , 0x77 , 0x2f , 0x00 , 0x00 , 0x00 , 0xe0 , 0xff , 0x7f , 0x57 , 0xbd , 0x01 , 0x00 , 0x00 , 0x00 ,
 0x00 , 0x00 , 0x00 , 0x00 , 0x80 , 0xfe , 0xb6 , 0xfa , 0x17 , 0x00 , 0xea , 0x5d , 0x01 , 0x00 , 0x00 , 0x00 , 0x80 , 0xff , 0xdb , 0xff , 0x77 , 0x00 , 0x00 , 0x00 , 0x00 ,
 0x00 , 0x00 , 0x00 , 0x00 , 0x00 , 0xd0 , 0xff , 0x2f , 0x00 , 0x00 , 0x00 , 0x00 , 0x00 , 0x00 , 0x00 , 0x00 , 0x00 , 0xdc , 0xfe , 0xfd , 0x0f , 0x00 , 0x00 , 0x00 , 0x00 ,
 0x00 , 0x00 , 0x00 , 0x00 , 0x00 , 0x00 , 0x00 , 0x00 , 0x00 , 0x00 , 0x00 , 0x00 , 0x00 , 0x00 , 0x00 , 0x00 , 0x00 , 0xf0 , 0xff , 0x6f , 0x01 , 0x00 , 0x00 , 0x00 , 0x00 ,
 0x00 , 0x00 , 0x00 , 0x00 , 0x00 , 0x00 , 0x00 , 0x00 , 0x00 , 0x00 , 0x00 , 0x00 , 0x00 , 0x00 , 0x00 , 0x00 , 0x00 , 0x00 , 0xfd , 0x5f , 0x00 , 0x00 , 0x00 , 0x00 , 0x80 ,
 0x00 , 0x00 , 0x00 , 0x00 , 0x00 , 0x00 , 0x00 , 0x00 , 0x00 , 0x00 , 0x00 , 0x00 , 0x00 , 0x00 , 0x00 , 0x00 , 0x00 , 0x00 , 0x00 , 0x00 , 0x00 , 0x00 , 0x00 , 0x00 , 0x00 ,
 0x00 , 0x00 , 0x00 , 0x00 , 0x00 , 0x00 , 0x00 , 0x00 , 0x00 , 0x00 , 0x00 , 0x00 , 0x00 , 0x00 , 0x00 , 0x00 , 0x00 , 0x00 , 0x00 , 0x00 , 0x00 , 0x00 , 0x00 , 0x00 , 0x00 }; 
