#define NAA-1_xbm_width 144 
#define NAA-1_xbm_height 107 
static unsigned char NAA-1_xbm_bits[] = { 
 0x00 , 0x00 , 0x00 , 0x00 , 0x00 , 0x00 , 0x00 , 0x00 , 0x00 , 0x00 , 0x00 , 0x00 , 0x00 , 0x00 , 0x00 , 0x00 , 0x00 , 0x00 ,
 0x00 , 0x00 , 0x00 , 0x00 , 0x00 , 0x00 , 0x00 , 0x00 , 0x80 , 0xfe , 0x00 , 0x00 , 0x00 , 0x00 , 0x00 , 0x00 , 0x00 , 0x00 ,
 0x00 , 0x00 , 0x00 , 0x00 , 0x00 , 0x00 , 0x00 , 0x00 , 0x60 , 0x95 , 0x06 , 0x00 , 0x00 , 0x00 , 0x00 , 0x00 , 0x00 , 0x00 ,
 0x00 , 0x00 , 0x00 , 0x00 , 0x00 , 0x00 , 0x00 , 0x00 , 0xa8 , 0x6a , 0x09 , 0x00 , 0x00 , 0x00 , 0x00 , 0x00 , 0x00 , 0x00 ,
 0x00 , 0x00 , 0x00 , 0x00 , 0x00 , 0x00 , 0x00 , 0x00 , 0xaa , 0xaa , 0x38 , 0x00 , 0x00 , 0x00 , 0x00 , 0x00 , 0x00 , 0x00 ,
 0x00 , 0x00 , 0x00 , 0x00 , 0x00 , 0x00 , 0x00 , 0x00 , 0x55 , 0x95 , 0x6a , 0x00 , 0x00 , 0x00 , 0x00 , 0x00 , 0x00 , 0x00 ,
 0x00 , 0x00 , 0x00 , 0x00 , 0x00 , 0x50 , 0x01 , 0x80 , 0x4a , 0x22 , 0xd5 , 0x00 , 0x00 , 0x00 , 0x00 , 0x00 , 0x00 , 0x00 ,
 0x00 , 0x00 , 0x00 , 0x00 , 0x00 , 0xae , 0x5e , 0xa8 , 0x94 , 0x54 , 0xaa , 0x01 , 0x00 , 0x00 , 0x00 , 0x00 , 0x00 , 0x00 ,
 0x00 , 0x00 , 0x00 , 0x00 , 0x80 , 0x55 , 0x51 , 0xab , 0x52 , 0x81 , 0x54 , 0x01 , 0x00 , 0x00 , 0x00 , 0x00 , 0x00 , 0x00 ,
 0x00 , 0x00 , 0x00 , 0x00 , 0x60 , 0xab , 0x56 , 0xaa , 0x8a , 0x54 , 0xd1 , 0x02 , 0x00 , 0x00 , 0x00 , 0x00 , 0x00 , 0x00 ,
 0x00 , 0x00 , 0x00 , 0x00 , 0xb0 , 0xaa , 0x48 , 0x95 , 0x54 , 0x12 , 0xaa , 0x06 , 0x00 , 0x00 , 0x00 , 0x00 , 0x00 , 0x00 ,
 0x00 , 0x00 , 0x00 , 0x00 , 0xd8 , 0x4a , 0x55 , 0xa9 , 0xaa , 0x44 , 0x90 , 0x05 , 0x00 , 0x00 , 0x00 , 0x00 , 0x00 , 0x00 ,
 0x00 , 0x00 , 0x00 , 0x00 , 0xac , 0x92 , 0x92 , 0xaa , 0x12 , 0xa9 , 0x2a , 0x07 , 0x00 , 0x00 , 0x00 , 0x00 , 0x00 , 0x00 ,
 0x00 , 0x00 , 0x00 , 0x00 , 0xb6 , 0x2a , 0xa4 , 0xaa , 0xaa , 0x02 , 0x44 , 0x0d , 0x00 , 0x00 , 0x00 , 0x00 , 0x00 , 0x00 ,
 0x00 , 0x00 , 0x00 , 0x00 , 0xad , 0xca , 0xaa , 0x54 , 0x45 , 0x54 , 0xa9 , 0x0a , 0x00 , 0x00 , 0x00 , 0x00 , 0x00 , 0x00 ,
 0x00 , 0x00 , 0x00 , 0x00 , 0xab , 0x12 , 0x55 , 0x55 , 0x99 , 0x22 , 0x42 , 0x0d , 0x00 , 0x00 , 0x00 , 0x00 , 0x00 , 0x00 ,
 0x00 , 0x00 , 0x00 , 0x80 , 0x56 , 0x65 , 0x92 , 0xaa , 0x22 , 0x49 , 0x29 , 0x1d , 0x00 , 0x00 , 0x00 , 0x00 , 0x00 , 0x00 ,
 0x00 , 0x00 , 0x00 , 0x80 , 0xad , 0x94 , 0xa4 , 0x94 , 0x4c , 0x12 , 0x52 , 0x15 , 0x00 , 0x00 , 0x00 , 0x00 , 0x00 , 0x00 ,
 0x00 , 0x00 , 0x00 , 0x80 , 0x2b , 0x29 , 0x55 , 0x25 , 0x91 , 0xa4 , 0x44 , 0x1a , 0x00 , 0x00 , 0x00 , 0x00 , 0x00 , 0x00 ,
 0x00 , 0x00 , 0x00 , 0xc0 , 0xaa , 0x52 , 0x09 , 0x49 , 0x22 , 0x49 , 0xa8 , 0x2a , 0x00 , 0x00 , 0x00 , 0x00 , 0x00 , 0x00 ,
 0x00 , 0x00 , 0x00 , 0xc0 , 0x56 , 0x25 , 0x55 , 0x84 , 0x48 , 0x92 , 0x92 , 0x2a , 0x00 , 0x00 , 0x00 , 0x00 , 0x00 , 0x00 ,
 0x00 , 0x00 , 0x00 , 0x40 , 0x95 , 0x54 , 0x82 , 0x10 , 0x82 , 0x34 , 0x24 , 0x35 , 0x00 , 0x00 , 0x00 , 0x00 , 0x00 , 0x00 ,
 0x00 , 0x00 , 0x00 , 0xe0 , 0x55 , 0x89 , 0x14 , 0x84 , 0x28 , 0x4a , 0x49 , 0x6a , 0x00 , 0x00 , 0x00 , 0x00 , 0x00 , 0x00 ,
 0x00 , 0x00 , 0x00 , 0xa0 , 0x2a , 0x55 , 0x40 , 0x20 , 0x42 , 0x11 , 0x52 , 0xd5 , 0x01 , 0x00 , 0x00 , 0x00 , 0x00 , 0x00 ,
 0x00 , 0x00 , 0x00 , 0x70 , 0xab , 0x92 , 0x0a , 0x89 , 0x14 , 0x4a , 0x49 , 0x2a , 0x03 , 0x00 , 0x00 , 0x00 , 0x00 , 0x00 ,
 0x00 , 0x00 , 0x00 , 0xd0 , 0x4a , 0x24 , 0x25 , 0x52 , 0xa9 , 0x12 , 0x92 , 0x52 , 0x0e , 0x00 , 0x00 , 0x00 , 0x00 , 0x00 ,
 0x00 , 0x00 , 0x00 , 0xbd , 0xaa , 0x4a , 0x89 , 0x24 , 0x25 , 0xa5 , 0xa4 , 0x94 , 0x38 , 0x00 , 0x00 , 0x00 , 0x00 , 0x00 ,
 0x00 , 0x00 , 0xf0 , 0x6b , 0x55 , 0x95 , 0x22 , 0xa9 , 0x4a , 0x49 , 0x12 , 0xa5 , 0x62 , 0x00 , 0x00 , 0x00 , 0x00 , 0x00 ,
 0x00 , 0x00 , 0xac , 0xd6 , 0x2a , 0xa9 , 0x48 , 0x55 , 0xb2 , 0x92 , 0xa8 , 0xaa , 0xca , 0x00 , 0x00 , 0x00 , 0x00 , 0x00 ,
 0x00 , 0x00 , 0x5b , 0xb5 , 0x4a , 0x12 , 0x55 , 0x4a , 0x2d , 0x15 , 0x41 , 0x94 , 0x94 , 0x01 , 0x00 , 0x00 , 0x00 , 0x00 ,
 0x00 , 0xc0 , 0xd6 , 0xaa , 0xaa , 0xaa , 0xa4 , 0x52 , 0x29 , 0xa5 , 0x94 , 0x22 , 0x55 , 0x03 , 0x00 , 0x00 , 0x00 , 0x00 ,
 0x00 , 0xa0 , 0x55 , 0x95 , 0x52 , 0x49 , 0xa9 , 0xac , 0x56 , 0x2d , 0x29 , 0x55 , 0x51 , 0x05 , 0x00 , 0x00 , 0x00 , 0x00 ,
 0x00 , 0xb0 , 0x2a , 0xa1 , 0x94 , 0x12 , 0x15 , 0x55 , 0xd4 , 0x56 , 0x42 , 0x24 , 0x4a , 0x0d , 0x00 , 0x00 , 0x00 , 0x00 ,
 0x00 , 0x68 , 0x55 , 0x4a , 0x25 , 0xa5 , 0xb4 , 0xaa , 0xab , 0x95 , 0x88 , 0x4a , 0x95 , 0x0a , 0x00 , 0x00 , 0x00 , 0x00 ,
 0x00 , 0x58 , 0xa5 , 0x28 , 0xa9 , 0x54 , 0x55 , 0xad , 0x2a , 0x27 , 0x25 , 0x50 , 0x22 , 0x15 , 0x00 , 0x00 , 0x00 , 0x00 ,
 0x00 , 0xac , 0x0a , 0x41 , 0x4a , 0x09 , 0xa9 , 0x5a , 0xd5 , 0xaa , 0x48 , 0x85 , 0x54 , 0x1d , 0x00 , 0x00 , 0x00 , 0x00 ,
 0x00 , 0x5a , 0x55 , 0xaa , 0x94 , 0x52 , 0xaa , 0xaf , 0x54 , 0x95 , 0x12 , 0x29 , 0x95 , 0x12 , 0x00 , 0x00 , 0x00 , 0x00 ,
 0x00 , 0x56 , 0x21 , 0x11 , 0x29 , 0x55 , 0x55 , 0x2a , 0xa9 , 0x2a , 0x49 , 0x52 , 0x52 , 0x35 , 0x00 , 0x00 , 0x00 , 0x00 ,
 0x00 , 0xaa , 0x4a , 0x44 , 0x42 , 0x48 , 0xd2 , 0x57 , 0x92 , 0xa4 , 0x22 , 0x89 , 0xa4 , 0x2a , 0x00 , 0x00 , 0x00 , 0x00 ,
 0x00 , 0x57 , 0x95 , 0x92 , 0x94 , 0x92 , 0x2a , 0x89 , 0x4a , 0x55 , 0x94 , 0x24 , 0x55 , 0x35 , 0x00 , 0x00 , 0x00 , 0x00 ,
 0x00 , 0x5a , 0x22 , 0x24 , 0x29 , 0xa9 , 0x54 , 0x55 , 0x92 , 0x2a , 0x49 , 0x49 , 0x55 , 0x55 , 0x00 , 0x00 , 0x00 , 0x00 ,
 0x00 , 0xab , 0x94 , 0x50 , 0x42 , 0x84 , 0xaa , 0xa2 , 0x54 , 0x52 , 0x91 , 0x54 , 0xaa , 0x6a , 0x00 , 0x00 , 0x00 , 0x00 ,
 0x00 , 0x55 , 0x25 , 0x85 , 0x14 , 0x51 , 0xa9 , 0x94 , 0xaa , 0xaa , 0x2a , 0xc9 , 0x54 , 0x55 , 0x00 , 0x00 , 0x00 , 0x00 ,
 0x00 , 0xab , 0x4a , 0x28 , 0x41 , 0x24 , 0xaa , 0x52 , 0x49 , 0x55 , 0x68 , 0x55 , 0x55 , 0xb5 , 0x00 , 0x00 , 0x00 , 0x00 ,
 0x00 , 0x2b , 0x91 , 0x52 , 0x04 , 0x48 , 0x55 , 0x2a , 0x95 , 0x94 , 0x95 , 0x52 , 0xaa , 0xaa , 0x02 , 0x00 , 0x00 , 0x00 ,
 0x00 , 0x55 , 0x25 , 0x14 , 0x21 , 0xa5 , 0x94 , 0x52 , 0xa2 , 0xaa , 0xaa , 0x54 , 0xdb , 0x95 , 0xfd , 0x02 , 0x00 , 0x00 ,
 0x00 , 0xab , 0x4a , 0x01 , 0x80 , 0x48 , 0x51 , 0xa5 , 0x54 , 0x55 , 0xb5 , 0xea , 0xb6 , 0x56 , 0xff , 0x1f , 0x00 , 0x00 ,
 0x00 , 0xad , 0x14 , 0x04 , 0x24 , 0x95 , 0xaa , 0x14 , 0xa9 , 0xaa , 0xaa , 0x5a , 0x6b , 0xb5 , 0xea , 0xff , 0x00 , 0x00 ,
 0x00 , 0xab , 0xa2 , 0x90 , 0x90 , 0xa8 , 0x24 , 0xa9 , 0x48 , 0x52 , 0xad , 0xfe , 0xd6 , 0xea , 0xbf , 0xfd , 0x03 , 0x00 ,
 0x00 , 0x55 , 0x15 , 0x04 , 0x22 , 0xa5 , 0xd4 , 0x12 , 0x52 , 0x95 , 0x52 , 0xab , 0x5a , 0x55 , 0xfb , 0xff , 0x0f , 0x00 ,
 0x00 , 0x5b , 0x45 , 0xa0 , 0x54 , 0xa9 , 0xaa , 0xa4 , 0xa8 , 0xaa , 0xd4 , 0x6e , 0xab , 0xfa , 0xbe , 0xed , 0x3f , 0x00 ,
 0x00 , 0x55 , 0x15 , 0x49 , 0xa9 , 0xaa , 0x7a , 0x4a , 0x92 , 0xa4 , 0xaa , 0xdb , 0xaa , 0xd6 , 0xf7 , 0xbf , 0x7f , 0x00 ,
 0x00 , 0xb7 , 0x42 , 0x54 , 0xaa , 0x2a , 0x55 , 0x91 , 0x24 , 0x55 , 0xd5 , 0xb6 , 0xaa , 0xaa , 0xfe , 0xea , 0xf5 , 0x00 ,
 0x80 , 0x6a , 0x15 , 0xa1 , 0xea , 0x4a , 0x2d , 0x2a , 0x52 , 0x49 , 0xea , 0xad , 0xaa , 0xfa , 0xdb , 0x7f , 0xcf , 0x01 ,
 0x80 , 0x5d , 0x25 , 0x4d , 0x55 , 0x95 , 0x52 , 0x49 , 0x24 , 0xa5 , 0xb4 , 0xb6 , 0x85 , 0x56 , 0xff , 0xeb , 0xb7 , 0x03 ,
 0x80 , 0xd6 , 0x4a , 0x52 , 0x7d , 0x29 , 0x84 , 0x92 , 0x48 , 0x10 , 0xf5 , 0xad , 0xaa , 0xaa , 0x6a , 0x5f , 0x5f , 0x07 ,
 0x40 , 0xb5 , 0xaa , 0xaa , 0xaa , 0x52 , 0x29 , 0x24 , 0x81 , 0x4a , 0x55 , 0xab , 0x42 , 0xdd , 0xff , 0xf7 , 0xfd , 0x0f ,
 0xc0 , 0xab , 0x92 , 0x4a , 0x55 , 0xaa , 0x52 , 0x09 , 0x24 , 0x91 , 0xbc , 0x5a , 0xa5 , 0xaa , 0xaa , 0x5d , 0xb7 , 0x0f ,
 0xa0 , 0xb6 , 0xa5 , 0x54 , 0x95 , 0x4a , 0x0a , 0x42 , 0x01 , 0xa5 , 0xea , 0x56 , 0xa1 , 0xd6 , 0xff , 0xef , 0xfe , 0x1d ,
 0x70 , 0xad , 0xaa , 0x2a , 0xab , 0xaa , 0xa4 , 0x10 , 0x40 , 0x4a , 0x55 , 0x55 , 0x92 , 0xaa , 0xaa , 0x5b , 0xfb , 0x1f ,
 0xa8 , 0x55 , 0xa9 , 0x52 , 0x55 , 0x55 , 0x49 , 0x85 , 0x88 , 0x54 , 0xbd , 0x55 , 0xb5 , 0xaa , 0xfd , 0xbe , 0x6d , 0x3f ,
 0x58 , 0x6b , 0x95 , 0x94 , 0x4a , 0x92 , 0x12 , 0x22 , 0x25 , 0xa9 , 0x68 , 0x95 , 0xf4 , 0x6a , 0xab , 0x57 , 0xff , 0x3f ,
 0xb4 , 0x5a , 0xa5 , 0xaa , 0x55 , 0x55 , 0x55 , 0x49 , 0x01 , 0x52 , 0x55 , 0x25 , 0x8d , 0xd5 , 0xfe , 0xbe , 0xda , 0x7f ,
 0x6c , 0xab , 0x54 , 0x22 , 0x95 , 0xaa , 0xa4 , 0x52 , 0xa9 , 0x14 , 0xb5 , 0x4a , 0x52 , 0xae , 0xb7 , 0x6f , 0xf7 , 0x7e ,
 0xaa , 0xaa , 0x4a , 0xad , 0xaa , 0x54 , 0x15 , 0xd5 , 0x04 , 0xa0 , 0x54 , 0x29 , 0xa2 , 0xfa , 0xff , 0x5d , 0xbd , 0x77 ,
 0xd6 , 0x56 , 0xa9 , 0x94 , 0x4a , 0x25 , 0x55 , 0xa4 , 0x90 , 0x0a , 0xa9 , 0x12 , 0x54 , 0xd5 , 0xbd , 0x57 , 0xeb , 0x7f ,
 0xae , 0xaa , 0x12 , 0xa5 , 0x56 , 0xaa , 0x52 , 0x29 , 0x05 , 0x50 , 0x52 , 0x45 , 0x89 , 0xba , 0xff , 0xaf , 0xfa , 0xff ,
 0xb5 , 0xaa , 0xa4 , 0xaa , 0xaa , 0x54 , 0x95 , 0x4a , 0xa8 , 0x8a , 0x08 , 0x08 , 0x32 , 0xf5 , 0xaf , 0x55 , 0xda , 0x7e ,
 0xab , 0x55 , 0xa9 , 0xaa , 0x05 , 0x49 , 0x2a , 0x95 , 0x02 , 0x24 , 0x02 , 0x52 , 0x44 , 0xeb , 0xff , 0xaf , 0xfa , 0xf7 ,
 0x56 , 0x55 , 0x35 , 0x55 , 0x37 , 0x52 , 0xa5 , 0x22 , 0x54 , 0x89 , 0x00 , 0x04 , 0x51 , 0xad , 0xff , 0x15 , 0xd5 , 0xff ,
 0xad , 0xaa , 0xaa , 0xe8 , 0x42 , 0x94 , 0x4a , 0x4a , 0x01 , 0x11 , 0x2a , 0x50 , 0xa4 , 0x6a , 0xff , 0x6b , 0x7d , 0x7f ,
 0xab , 0xaa , 0x54 , 0x92 , 0x94 , 0xa4 , 0x90 , 0x92 , 0x54 , 0xa2 , 0x00 , 0x05 , 0x41 , 0xd5 , 0x5d , 0x55 , 0xf5 , 0xfb ,
 0xaa , 0xaa , 0x8a , 0x24 , 0x2a , 0x29 , 0x25 , 0x24 , 0x81 , 0x04 , 0x14 , 0x48 , 0x08 , 0xb4 , 0xf7 , 0xad , 0xde , 0x7f ,
 0x56 , 0x55 , 0x55 , 0x89 , 0x40 , 0x52 , 0x8a , 0x4a , 0x54 , 0x52 , 0xa0 , 0x12 , 0xa1 , 0x6a , 0x5d , 0xd5 , 0xf5 , 0x7e ,
 0x56 , 0x55 , 0x95 , 0x12 , 0x95 , 0x84 , 0x50 , 0x24 , 0x89 , 0x08 , 0x09 , 0x25 , 0x04 , 0xd4 , 0x77 , 0xb5 , 0xff , 0x7f ,
 0xac , 0xaa , 0x52 , 0xa4 , 0x20 , 0x2a , 0x88 , 0x4a , 0x22 , 0x22 , 0x50 , 0x48 , 0x11 , 0xa9 , 0xae , 0x6a , 0xdd , 0x3f ,
 0x54 , 0x55 , 0x95 , 0x12 , 0x4a , 0x48 , 0x12 , 0x15 , 0x49 , 0x49 , 0x01 , 0x11 , 0x04 , 0xea , 0x5b , 0xed , 0xf7 , 0x3f ,
 0xac , 0xaa , 0xaa , 0xa4 , 0x50 , 0x15 , 0xa0 , 0x4a , 0x12 , 0x12 , 0x1a , 0x40 , 0x51 , 0x54 , 0xb7 , 0x5a , 0xfd , 0x1e ,
 0x50 , 0x55 , 0x55 , 0x09 , 0x15 , 0x92 , 0x54 , 0x25 , 0xa4 , 0xa4 , 0x20 , 0x04 , 0x02 , 0xe9 , 0xaa , 0xf5 , 0xbf , 0x1f ,
 0x50 , 0x55 , 0x95 , 0x52 , 0xa0 , 0x14 , 0xa0 , 0x8a , 0x0a , 0x55 , 0x15 , 0xa1 , 0x28 , 0x5a , 0x6b , 0x5b , 0xf7 , 0x1f ,
 0x80 , 0xaa , 0xaa , 0x04 , 0x49 , 0x09 , 0x44 , 0x21 , 0x51 , 0x49 , 0x4a , 0x00 , 0x42 , 0xd5 , 0x56 , 0xed , 0xff , 0x0f ,
 0xa0 , 0xaa , 0xaa , 0x2a , 0x20 , 0x0a , 0x11 , 0x94 , 0x24 , 0x95 , 0x12 , 0x84 , 0x94 , 0xaa , 0xad , 0xfb , 0xfe , 0x07 ,
 0x80 , 0x54 , 0x55 , 0x55 , 0x82 , 0x00 , 0x44 , 0x01 , 0x49 , 0xaa , 0x4a , 0x21 , 0xa9 , 0x5a , 0x75 , 0xed , 0xef , 0x03 ,
 0x00 , 0x53 , 0x55 , 0x85 , 0x00 , 0x20 , 0x11 , 0x54 , 0x52 , 0x55 , 0x15 , 0x42 , 0x92 , 0x6a , 0xab , 0xbf , 0xfb , 0x01 ,
 0x00 , 0xa4 , 0xaa , 0x5a , 0x4a , 0x85 , 0xa4 , 0x00 , 0x95 , 0xaa , 0xaa , 0x94 , 0x56 , 0xd5 , 0xde , 0xfa , 0xff , 0x00 ,
 0x00 , 0x48 , 0x55 , 0xa5 , 0x20 , 0x10 , 0x11 , 0x55 , 0xa8 , 0xb6 , 0x2a , 0x65 , 0xa9 , 0xaa , 0xf5 , 0xdf , 0x7f , 0x00 ,
 0x00 , 0x20 , 0xad , 0x2a , 0x55 , 0xa5 , 0x44 , 0x90 , 0xa5 , 0x6a , 0xd5 , 0xaa , 0x56 , 0x5b , 0x5f , 0xf7 , 0x3f , 0x00 ,
 0x00 , 0x00 , 0x6a , 0x55 , 0x89 , 0x08 , 0x89 , 0x4a , 0xaa , 0xde , 0x56 , 0x55 , 0xb5 , 0xf6 , 0xfa , 0xff , 0x0f , 0x00 ,
 0x00 , 0x80 , 0x54 , 0x55 , 0x52 , 0x55 , 0x52 , 0x24 , 0xa9 , 0xaa , 0xad , 0xb6 , 0xed , 0xad , 0xff , 0xfd , 0x01 , 0x00 ,
 0x00 , 0x00 , 0xaa , 0xaa , 0x4a , 0xa2 , 0x24 , 0x49 , 0x6a , 0x7d , 0xdb , 0x6d , 0x5b , 0xff , 0x77 , 0x7f , 0x00 , 0x00 ,
 0x00 , 0x00 , 0x68 , 0x55 , 0xb5 , 0x2a , 0x49 , 0x55 , 0xd5 , 0xaa , 0xb6 , 0xda , 0xb6 , 0x83 , 0xfe , 0x07 , 0x00 , 0x00 ,
 0x00 , 0x00 , 0x54 , 0x55 , 0xa5 , 0x54 , 0x52 , 0x92 , 0x5a , 0xf5 , 0x6d , 0xb7 , 0xed , 0x00 , 0x00 , 0x00 , 0x00 , 0x00 ,
 0x00 , 0x00 , 0xa8 , 0xaa , 0x4a , 0xa5 , 0xaa , 0xa4 , 0xf6 , 0x1b , 0xdb , 0x6a , 0xfb , 0x00 , 0x00 , 0x00 , 0x00 , 0x00 ,
 0x00 , 0x00 , 0x48 , 0x55 , 0x55 , 0x95 , 0x54 , 0x55 , 0x55 , 0x7f , 0x76 , 0xdf , 0x2e , 0x00 , 0x00 , 0x00 , 0x00 , 0x00 ,
 0x00 , 0x00 , 0x50 , 0x55 , 0x55 , 0x55 , 0xab , 0xaa , 0xfd , 0xdf , 0xdd , 0xb5 , 0x3b , 0x00 , 0x00 , 0x00 , 0x00 , 0x00 ,
 0x00 , 0x00 , 0x50 , 0x55 , 0x55 , 0x55 , 0x55 , 0x55 , 0xeb , 0xf3 , 0x7b , 0xef , 0x0e , 0x00 , 0x00 , 0x00 , 0x00 , 0x00 ,
 0x00 , 0x00 , 0x90 , 0xaa , 0xaa , 0xaa , 0xaa , 0xea , 0xfe , 0x80 , 0xee , 0xbd , 0x07 , 0x00 , 0x00 , 0x00 , 0x00 , 0x00 ,
 0x00 , 0x00 , 0xa0 , 0xaa , 0xaa , 0xaa , 0xad , 0x5a , 0x7b , 0x00 , 0xbe , 0xf7 , 0x01 , 0x00 , 0x00 , 0x00 , 0x00 , 0x00 ,
 0x00 , 0x00 , 0x40 , 0x55 , 0x55 , 0x75 , 0x6b , 0xeb , 0x3f , 0x00 , 0xf0 , 0x5f , 0x00 , 0x00 , 0x00 , 0x00 , 0x00 , 0x00 ,
 0x00 , 0x00 , 0x00 , 0x55 , 0xd5 , 0xae , 0xde , 0x5e , 0x0f , 0x00 , 0x00 , 0x00 , 0x00 , 0x00 , 0x00 , 0x00 , 0x00 , 0x00 ,
 0x00 , 0x00 , 0x00 , 0x55 , 0xb5 , 0xf5 , 0xa9 , 0xfb , 0x01 , 0x00 , 0x00 , 0x00 , 0x00 , 0x00 , 0x00 , 0x00 , 0x00 , 0x00 ,
 0x00 , 0x00 , 0x00 , 0xb6 , 0xaa , 0x1e , 0x00 , 0x24 , 0x00 , 0x00 , 0x00 , 0x00 , 0x00 , 0x00 , 0x00 , 0x00 , 0x00 , 0x00 ,
 0x00 , 0x00 , 0x00 , 0x6c , 0xdb , 0x2d , 0x00 , 0x00 , 0x00 , 0x00 , 0x00 , 0x00 , 0x00 , 0x00 , 0x00 , 0x00 , 0x00 , 0x00 ,
 0x00 , 0x00 , 0x00 , 0xd8 , 0x76 , 0x03 , 0x00 , 0x00 , 0x00 , 0x00 , 0x00 , 0x00 , 0x00 , 0x00 , 0x00 , 0x00 , 0x00 , 0x00 ,
 0x00 , 0x00 , 0x00 , 0xe0 , 0xdf , 0x00 , 0x00 , 0x00 , 0x00 , 0x00 , 0x00 , 0x00 , 0x00 , 0x00 , 0x00 , 0x00 , 0x00 , 0x00 ,
 0x00 , 0x00 , 0x00 , 0x00 , 0x10 , 0x00 , 0x00 , 0x00 , 0x00 , 0x00 , 0x00 , 0x00 , 0x00 , 0x00 , 0x00 , 0x00 , 0x00 , 0x00 ,
 0x00 , 0x00 , 0x00 , 0x00 , 0x00 , 0x00 , 0x00 , 0x00 , 0x00 , 0x00 , 0x00 , 0x00 , 0x00 , 0x00 , 0x00 , 0x00 , 0x00 , 0x00 }; 
